<svg width="16" height="16" viewBox="0 0 16 16" fill="none" xmlns="http://www.w3.org/2000/svg">
  <path fill-rule="evenodd" clip-rule="evenodd"
        d="M8 6.5C9.38071 6.5 10.5 5.38071 10.5 4C10.5 2.61929 9.38071 1.5 8 1.5C6.61929 1.5 5.5 2.61929 5.5 4C5.5 5.38071 6.61929 6.5 8 6.5ZM8 8C10.2091 8 12 6.20914 12 4C12 1.79086 10.2091 0 8 0C5.79086 0 4 1.79086 4 4C4 6.20914 5.79086 8 8 8Z"
        fill="black"/>
  <path fill-rule="evenodd" clip-rule="evenodd"
        d="M14.5 16H16C16 11.5817 12.4183 8 8 8C3.58172 8 0 11.5817 0 16H1.5C1.5 12.4101 4.41015 9.5 8 9.5C11.5899 9.5 14.5 12.4101 14.5 16Z"
        fill="black"/>
</svg>