<svg width="16" height="10" viewBox="0 0 16 10" fill="none" xmlns="http://www.w3.org/2000/svg">
    <path fill-rule="evenodd" clip-rule="evenodd" d="M0 5C0 5 3 10 8 10C13 10 16 5 16 5C16 5 13 0 8 0C3 0 0 5 0 5ZM1.28392 5.77559C1.2839 5.77562 1.28391 5.7756 1.28392 5.77559V5.77559ZM1.83957 5C2.15368 4.60252 2.58955 4.10488 3.13401 3.60991C4.36429 2.49147 6.01911 1.5 8 1.5C9.98089 1.5 11.6357 2.49147 12.866 3.60991C13.4105 4.10488 13.8463 4.60252 14.1604 5C13.8463 5.39748 13.4105 5.89512 12.866 6.39009C11.6357 7.50853 9.98089 8.5 8 8.5C6.01911 8.5 4.36429 7.50853 3.13401 6.39009C2.58955 5.89512 2.15368 5.39748 1.83957 5ZM1.28394 4.22444C1.28393 4.22442 1.28392 4.22441 1.28394 4.22444V4.22444Z" fill="#434343"/>
    <path fill-rule="evenodd" clip-rule="evenodd" d="M8 6.5C8.82843 6.5 9.5 5.82843 9.5 5C9.5 4.17157 8.82843 3.5 8 3.5C7.17157 3.5 6.5 4.17157 6.5 5C6.5 5.82843 7.17157 6.5 8 6.5ZM8 8C9.65685 8 11 6.65685 11 5C11 3.34315 9.65685 2 8 2C6.34315 2 5 3.34315 5 5C5 6.65685 6.34315 8 8 8Z" fill="#434343"/>
</svg>