<svg width="17" height="17" viewBox="0 0 17 17" fill="none" xmlns="http://www.w3.org/2000/svg">
<path fill-rule="evenodd" clip-rule="evenodd" d="M2.98023e-08 8.99999C2.98023e-08 8.99999 3 14 8 14C13 14 16 8.99999 16 8.99999C16 8.99999 13 3.99999 8 3.99999C3 3.99999 2.98023e-08 8.99999 2.98023e-08 8.99999ZM1.83957 8.99999C2.15368 8.60251 2.58955 8.10487 3.13401 7.6099C4.36429 6.49146 6.01911 5.49999 8 5.49999C9.98089 5.49999 11.6357 6.49146 12.866 7.6099C13.4105 8.10487 13.8463 8.60251 14.1604 8.99999C13.8463 9.39747 13.4105 9.89511 12.866 10.3901C11.6357 11.5085 9.98089 12.5 8 12.5C6.01911 12.5 4.36429 11.5085 3.13401 10.3901C2.58955 9.89511 2.15368 9.39747 1.83957 8.99999Z" fill="black"/>
<path fill-rule="evenodd" clip-rule="evenodd" d="M8 10.5C8.82843 10.5 9.5 9.82842 9.5 8.99999C9.5 8.17156 8.82843 7.49999 8 7.49999C7.17157 7.49999 6.5 8.17156 6.5 8.99999C6.5 9.82842 7.17157 10.5 8 10.5ZM8 12C9.65685 12 11 10.6568 11 8.99999C11 7.34314 9.65685 5.99999 8 5.99999C6.34315 5.99999 5 7.34314 5 8.99999C5 10.6568 6.34315 12 8 12Z" fill="black"/>
<path fill-rule="evenodd" clip-rule="evenodd" d="M15 17L0 1.99999L1.06066 0.939331L16.0607 15.9393L15 17Z" fill="#434343"/>
</svg>
