<?xml version="1.0" standalone="no"?>
<!DOCTYPE svg PUBLIC "-//W3C//DTD SVG 1.1//EN" "http://www.w3.org/Graphics/SVG/1.1/DTD/svg11.dtd" >
<svg xmlns="http://www.w3.org/2000/svg" xmlns:xlink="http://www.w3.org/1999/xlink" version="1.1">
<metadata>
Created by FontForge 20170731 at Thu Mar 11 21:20:31 2021
 By Aleksey,,,
Copyright 2020 by Violaine et Je're'my.
</metadata>
<defs>
<font id="Voyage-Bold" horiz-adv-x="0" >
  <font-face 
    font-family="Voyage Bold"
    font-weight="700"
    font-stretch="normal"
    units-per-em="2048"
    panose-1="0 0 8 0 0 0 0 0 0 0"
    ascent="1638"
    descent="-410"
    x-height="1024"
    cap-height="1434"
    bbox="-694 -600 3488 1952"
    underline-thickness="102"
    underline-position="-307"
    unicode-range="U+0020-2265"
  />
<missing-glyph horiz-adv-x="890" 
d="M731 1413v-1782h-565v1782h565zM594 1294h-295v-59h117v-66h-119v-59h297v59h-119v66h119v59zM475 1063h-178v-184h297v61h-119v123zM416 1004v-64h-60v64h60zM594 831h-297v-59h119v-65h-119v-60h178v125h119v59zM594 723h-59v-117h-238v-61h297v178zM594 506h-178v-100
h59v40h60v-81h-179v141h-59v-201h297v201zM594 199h-297v-203h297v203zM535 139v-84h-179v84h179zM594 -45h-297v-57h125l-125 -84v-60h297v60h-182l125 84h57v57z" />
    <glyph glyph-name="f_f" unicode="ff" horiz-adv-x="1298" 
d="M1421 1374l-229 -174q-46 95 -79 133.5t-69 38.5q-29 0 -47.5 -13t-27 -39.5t-11 -54t-2.5 -69.5v-156h406v-16h-406v-899l111 -125h-485l110 125v899h-299v-899l111 -125h-488l111 125v833q0 52 2 66h-96v16h100q17 102 88.5 173t169.5 102t215 31q122 3 228 -29
q52 44 139.5 69t187.5 27q138 3 260 -39zM393 1040h299q0 42 19 97q-89 176 -211 176q-62 0 -83.5 -37.5t-23.5 -112.5v-123z" />
    <glyph glyph-name="f_f_i" unicode="ffi" horiz-adv-x="1654" 
d="M16 0l111 125v833q0 38 2 50h-96v16h100q17 103 88 177.5t170.5 109.5t214.5 35q120 3 225 -29q126 100 351 100q67 0 162 -24.5t151 -59.5l-233 -180q-63 113 -114.5 169t-100.5 56q-19 0 -33.5 -7t-23.5 -15.5t-15.5 -26.5t-9.5 -31t-5 -37.5t-2 -37v-39.5v-160h570
v-899l110 -125h-487l111 125v883h-304v-883l111 -125h-487l110 125v883h-299v-883l111 -125h-488zM393 1024h299q3 58 19 115q-89 174 -211 174q-62 0 -83.5 -37.5t-23.5 -112.5v-139z" />
    <glyph glyph-name="f_f_l" unicode="ffl" horiz-adv-x="1693" 
d="M16 0l111 125v833q0 52 2 66h-96v16h100q17 102 88.5 173t169.5 102t215 31q122 3 228 -29q125 96 323 96q152 0 283 -55l127 55v-1288l110 -125h-487l110 125v1040q-34 111 -102 166t-137 55q-59 0 -81 -42t-22 -121v-183h248v-16h-248v-899l111 -125h-487l110 125v899
h-299v-899l111 -125h-488zM393 1040h299q0 42 19 97q-89 176 -211 176q-62 0 -83.5 -37.5t-23.5 -112.5v-123z" />
    <glyph glyph-name="f_i" unicode="fi" horiz-adv-x="1089" 
d="M16 0l111 125v883h-94v16h94q6 193 138 293t351 100q67 0 162.5 -24.5t151.5 -59.5l-234 -180q-63 113 -114.5 169t-100.5 56q-16 0 -29.5 -4t-22.5 -14.5t-15.5 -19t-10.5 -27t-6 -29t-3 -34t-1 -32.5v-34v-160h570v-899l110 -125h-487l110 125v883h-303v-883l111 -125
h-488z" />
    <glyph glyph-name="f_l" unicode="fl" horiz-adv-x="1128" 
d="M16 0l111 125v899h-94v16h94q3 120 65 205.5t164.5 126.5t235.5 41q151 0 282 -55l127 55v-1288l111 -125h-487l110 125v1040q-34 111 -102 166t-137 55q-59 0 -81 -42t-22 -121v-183h248v-16h-248v-899l111 -125h-488z" />
    <glyph glyph-name=".notdef" horiz-adv-x="890" 
d="M731 1413v-1782h-565v1782h565zM594 1294h-295v-59h117v-66h-119v-59h297v59h-119v66h119v59zM475 1063h-178v-184h297v61h-119v123zM416 1004v-64h-60v64h60zM594 831h-297v-59h119v-65h-119v-60h178v125h119v59zM594 723h-59v-117h-238v-61h297v178zM594 506h-178v-100
h59v40h60v-81h-179v141h-59v-201h297v201zM594 199h-297v-203h297v203zM535 139v-84h-179v84h179zM594 -45h-297v-57h125l-125 -84v-60h297v60h-182l125 84h57v57z" />
    <glyph glyph-name=".null" 
 />
    <glyph glyph-name="nonmarkingreturn" horiz-adv-x="682" 
 />
    <glyph glyph-name="space" unicode=" " horiz-adv-x="368" 
 />
    <glyph glyph-name="exclam" unicode="!" horiz-adv-x="430" 
d="M203 315l-121 1119h266v-2l-123 -1119h-22v2zM215 227q47 0 81 -33.5t34 -80.5q0 -49 -33.5 -83t-81.5 -34q-49 0 -83 34t-34 83q0 47 34 80.5t83 33.5z" />
    <glyph glyph-name="quotedbl" unicode="&#x22;" horiz-adv-x="421" 
d="M41 1434h147l-71 -433h-4zM233 1434h148l-72 -433h-4z" />
    <glyph glyph-name="numbersign" unicode="#" horiz-adv-x="1462" 
d="M1442 874h-363l-145 -358h344v-39h-358l-195 -477l-35 14l187 463h-451l-195 -477l-34 14l188 463h-365v39h379l148 358h-365v39h379l223 547l35 -14l-217 -533h453l221 547l37 -14l-217 -533h346v-39zM440 516h453l145 358h-450z" />
    <glyph glyph-name="dollar" unicode="$" horiz-adv-x="1165" 
d="M590 907q96 -39 145.5 -61.5t123.5 -61t111.5 -73t78 -83.5t57 -109.5t16.5 -133.5q0 -176 -123 -280.5t-315 -104.5h-104v-86h-21v86l-444 2l-64 432l342 -368q86 -32 166 -39v542l-244 115q-53 25 -98.5 57t-86 77t-64 106t-23.5 131q0 92 38.5 183t115.5 138
q95 58 297 58h65v86h21v-86h399l57 -437l-309 365q-71 31 -147 45v-496zM139 1229q0 -106 175 -201q70 -38 245 -108v489q-40 4 -65 4q-73 2 -133.5 -6.5t-112 -28.5t-80.5 -58t-29 -91zM655 20q316 0 316 175q0 37 -14 72t-33.5 63t-54.5 57.5t-63.5 49.5t-75.5 46
t-75 39.5t-75 36.5v-534q63 -5 75 -5z" />
    <glyph glyph-name="percent" unicode="%" horiz-adv-x="1224" 
d="M41 1135q0 123 80.5 211t202.5 88q98 0 186 -68q64 -50 137.5 -82.5t138.5 -32.5q161 0 275 162l12 21h43l-948 -1434h-43l885 1335q-102 -96 -223.5 -94t-249.5 92q69 -88 69 -198q0 -125 -82.5 -213t-199.5 -88q-122 0 -202.5 90t-80.5 211zM213 1135q0 -124 30 -205.5
t81 -81.5t80.5 82t29.5 205q0 124 -29.5 204t-80.5 80t-81 -80.5t-30 -203.5zM618 301q0 123 80.5 211t202.5 88q121 0 202 -89.5t81 -209.5q0 -124 -83 -212.5t-200 -88.5q-122 0 -202.5 90t-80.5 211zM791 301q0 -124 29.5 -205.5t80.5 -81.5t81 82t30 205
q0 124 -30 204.5t-81 80.5t-80.5 -80.5t-29.5 -204.5z" />
    <glyph glyph-name="ampersand" unicode="&#x26;" horiz-adv-x="1728" 
d="M1554 913q-14 0 -64 2.5t-76 2.5t-63 -4.5t-61 -16.5q153 -66 239.5 -176t104.5 -246q17 -117 -25 -221.5t-136 -181.5q-55 -46 -120.5 -63t-113.5 -17q-122 0 -211 35t-164 116q-143 -143 -368 -143q-136 0 -250.5 71t-177.5 193q-77 151 -39 309q36 151 148.5 246.5
t264.5 95.5q312 0 500 -378l72 -152l133 272l-53 25q-91 40 -172.5 90.5t-153.5 113t-115 137t-43 148.5q0 44 21.5 98.5t52.5 86.5q47 54 116 75t135.5 11t121.5 -43q48 -30 79.5 -74t42.5 -107.5t-22 -136.5q-19 -46 -86 -106l209 -74q87 131 185 199.5t223 83.5l-62 -271
h-72zM750 1118q84 -58 303 -137q66 57 88 106q31 68 21 127t-39.5 100t-75.5 68q-64 42 -144 45q-93 0 -153 -47t-66 -112q-13 -94 66 -150zM854 156q-23 26 -41 50t-37 58t-30 55.5t-37 74t-41 81.5q-31 66 -48 100.5t-45 86t-50.5 78.5t-52.5 55.5t-62.5 40.5t-69.5 12
q-113 0 -187.5 -77t-107.5 -202q-17 -76 -7 -153t44 -144q9 -17 22 -38t50.5 -63t81 -73.5t113 -56.5t145.5 -25q214 0 360 140zM1520 262q-17 109 -114 214.5t-243 174.5l-141 -286q30 -65 50.5 -105t51 -90.5t63 -81.5t68.5 -45q77 -24 144 2.5t100 86t21 130.5z" />
    <glyph glyph-name="quotesingle" unicode="'" horiz-adv-x="229" 
d="M41 1434h147l-71 -433h-4z" />
    <glyph glyph-name="parenleft" unicode="(" horiz-adv-x="579" 
d="M713 1616q-98 -48 -172 -156.5t-116 -250.5t-62.5 -292.5t-20.5 -304.5q0 -155 21 -306t63.5 -291.5t116.5 -248t170 -155.5l-8 -23q-88 32 -195 112t-199 200q-63 79 -112.5 171.5t-88 237.5t-38.5 303q0 121 21 233t57.5 201t75.5 156.5t85 124.5q92 120 199 199.5
t195 111.5z" />
    <glyph glyph-name="parenright" unicode=")" horiz-adv-x="579" 
d="M-133 1616l8 22q88 -32 194.5 -111.5t198.5 -199.5q46 -58 85 -125t76 -156t58 -201t21 -233q0 -228 -69.5 -406.5t-170.5 -305.5q-92 -120 -198.5 -200t-194.5 -112l-8 23q96 48 170 155.5t116.5 248t63.5 291.5t21 306q0 154 -20.5 304.5t-62.5 292.5t-116 250.5
t-172 156.5z" />
    <glyph glyph-name="asterisk" unicode="*" horiz-adv-x="655" 
d="M49 950q-17 31 -7.5 62.5t40.5 50.5q36 22 119.5 28.5t113.5 20.5q-31 14 -113.5 21t-119.5 28q-31 18 -41 50t8 63q19 31 51.5 39.5t63.5 -10.5q36 -22 83.5 -91t74.5 -88q-3 33 -39.5 109t-36.5 119q0 35 23.5 59.5t58.5 24.5t58.5 -24.5t23.5 -59.5q0 -43 -36.5 -119
t-39.5 -109q27 19 74.5 88t83.5 91q31 19 64 10.5t50 -39.5t7.5 -62.5t-40.5 -50.5q-36 -22 -119.5 -28.5t-113.5 -20.5q31 -14 113.5 -21t119.5 -28q31 -18 41 -50t-8 -63q-19 -31 -51 -39t-63 11q-36 22 -83.5 90.5t-74.5 87.5q3 -33 39.5 -109t36.5 -119
q0 -35 -23.5 -59.5t-58.5 -24.5t-58.5 24.5t-23.5 59.5q0 43 36.5 119t39.5 109q-27 -19 -74.5 -87.5t-83.5 -90.5q-31 -19 -64.5 -11t-50.5 39z" />
    <glyph glyph-name="plus" unicode="+" horiz-adv-x="862" 
d="M453 553h348v-43h-348v-348h-43v348h-349v43h349v348h43v-348z" />
    <glyph glyph-name="comma" unicode="," horiz-adv-x="331" 
d="M162 223q50 0 84.5 -36t34.5 -105q0 -80 -52.5 -156t-136.5 -94l-2 12q51 15 80 60.5t23 105.5q-62 -13 -102 19t-40 84q0 45 32 77.5t79 32.5z" />
    <glyph glyph-name="hyphen" unicode="-" horiz-adv-x="526" 
d="M61 559h404v-39h-404v39z" />
    <glyph glyph-name="period" unicode="." horiz-adv-x="333" 
d="M168 231q47 0 81 -33.5t34 -80.5q0 -49 -33.5 -83t-81.5 -34t-82.5 34t-34.5 83q0 47 34.5 80.5t82.5 33.5z" />
    <glyph glyph-name="slash" unicode="/" horiz-adv-x="679" 
d="M612 1448l37 -14l-583 -1434l-35 14z" />
    <glyph glyph-name="zero" unicode="0" horiz-adv-x="1310" 
d="M82 717q0 141 42.5 273t116.5 232.5t182.5 161t231.5 60.5q164 0 297 -103t205 -268.5t72 -355.5t-72 -355.5t-205 -268.5t-297 -103q-123 0 -231.5 60.5t-182.5 161t-116.5 232.5t-42.5 273zM350 717q0 -190 41 -351.5t111 -255.5t153 -94t153.5 94t111.5 255.5
t41 351.5t-41 351.5t-111.5 255t-153.5 93.5t-153 -93.5t-111 -255t-41 -351.5z" />
    <glyph glyph-name="one" unicode="1" horiz-adv-x="614" 
d="M471 1434v-1313l111 -121h-496l115 123v1204l-181 -162l-12 15l279 254h184z" />
    <glyph glyph-name="two" unicode="2" horiz-adv-x="962" 
d="M242 268h632l3 -268h-867q629 759 629 1186q3 108 -45.5 177t-142.5 69q-45 0 -107 -17l-262 -397l-21 303q248 123 390 123q211 0 341 -92.5t130 -264.5q0 -92 -39.5 -187.5t-104 -178.5t-155.5 -167.5t-183 -152t-198 -133.5z" />
    <glyph glyph-name="three" unicode="3" horiz-adv-x="1069" 
d="M20 477h269q4 -88 38 -169.5t85 -138.5t113 -91.5t120 -34.5q81 0 122.5 73.5t41.5 176.5q0 92 -35.5 196.5t-92 189.5t-132.5 141.5t-150 56.5q-28 0 -57 -11l-94 -30l-6 20l237 78q63 21 99 82t36 137q0 110 -64.5 187t-148.5 57l-237 -328v274q177 58 267 79.5
t169 21.5q112 2 188 -57.5t76 -153.5q0 -86 -76 -171t-237 -136q132 5 241 -49.5t172.5 -158.5t63.5 -237q0 -101 -45 -193t-118.5 -156.5t-170 -103t-196.5 -38.5q-127 0 -233 55t-173.5 167.5t-71.5 264.5z" />
    <glyph glyph-name="four" unicode="4" horiz-adv-x="1155" 
d="M760 387h61l330 277l-90 -293l-301 2v-252l112 -121h-491l113 123v250h-469v14l358 1047h270l-616 -1047h457v340h266v-340z" />
    <glyph glyph-name="five" unicode="5" horiz-adv-x="1056" 
d="M487 -10q-98 0 -184 33.5t-150.5 95t-102.5 154t-40 204.5h266q8 -109 60.5 -209.5t133.5 -162.5t167 -62q57 0 96 40t54.5 96t15.5 122q0 92 -34 192t-90 182.5t-136 136.5t-164 54q-52 0 -96 -16l-129 -49l-4 4l77 629h639v-267h-653l-43 -344l160 60q103 40 213 43
q203 6 340 -120t137 -314q0 -100 -44 -193.5t-117 -160.5t-170.5 -107.5t-201.5 -40.5z" />
    <glyph glyph-name="six" unicode="6" horiz-adv-x="1091" 
d="M72 596q0 145 57 290t150 258.5t217 194t254 103.5l2 -12q-107 -25 -207 -114.5t-169 -212t-97 -253.5q126 102 299 102q131 0 242 -64t176 -174t65 -241q0 -199 -141.5 -341t-339.5 -142q-96 0 -178 31.5t-142 88t-103 132.5t-64 166t-21 188zM264 731q0 -100 55 -220
t133.5 -215t168.5 -159.5t157 -64.5q53 0 83 38.5t30 100.5q0 100 -55 220t-133.5 215t-168.5 159.5t-157 64.5q-55 0 -84 -38t-29 -101z" />
    <glyph glyph-name="seven" unicode="7" horiz-adv-x="999" 
d="M63 1434h924l-530 -1313l110 -121h-514l113 123l526 1294h-381l-291 -295z" />
    <glyph glyph-name="eight" unicode="8" horiz-adv-x="1044" 
d="M676 942q177 -72 257.5 -183t80.5 -284q0 -100 -41 -190.5t-109 -154.5t-159 -102t-187 -38q-132 0 -244 65t-177.5 176.5t-65.5 243.5q0 130 64 242.5t173 175.5q-100 100 -100 252q0 77 51.5 147t131.5 111t163 41q135 0 225 -74.5t90 -198.5q0 -24 -5.5 -48.5
t-20.5 -56.5t-47.5 -64.5t-79.5 -59.5zM412 1405q-38 0 -62 -28t-24 -70q0 -99 82.5 -196.5t187.5 -137.5l59 -23q18 39 15.5 94.5t-28.5 119t-60.5 117t-81 89t-88.5 35.5zM903 317q0 120 -84 222t-219 161q-127 57 -197.5 96t-121.5 85q-91 -79 -91 -205q0 -119 57 -233.5
t139.5 -191.5t173 -124t159.5 -47q82 0 133 73t51 164z" />
    <glyph glyph-name="nine" unicode="9" horiz-adv-x="1091" 
d="M1020 838q0 -145 -57 -290t-150 -258.5t-217 -194t-254 -103.5l-2 12q107 25 207 114.5t169 212t97 253.5q-127 -103 -299 -103q-131 0 -242 64t-176 174.5t-65 241.5q0 199 141.5 341t339.5 142q96 0 178 -31.5t142 -88t103 -132.5t64 -166t21 -188zM827 702
q0 100 -55 220t-133.5 215.5t-168.5 160t-157 64.5q-53 0 -82.5 -38.5t-29.5 -100.5q0 -100 55 -220t133.5 -215.5t168.5 -160t157 -64.5q55 0 83.5 38t28.5 101z" />
    <glyph glyph-name="colon" unicode=":" horiz-adv-x="376" 
d="M188 621q47 0 81 -34t34 -81q0 -49 -33.5 -83t-81.5 -34t-82 34t-34 83q0 47 34.5 81t81.5 34zM190 231q47 0 81 -33.5t34 -80.5q0 -49 -33.5 -83t-81.5 -34t-82 34t-34 83q0 47 34.5 80.5t81.5 33.5z" />
    <glyph glyph-name="semicolon" unicode=";" horiz-adv-x="374" 
d="M188 621q47 0 81 -34t34 -81q0 -49 -33.5 -83t-81.5 -34t-82 34t-34 83q0 47 34.5 81t81.5 34zM182 223q50 0 84.5 -36t34.5 -105q0 -80 -52 -156t-136 -94l-2 12q51 15 79.5 60.5t22.5 105.5q-62 -13 -101.5 19t-39.5 84q0 45 31.5 77.5t78.5 32.5z" />
    <glyph glyph-name="less" unicode="&#x3c;" horiz-adv-x="813" 
d="M758 0l-748 481l748 482l4 -37l-6 -4l-576 -441l582 -446z" />
    <glyph glyph-name="equal" unicode="=" horiz-adv-x="841" 
d="M51 686h740v-43h-740v43zM51 354v43h740v-43h-740z" />
    <glyph glyph-name="greater" unicode="&#x3e;" horiz-adv-x="813" 
d="M55 0l-4 35l582 446l-576 441l-6 4l4 37l748 -482z" />
    <glyph glyph-name="question" unicode="?" horiz-adv-x="921" 
d="M436 1442q220 0 337.5 -89t117.5 -245q0 -195 -268 -373q-108 -73 -174 -180t-70 -238h-31q-21 88 -24 162.5t5 125.5t32.5 102.5t46 81.5t57.5 73q72 84 112.5 161t40.5 157q0 101 -49 173t-141 72q-41 0 -104 -14l-265 -401l-18 309q141 70 260 102q68 21 135 21z
M365 227q47 0 80.5 -33.5t33.5 -80.5q0 -49 -33.5 -83t-80.5 -34q-49 0 -83 34t-34 83q0 47 34 80.5t83 33.5z" />
    <glyph glyph-name="at" unicode="@" horiz-adv-x="1703" 
d="M72 373q0 193 133 317q95 92 244 119q61 100 184.5 162.5t257.5 62.5q72 0 134 -16t112.5 -48t80 -87.5t29.5 -128.5v-629l111 -125h-377v250q-45 -129 -134 -192.5t-200 -63.5q-145 0 -243.5 102.5t-98.5 251.5q0 152 107 254.5t258 102.5q60 0 104 -13t62 -26t45 -39
q-18 25 -40 49t-58.5 53t-86 46.5t-104.5 17.5q-129 0 -215.5 -25.5t-157.5 -91.5q-127 -118 -127 -303q0 -118 46.5 -222t122 -177t171 -126t195 -78.5t192.5 -25.5q161 0 307.5 63t253 169.5t169.5 253t63 307.5t-63 308t-169.5 253.5t-253 169.5t-307.5 63
q-141 0 -273 -48.5t-239 -139.5q-53 -44 -102 -103l-2 -2l-17 13l2 2q43 54 105 106q110 94 245.5 143.5t280.5 49.5q221 0 408 -109t296 -296.5t109 -409.5q0 -165 -64.5 -316t-173 -260.5t-259.5 -174.5t-316 -65q-96 0 -198 26.5t-200 81.5t-176 130.5t-125.5 183.5
t-47.5 230zM702 791q23 -9 46 -21t59 -40t66 -63.5t60 -93.5t48 -127v408q0 156 -96 156q-69 0 -115 -63.5t-68 -155.5zM551 457q0 -125 78 -233.5t178 -108.5q82 0 126 68.5t44 162.5q0 75 -32 152t-92.5 131.5t-131.5 54.5q-78 0 -124 -67t-46 -160z" />
    <glyph glyph-name="A" unicode="A" horiz-adv-x="1323" 
d="M750 1432l473 -1323l96 -109h-477l94 109l-139 389h-490l-96 -279l260 -219h-481l203 217l342 1010v207h215v-2zM791 514l-246 690l-234 -690h480z" />
    <glyph glyph-name="B" unicode="B" horiz-adv-x="1275" 
d="M1245 442q0 -120 -60 -222t-162.5 -161t-223.5 -59h-766l110 125v1184l-110 125h639q142 0 237 -86.5t97 -217.5q0 -47 -16 -87t-40.5 -68t-60 -52.5t-67 -39.5t-70.5 -29q41 8 84 8q102 0 197.5 -60.5t153.5 -158.5t58 -201zM612 807q129 85 129 250q0 156 -86.5 252
t-240.5 108v-817q24 64 71.5 110t126.5 97zM977 442q0 89 -36 176.5t-99 145t-133 57.5q-47 0 -93 -30q-47 -31 -75.5 -53.5t-61.5 -58t-49 -79.5t-16 -98v-486h252q91 0 164 63t110 159.5t37 203.5z" />
    <glyph glyph-name="C" unicode="C" horiz-adv-x="1468" 
d="M72 715q0 198 97.5 366t264.5 265.5t363 97.5q175 0 330 -79.5t259 -223.5h-356q-108 102 -224.5 157.5t-221.5 55.5q-152 0 -244 -107.5t-92 -281.5q0 -118 43 -245.5t119 -240t171.5 -203t208.5 -143.5t222 -53q120 0 204 69.5t115 190.5h86q-101 -166 -264 -258
t-356 -92q-196 0 -363 97.5t-264.5 264.5t-97.5 363z" />
    <glyph glyph-name="D" unicode="D" horiz-adv-x="1341" 
d="M33 0l110 125v1184l-110 125h502q157 -1 293.5 -57t233.5 -151t152.5 -227.5t55.5 -283.5q0 -153 -59 -287t-159 -227t-235.5 -147t-284.5 -54h-499zM410 16h114q92 0 167.5 37.5t127 102t87 154t51.5 191t16 214.5q0 149 -25 273t-77 221.5t-140 152.5t-205 55h-116
v-1401z" />
    <glyph glyph-name="E" unicode="E" horiz-adv-x="1110" 
d="M33 0l110 125v1184l-110 125h893v-277l-516 252v-539l516 2v-276l-516 250v-821l659 251v-276h-1036z" />
    <glyph glyph-name="F" unicode="F" horiz-adv-x="1017" 
d="M33 1434h893v-277l-516 252v-539l516 2v-276l-516 250v-737l102 -109h-479l110 125v1184z" />
    <glyph glyph-name="G" unicode="G" horiz-adv-x="1492" 
d="M72 717q0 197 97.5 364.5t265 265t364.5 97.5q173 0 328.5 -79.5t256.5 -219.5l2 -4h-354q-109 103 -226 158t-222 55q-154 0 -244 -108t-90 -275q0 -157 69 -320t177.5 -287.5t248.5 -204t273 -79.5q102 0 184 57q115 81 166 164l-246 487h279v-479
q-101 -150 -260.5 -234.5t-341.5 -84.5q-197 0 -364.5 97.5t-265 265t-97.5 364.5z" />
    <glyph glyph-name="H" unicode="H" horiz-adv-x="1298" 
d="M33 0l110 125v1184l-110 125h487l-110 -125v-494h479v494l-111 125h488l-111 -125v-1184l111 -125h-488l111 125v674h-479v-674l110 -125h-487z" />
    <glyph glyph-name="I" unicode="I" horiz-adv-x="552" 
d="M520 1434l-110 -125v-1184l110 -125h-487l110 125v1184l-110 125h487z" />
    <glyph glyph-name="J" unicode="J" horiz-adv-x="915" 
d="M10 170h287q2 -6 6.5 -15.5t18 -34.5t27.5 -44.5t34 -35t39 -15.5q43 0 65.5 52.5t22.5 149.5v1082l-111 125h488l-111 -125v-885q0 -208 -94.5 -316t-278.5 -108q-127 0 -229 44t-164 126z" />
    <glyph glyph-name="K" unicode="K" horiz-adv-x="1191" 
d="M1190 0h-463l82 88l-283 694q-116 -238 -116 -428v-227l110 -125h-487l110 125v1184l-110 125h487l-110 -125v-799q89 374 405 694l-78 230h430l-333 -236q-72 -73 -134 -149l396 -951z" />
    <glyph glyph-name="L" unicode="L" horiz-adv-x="1105" 
d="M33 0l110 125v1184l-110 125h487l-110 -125v-1293h307l389 385l-123 -401h-950z" />
    <glyph glyph-name="M" unicode="M" horiz-adv-x="1716" 
d="M1573 1309v-1184l110 -125h-487l111 125v1153l-381 -1088v-190h-209l-496 1206v-985l203 -221h-424l203 221v1016l-97 197h306l503 -1217l383 1090l-108 127h493z" />
    <glyph glyph-name="N" unicode="N" horiz-adv-x="1333" 
d="M1130 1212v-991l203 -221h-418l197 211l-891 1071v-1061l203 -221h-424l203 221v1086l-107 127h350l666 -811v589l-203 222h424z" />
    <glyph glyph-name="O" unicode="O" horiz-adv-x="1601" 
d="M72 717q0 197 98.5 364.5t266.5 265t364 97.5t364 -97.5t266.5 -265t98.5 -364.5t-98.5 -364.5t-266.5 -265t-364 -97.5t-364 97.5t-266.5 265t-98.5 364.5zM252 965q0 -116 42.5 -243t118 -239.5t170.5 -204t209.5 -145t225.5 -53.5q65 0 123 24t105.5 70.5t75.5 123
t28 171.5q0 116 -42.5 243t-118 239.5t-170.5 204t-209.5 145t-225.5 53.5q-65 0 -123 -24t-105.5 -70.5t-75.5 -123t-28 -171.5z" />
    <glyph glyph-name="P" unicode="P" horiz-adv-x="1083" 
d="M727 1434q141 0 236.5 -86t95.5 -215q0 -48 -14.5 -87t-38 -68.5t-67 -60.5t-88 -56.5t-113.5 -62.5q-15 -8 -23 -12q-51 -28 -86.5 -49.5t-80 -57t-72 -69.5t-47 -80.5t-19.5 -97.5v-307l110 -125h-487l110 125v1184l-110 125h694zM410 1417v-889q20 58 67.5 108.5
t132.5 106.5q55 36 93 87.5t55 107t23.5 100t6.5 88.5q0 144 -84.5 217.5t-238.5 73.5h-55z" />
    <glyph glyph-name="Q" unicode="Q" horiz-adv-x="1609" 
d="M72 717q0 197 98.5 364.5t266.5 265t364 97.5q197 0 364.5 -95t266 -260t98.5 -362q0 -201 -103.5 -371t-273.5 -264l432 184v-276h-784q-197 0 -364.5 95t-266 260t-98.5 362zM252 965q0 -145 67 -302.5t172.5 -283.5t247 -207.5t279.5 -81.5q65 0 123 24t105.5 70.5
t75.5 123t28 171.5q0 145 -67 302.5t-172.5 283.5t-247 207.5t-279.5 81.5q-65 0 -123 -24t-105.5 -70.5t-75.5 -123t-28 -171.5z" />
    <glyph glyph-name="R" unicode="R" horiz-adv-x="1228" 
d="M760 811l350 -686l115 -125h-463l76 82l-310 584q-118 -106 -118 -240v-301l110 -125h-487l110 125v1184l-110 125h690q142 0 237 -86t95 -215q0 -33 -7 -62.5t-17.5 -52.5t-33 -46.5t-42 -40.5t-55.5 -39.5t-63.5 -38t-76.5 -42.5zM410 1417v-889q20 58 66 108.5
t130 106.5q55 36 93 87.5t55 107t23.5 100t6.5 88.5q0 139 -83.5 215t-239.5 76h-51z" />
    <glyph glyph-name="S" unicode="S" horiz-adv-x="1165" 
d="M590 907q96 -39 145.5 -61.5t123.5 -61t111.5 -73t78 -83.5t57 -109.5t16.5 -133.5q0 -176 -123 -280.5t-315 -104.5l-569 2l-64 432l342 -368q112 -46 262 -46q316 0 316 175q0 32 -9.5 63t-30.5 59t-41.5 51t-56 48t-61 42t-69 39.5t-66.5 33.5t-66 32l-256 121
q-53 25 -98.5 57t-86 77t-64 106t-23.5 131q0 92 38.5 183t115.5 138q95 58 297 58h485l57 -437l-309 365q-107 51 -233 51q-73 2 -133.5 -6.5t-112 -28.5t-80.5 -58t-29 -91q0 -34 16 -65.5t45 -57.5t66.5 -50.5t83.5 -46.5t92.5 -42t97.5 -40q33 -13 50 -20z" />
    <glyph glyph-name="T" unicode="T" horiz-adv-x="1226" 
d="M98 1434h1030l89 -426l-363 409h-106v-1292l110 -125h-487l110 125v1292h-106l-365 -409z" />
    <glyph glyph-name="U" unicode="U" horiz-adv-x="1304" 
d="M20 1434h488l-111 -125v-789q0 -205 101 -338t264 -133q52 0 110 27.5t113.5 81t92 149t36.5 215.5v690l-203 222h424l-202 -222v-690q-1 -238 -129.5 -382t-337.5 -144q-146 0 -269 69.5t-194.5 190t-71.5 264.5v789z" />
    <glyph glyph-name="V" unicode="V" horiz-adv-x="1312" 
d="M6 1434h500l-111 -125l377 -1116l2 -3l324 1027l-195 217h422l-209 -222l-334 -1058v-154h-235l-430 1309z" />
    <glyph glyph-name="W" unicode="W" horiz-adv-x="1898" 
d="M1690 1212l-201 222h422l-199 -217l-266 -1063v-154h-236l-278 1065l-227 -911v-154h-236l-348 1311l-113 123h504l-113 -123l295 -1116l230 919v320h182l2 -2l328 -1237z" />
    <glyph glyph-name="X" unicode="X" horiz-adv-x="1257" 
d="M1255 0h-526l113 123l-297 477l-273 -383l201 -217h-397l162 201l297 413l-437 713l-96 107h524l-110 -123l297 -473l268 379l-199 217h396l-185 -232l-272 -381l440 -721z" />
    <glyph glyph-name="Y" unicode="Y" horiz-adv-x="1222" 
d="M813 1434h422l-203 -217l-297 -881v-211l111 -125h-488l111 125v176l-352 1008l-111 125h498l-111 -125l334 -947l287 850z" />
    <glyph glyph-name="Z" unicode="Z" horiz-adv-x="1202" 
d="M881 16l311 404l-31 -420h-1106l770 1417h-481l-309 -375l28 392h1039l-770 -1418h549z" />
    <glyph glyph-name="bracketleft" unicode="[" horiz-adv-x="569" 
d="M596 1638l-182 -172v-1702l182 -174l-453 2v2046h453z" />
    <glyph glyph-name="backslash" unicode="\" horiz-adv-x="679" 
d="M68 1448l581 -1434l-35 -14l-583 1434z" />
    <glyph glyph-name="bracketright" unicode="]" horiz-adv-x="569" 
d="M-27 1638h453v-2046l-453 -2l183 174v1702z" />
    <glyph glyph-name="asciicircum" unicode="^" horiz-adv-x="714" 
d="M356 1266l-313 -109l-2 17l315 260l318 -260l-4 -17z" />
    <glyph glyph-name="underscore" unicode="_" horiz-adv-x="1077" 
d="M0 -133h1077v-39h-1077v39z" />
    <glyph glyph-name="grave" unicode="`" horiz-adv-x="630" 
d="M41 1272l543 -109l6 11l-465 260z" />
    <glyph glyph-name="a" unicode="a" horiz-adv-x="1101" 
d="M35 348q0 152 106.5 254.5t257.5 102.5q60 0 104 -13t62 -26t45 -39q-18 26 -40 49.5t-58 52.5t-85.5 46.5t-104.5 17.5h-154q58 105 186 173t267 68q72 0 134 -16t112.5 -48t80 -87.5t29.5 -128.5v-629l110 -125h-376v250q-45 -129 -134 -192.5t-200 -63.5
q-145 0 -243.5 102.5t-98.5 251.5zM432 791q23 -9 46 -21t59 -40t66 -63.5t60 -93.5t48 -127v408q0 156 -97 156q-69 0 -114.5 -63.5t-67.5 -155.5zM281 457q0 -125 78 -233.5t178 -108.5q82 0 126 68.5t44 162.5q0 75 -32 152t-92.5 131.5t-131.5 54.5q-78 0 -124 -67
t-46 -160z" />
    <glyph glyph-name="b" unicode="b" horiz-adv-x="1157" 
d="M16 1288l377 125v-512q114 133 291 133q113 0 208.5 -70t151.5 -190.5t56 -261.5t-56 -261.5t-151.5 -190.5t-208.5 -70q-189 0 -305 149l-141 -139h-111v1214zM393 154q91 -117 185 -117q75 0 134.5 75t89 182t29.5 218t-29.5 218t-89 182t-134.5 75q-94 0 -185 -117
v-716z" />
    <glyph glyph-name="c" unicode="c" horiz-adv-x="1110" 
d="M57 512q0 142 70 262.5t190.5 190t262.5 69.5q138 0 256.5 -67t191.5 -187l-309 2q-63 98 -135.5 152.5t-137.5 54.5q-80 0 -121.5 -71t-41.5 -177q0 -109 37.5 -234t96.5 -228.5t139.5 -172.5t158.5 -69q83 0 124 78t38 196h184q-61 -146 -192.5 -233.5t-288.5 -87.5
q-142 0 -262.5 70.5t-190.5 191t-70 260.5z" />
    <glyph glyph-name="d" unicode="d" horiz-adv-x="1157" 
d="M57 512q0 141 56 261.5t151.5 190.5t208.5 70q177 0 291 -133v313l-111 74l377 125v-1288l111 -125h-377v123q-112 -133 -291 -133q-113 0 -208.5 70t-151.5 190.5t-56 261.5zM326 512q0 -111 29.5 -218t89.5 -182t135 -75q93 0 184 117v716q-91 117 -184 117
q-75 0 -135 -75t-89.5 -182t-29.5 -218z" />
    <glyph glyph-name="e" unicode="e" horiz-adv-x="1126" 
d="M590 -10q-148 0 -270.5 69.5t-192.5 188.5t-70 262q0 107 41.5 204t112 167t167.5 111.5t204 41.5q134 0 251.5 -64t190.5 -179h-397q209 -36 327.5 -144t118.5 -272q0 -74 -32.5 -142.5t-92 -123t-152.5 -87t-206 -32.5zM481 997q-170 0 -192 -190h424
q-25 81 -89.5 135.5t-142.5 54.5zM287 791q-11 -123 20.5 -246t93.5 -219t157 -156.5t202 -60.5q123 0 206 89.5t83 209.5q0 113 -82.5 202t-213 135t-280.5 46h-186z" />
    <glyph glyph-name="f" unicode="f" horiz-adv-x="735" 
d="M16 0l111 125v883h-94v16h94q6 193 138 293t351 100q135 0 242 -37l-229 -174q-46 97 -78 134.5t-70 37.5q-16 0 -29.5 -4t-22.5 -14.5t-15.5 -19t-10.5 -27t-6 -29t-3 -34t-1 -32.5v-34v-160h406v-16h-406v-883l111 -125h-488z" />
    <glyph glyph-name="g" unicode="g" horiz-adv-x="1116" 
d="M1239 -94q0 -84 -49.5 -150t-122 -98.5t-149.5 -32.5q-103 0 -198.5 46.5t-135.5 123.5q-112 -225 -301 -225q-98 0 -170 62t-72 149q0 201 336 287l137 34q-125 1 -230.5 64t-167 170t-61.5 231q0 125 61.5 232.5t169.5 171t236 63.5q174 0 305 -116h2l256 145v-219
h-176v-19q76 -121 76 -256q0 -154 -90 -278t-209 -156l-283 -78q-72 -19 -124 -60t-52 -93q0 -38 24.5 -60t63.5 -22q13 0 26.5 3.5t30 12t28.5 15.5t31.5 22t29 22t31.5 25t28 23q48 39 75 59.5t77.5 53.5t90 50t93 30.5t107.5 13.5q123 0 199.5 -69.5t76.5 -176.5z
M385 989q-51 0 -77.5 -56t-26.5 -145q0 -122 41 -243t100 -205t125 -136t117 -52q27 0 46.5 22t29 56.5t14 67.5t4.5 64q0 115 -40.5 233.5t-99 202.5t-122.5 137.5t-111 53.5zM811 -330q88 0 143.5 79.5t55.5 176.5q0 76 -43 130.5t-113 54.5q-28 0 -54 -10t-48.5 -31
t-39 -40.5t-36 -53.5t-29 -53t-26.5 -54l-27 -55q27 -59 90 -101.5t127 -42.5z" />
    <glyph glyph-name="h" unicode="h" horiz-adv-x="1118" 
d="M997 737v-612l111 -125h-487l110 125v610q0 78 -51.5 138.5t-124.5 60.5q-86 0 -162 -82v-727l111 -125h-488l111 125v866q0 193 92 310.5t256 117.5q124 0 195 -66.5t71 -166.5q0 -43 -24 -87t-64 -75q38 6 70 6q124 0 199 -84.5t75 -208.5zM582 1001q143 64 143 185
q0 76 -48.5 134t-113.5 58q-55 0 -94.5 -41.5t-57.5 -105t-18 -139.5v-224q86 86 189 133z" />
    <glyph glyph-name="i" unicode="i" horiz-adv-x="528" 
d="M262 1108q-63 0 -107 44.5t-44 107.5t44 107t107 44t107.5 -44t44.5 -107t-44.5 -107.5t-107.5 -44.5zM25 0l110 125v702l-110 74l376 123v-899l111 -125h-487z" />
    <glyph glyph-name="j" unicode="j" horiz-adv-x="520" 
d="M264 1411q63 0 107.5 -45.5t44.5 -108.5t-44.5 -108t-107.5 -45t-107 45t-44 108t44 108.5t107 45.5zM16 901l377 123v-1008q-6 -191 -135 -290t-346 -99q-142 0 -242 35l224 176q48 -96 78.5 -134t66.5 -38q21 0 37 6.5t25 22t15 29.5t8 41t2.5 43t0.5 49v972z" />
    <glyph glyph-name="k" unicode="k" horiz-adv-x="1069" 
d="M1063 0h-467l80 88l-227 485q-56 -96 -56 -157v-291l111 -125h-488l111 125v1089l-111 74l377 125v-913q36 100 117 191t182 161l-57 172h399l-299 -164q-53 -34 -96 -72l330 -688z" />
    <glyph glyph-name="l" unicode="l" horiz-adv-x="520" 
d="M393 1413v-1288l111 -125h-488l111 125v1089l-111 74z" />
    <glyph glyph-name="m" unicode="m" horiz-adv-x="1572" 
d="M1452 739v-614l111 -125h-488l111 125v612q0 74 -38 130.5t-99 56.5q-71 0 -136 -80q17 -56 17 -105v-614l110 -125h-487l111 125v612q0 77 -37.5 132t-94.5 55q-65 0 -131 -78v-721l111 -125h-487l110 125v686l-110 74l376 139v-152q66 76 139 117t144 41
q79 0 137.5 -44.5t85.5 -121.5q68 81 145.5 123.5t151.5 42.5q113 0 180.5 -86t67.5 -205z" />
    <glyph glyph-name="n" unicode="n" horiz-adv-x="1122" 
d="M1001 737v-612l111 -125h-487l110 125v610q0 77 -52 132t-120 55q-88 0 -162 -80v-717l111 -125h-487l110 125v686l-110 74l376 139v-158q161 164 328 164q120 0 196 -84t76 -209z" />
    <glyph glyph-name="o" unicode="o" horiz-adv-x="1157" 
d="M57 512q0 141 69.5 261.5t189.5 190.5t262 70q107 0 204 -41.5t166.5 -111.5t110.5 -166.5t41 -202.5q0 -142 -69.5 -262t-189.5 -190t-263 -70q-142 0 -262 69.5t-189.5 190t-69.5 262.5zM281 741q0 -124 41.5 -254t104 -228t139 -161t143.5 -63q81 0 123 68.5t42 179.5
q0 124 -41.5 254t-104 228t-139 161t-143.5 63q-81 0 -123 -68.5t-42 -179.5z" />
    <glyph glyph-name="p" unicode="p" horiz-adv-x="1157" 
d="M16 -369l111 125v1071l-111 74l377 123v-123q114 133 291 133q113 0 208.5 -70t151.5 -190.5t56 -261.5t-56 -261.5t-151.5 -190.5t-208.5 -70q-177 0 -291 133v-367l111 -125h-488zM393 870v-716q91 -117 185 -117q75 0 134.5 75t89 182t29.5 218t-29.5 218t-89 182
t-134.5 75q-94 0 -185 -117z" />
    <glyph glyph-name="q" unicode="q" horiz-adv-x="1157" 
d="M57 512q0 141 56 261.5t151.5 190.5t208.5 70q185 0 301 -143l146 133h110v-1268l111 -125h-488l111 125v367q-114 -133 -291 -133q-113 0 -208.5 70t-151.5 190.5t-56 261.5zM326 512q0 -111 29.5 -218t89.5 -182t135 -75q93 0 184 117v716q-91 117 -184 117
q-75 0 -135 -75t-89.5 -182t-29.5 -218z" />
    <glyph glyph-name="r" unicode="r" horiz-adv-x="811" 
d="M801 1024l-80 -264q-45 -2 -75.5 -5.5t-72 -11.5t-68.5 -22.5t-53 -36.5t-38.5 -56.5t-12.5 -78.5v-424l111 -125h-487l110 125v700l-110 74l376 125v-369q41 205 126.5 288.5t273.5 80.5z" />
    <glyph glyph-name="s" unicode="s" horiz-adv-x="890" 
d="M567 606q122 -65 197.5 -144t75.5 -167q0 -130 -106 -212.5t-253 -82.5h-389l-35 336l346 -311q44 -7 78 -7q91 0 152 32.5t61 86.5q0 27 -17 55t-40 49.5t-63 47.5t-69.5 42t-77 41.5t-69.5 37.5l-96 53q-101 56 -159 131.5t-58 163.5q0 119 94 192.5t228 73.5h360
l41 -319l-311 292q-40 9 -90 9q-33 0 -64 -4.5t-60 -15.5t-47 -31t-18 -48t14 -54t32 -45.5t59 -46t70 -42t89 -47.5z" />
    <glyph glyph-name="t" unicode="t" horiz-adv-x="591" 
d="M575 14v-8q-38 -14 -77 -14q-371 0 -371 401v615h-127l393 266v-250h180v-16h-180v-711q0 -138 42.5 -213.5t139.5 -69.5z" />
    <glyph glyph-name="u" unicode="u" horiz-adv-x="1095" 
d="M612 1024l357 -2v-1022h-111l-149 168q-71 -78 -158 -126t-176 -48q-120 0 -197.5 82.5t-77.5 208.5v614l-90 125h357v-737q0 -81 52 -133t122 -52q83 0 161 84v713z" />
    <glyph glyph-name="v" unicode="v" horiz-adv-x="1056" 
d="M844 784l-135 240h356l-203 -242l-227 -594v-188h-221l-312 909l-96 115h465l-92 -115l248 -694z" />
    <glyph glyph-name="w" unicode="w" horiz-adv-x="1609" 
d="M1399 782l-135 242h354l-201 -242l-219 -594v-188h-221l-199 598l-151 -410v-188h-221l-304 909l-96 115h467l-92 -115l237 -694l150 412l-94 282l-96 115h469l-95 -115l238 -694z" />
    <glyph glyph-name="x" unicode="x" horiz-adv-x="1058" 
d="M12 1024h471l-88 -115l219 -307l183 211l-150 211h357l-377 -442l407 -582h-440l76 94l-232 326l-182 -211l150 -209h-359l377 438z" />
    <glyph glyph-name="y" unicode="y" horiz-adv-x="1091" 
d="M883 786l-131 238h348l-199 -240l-225 -587v-164h-76q-38 -80 -74 -144.5t-81 -125.5t-91 -101.5t-102 -65t-115 -24.5q-95 0 -159 53t-64 131q0 72 56 129t157 80l338 76l-356 860l-107 123h498l-109 -123l275 -686zM276 -18q-161 -38 -161 -113q0 -34 27.5 -50
t64.5 -16q99 0 205 67t172 163h-95z" />
    <glyph glyph-name="z" unicode="z" horiz-adv-x="890" 
d="M578 16l264 342l-19 -358h-786l495 1008h-192l-262 -342l16 358h715l-494 -1008h263z" />
    <glyph glyph-name="braceleft" unicode="{" horiz-adv-x="591" 
d="M172 1004q10 209 33 304q54 226 233 298q92 36 217 36h2v-18h-2q-95 0 -139 -47q-25 -26 -40 -66t-20.5 -86t-7 -101t0.5 -110q0 -75 -0.5 -110.5t-6.5 -103.5t-17.5 -109.5t-35.5 -90t-59 -83.5q-82 -82 -234 -103q151 -18 234 -104q35 -34 59 -83t35.5 -90t17.5 -109
t6.5 -103.5t0.5 -110.5q-2 -55 0 -110t6.5 -101t20 -86t40.5 -65q47 -47 139 -47h2v-19h-2q-74 0 -135 12.5t-106.5 34.5t-81.5 53.5t-60 69.5t-41.5 82t-27.5 90t-16 95.5t-9.5 97.5t-5.5 96v6q-2 44 -3 67.5t-4 62.5t-6.5 60.5t-10.5 52t-15.5 47.5t-21.5 37t-29 30
t-38 17t-48 7h-2v23h2q34 0 60 11.5t43.5 27t30.5 47t20 57t11.5 72t6.5 76.5t4 86z" />
    <glyph glyph-name="bar" unicode="|" horiz-adv-x="323" 
d="M143 1434h37v-2034h-37v2034z" />
    <glyph glyph-name="braceright" unicode="}" horiz-adv-x="591" 
d="M420 1004q2 -56 4 -86t6.5 -76.5t11.5 -72t20 -57t30.5 -47t43.5 -27t60 -11.5h2v-23h-2q-26 0 -48 -7t-38 -17t-29 -30t-21.5 -37t-15.5 -47.5t-10.5 -52t-6.5 -60.5t-4 -62.5t-3 -67.5q-10 -208 -33 -304q-55 -227 -236 -298q-90 -35 -214 -35h-3v19h3q92 0 139 47
q25 25 40.5 65t20 86t6.5 101t0 110q0 75 0.5 110.5t6.5 103.5t17.5 109t35.5 90t59 83q83 86 234 104q-152 21 -234 103q-35 35 -59 83.5t-35.5 90t-17.5 109.5t-6.5 103.5t-0.5 110.5q2 55 0.5 110t-7 101t-20.5 86t-40 66q-44 47 -139 47h-3v18h3q83 0 150 -15t114 -44
t83 -65.5t58.5 -85.5t37.5 -96.5t22.5 -107t11 -109t6.5 -109.5v-6z" />
    <glyph glyph-name="asciitilde" unicode="~" horiz-adv-x="864" 
d="M756 635h47v-12q0 -74 -68 -127.5t-162 -53.5q-49 0 -85 12t-58 29t-43.5 34.5t-52.5 29.5t-72 12q-63 0 -108 -30.5t-45 -73.5v-13h-48v13q0 75 68 127.5t162 52.5q49 0 84.5 -12t58 -28.5t43.5 -33.5t52 -29t73 -12q63 0 108.5 30t45.5 73v12z" />
    <glyph glyph-name="exclamdown" unicode="&#xa1;" horiz-adv-x="430" 
d="M215 805q-49 0 -83 33.5t-34 81.5q0 49 33.5 82.5t83.5 33.5q48 0 81.5 -33.5t33.5 -82.5q0 -47 -34 -81t-81 -34zM203 717v2h22l123 -1118v-2h-266z" />
    <glyph glyph-name="sterling" unicode="&#xa3;" horiz-adv-x="1019" 
d="M98 16h500l412 281l-101 -297h-866l-2 10q246 105 293 254q27 88 -8.5 193.5t-126.5 251.5h-142v20h127l-51 80q-4 7 -12 20.5t-12 20.5q-61 95 -68 204t43 201q105 189 369 189q93 0 147 -21q51 -20 111 -47.5t95 -45.5l34 -17l-21 -312l-272 418q-39 8 -94 8
q-123 0 -164 -77q-29 -51 -19 -128.5t42.5 -156.5t80.5 -154q71 -106 103 -182h333v-20h-323q66 -167 26 -301q-69 -225 -434 -392z" />
    <glyph glyph-name="currency" unicode="&#xa4;" horiz-adv-x="931" 
d="M870 649q0 -151 -102 -268l55 -55l-35 -33l-55 55q-114 -102 -268 -102t-268 102l-56 -55l-32 33l55 55q-103 115 -103 268q0 157 103 269l-55 55l32 35l56 -56q115 103 268 103t268 -103l55 56l35 -35l-55 -55q102 -114 102 -269zM799 649q0 139 -100 236.5t-234 97.5
q-136 0 -234 -98.5t-98 -235.5q0 -140 99.5 -236t232.5 -96q139 0 236.5 99t97.5 233z" />
    <glyph glyph-name="yen" unicode="&#xa5;" horiz-adv-x="1216" 
d="M1030 1217l-287 -705v-117h215v-22h-215v-97h215v-20h-215v-133l113 -123h-494l115 123v133h-207v20h207v97h-207v22h207v76l-344 838v2l-127 123h502l-102 -111l329 -788l275 675l-201 224h420z" />
    <glyph glyph-name="brokenbar" unicode="&#xa6;" horiz-adv-x="323" 
d="M143 1434h37v-947h-37v947zM143 -600v946h37v-946h-37z" />
    <glyph glyph-name="section" unicode="&#xa7;" horiz-adv-x="909" 
d="M47 731q0 66 33.5 121.5t91.5 93.5q-125 90 -125 215q0 118 96.5 195.5t235.5 77.5h340l55 -281l-330 254q-20 8 -73 8q-79 0 -138 -26.5t-59 -75.5q0 -16 3.5 -30.5t13 -28t18.5 -24t27 -22.5t31 -20t39 -20.5t42.5 -20t49 -22t51.5 -23.5l129 -60q127 -59 206.5 -139.5
t79.5 -171.5q0 -69 -33 -127.5t-92 -99.5q125 -90 125 -203q0 -129 -107.5 -215t-264.5 -86h-379l-33 336l344 -313q21 -7 57 -7q102 0 174 36.5t72 94.5q0 32 -21.5 61t-63.5 53.5t-80 42.5t-96 42.5t-87 38.5l-103 49q-104 49 -166.5 127t-62.5 170zM174 883
q0 -36 18 -66.5t60 -59.5t82.5 -50.5t114.5 -55.5l129 -59q68 -29 129 -68q20 23 20 54q0 23 -11 45.5t-34.5 44t-47 38.5t-61.5 37t-64 32.5t-68.5 32t-61.5 28.5l-103 49q-44 21 -81 45q-21 -21 -21 -47z" />
    <glyph glyph-name="dieresis" unicode="&#xa8;" horiz-adv-x="544" 
d="M129 1257q-35 0 -61.5 26.5t-26.5 62.5t26 62t62 26q37 0 62.5 -25.5t25.5 -62.5t-25.5 -63t-62.5 -26zM416 1257q-37 0 -62.5 26t-25.5 63t25.5 62.5t62.5 25.5t62.5 -25.5t25.5 -62.5t-25.5 -63t-62.5 -26z" />
    <glyph glyph-name="copyright" unicode="&#xa9;" horiz-adv-x="1579" 
d="M788 1434q146 0 279 -57t229.5 -153t153.5 -229t57 -278t-57 -278t-153.5 -229t-229.5 -153t-279 -57q-145 0 -278 57t-228.5 153t-152.5 228.5t-57 278.5t57 278.5t152.5 228.5t228.5 153t278 57zM788 41q137 0 262.5 53.5t216 144t144 216t53.5 262.5t-53.5 262.5
t-144 216t-216 144t-262.5 53.5t-261.5 -53.5t-214.5 -144t-143.5 -216t-53.5 -262.5t53.5 -262.5t143.5 -216t214.5 -144t261.5 -53.5zM1116 498h49v-2q-54 -89 -151 -148q-99 -55 -211 -55q-175 0 -298.5 124.5t-123.5 299.5t123.5 299.5t298.5 124.5q101 0 192.5 -46
t151.5 -128v-2h-207q-95 90 -198 115t-173 -25q-91 -62 -85.5 -206t102.5 -284q71 -101 164.5 -160t179.5 -59q64 0 108 33q57 38 78 119z" />
    <glyph glyph-name="guillemotleft" unicode="&#xab;" horiz-adv-x="974" 
d="M301 483l260 -483l-551 483l551 482zM684 483l260 -483l-551 483l551 482z" />
    <glyph glyph-name="registered" unicode="&#xae;" horiz-adv-x="1576" 
d="M788 1434q145 0 278 -57t229 -153t153 -229t57 -278t-57 -278t-153 -229t-229 -153t-278 -57t-278 57t-228.5 153t-152.5 228.5t-57 278.5t57 278.5t152.5 228.5t228.5 153t278 57zM788 41q137 0 262.5 53.5t216 144t144 216t53.5 262.5t-53.5 262.5t-144 216t-216 144
t-262.5 53.5q-183 0 -338.5 -90.5t-246 -246.5t-90.5 -339t90.5 -339t246 -246.5t338.5 -90.5zM1065 584l74 -201l65 -72h-266l45 47l-102 287q-33 70 -58 78q-16 6 -39 -10q-86 -63 -92 -150l2 -182l66 -70h-287l66 70v682l-66 70h399q82 0 136.5 -48.5t54.5 -123.5
q0 -33 -12 -60q-12 -24 -37.5 -46.5t-48 -36t-68.5 -38.5q-18 -14 -61 -35q58 18 102 7q68 -15 96 -88zM692 1124v-510q18 58 113 123q102 67 102 219q0 27 -7 52t-25 53t-57.5 45t-96.5 18h-29z" />
    <glyph glyph-name="macron" unicode="&#xaf;" horiz-adv-x="557" 
d="M516 1434v-21h-475v21h475z" />
    <glyph glyph-name="degree" unicode="&#xb0;" horiz-adv-x="413" 
d="M207 1434q69 0 117.5 -48.5t48.5 -117.5q0 -68 -48.5 -117t-117.5 -49t-117.5 49t-48.5 117q0 69 48.5 117.5t117.5 48.5zM207 1391q-51 0 -87 -36t-36 -87t36 -86t87 -35t87 35t36 86t-36 87t-87 36z" />
    <glyph glyph-name="plusminus" unicode="&#xb1;" horiz-adv-x="841" 
d="M442 553h349v-43h-349v-348h-43v348h-348v43h348v348h43v-348zM51 41h740v-43h-740v43z" />
    <glyph glyph-name="acute" unicode="&#xb4;" horiz-adv-x="632" 
d="M592 1272l-543 -107l-8 11l467 258z" />
    <glyph glyph-name="paragraph" unicode="&#xb6;" horiz-adv-x="974" 
d="M25 1188q0 105 76 175.5t190 70.5h321v-1680h-243l112 131v817q-9 129 -194 211q-55 24 -95.5 47t-81.5 56.5t-63 77t-22 94.5zM821 1305v-1422l121 -129h-252v1680h252z" />
    <glyph glyph-name="periodcentered" unicode="&#xb7;" horiz-adv-x="333" 
d="M168 711q47 0 81 -34t34 -81q0 -49 -33.5 -83t-81.5 -34t-82.5 34t-34.5 83q0 47 35 81t82 34z" />
    <glyph glyph-name="cedilla" unicode="&#xb8;" horiz-adv-x="522" 
d="M481 94l-311 -194q58 4 102.5 -39t44.5 -97q0 -79 -65 -125.5t-129 -46.5v9q70 44 70 112q0 63 -46.5 99.5t-97.5 17.5l-8 16l432 256z" />
    <glyph glyph-name="guillemotright" unicode="&#xbb;" horiz-adv-x="974" 
d="M291 483l-260 482l551 -482l-551 -483zM674 483l-260 482l551 -482l-551 -483z" />
    <glyph glyph-name="questiondown" unicode="&#xbf;" horiz-adv-x="921" 
d="M557 805q-47 0 -81 34t-34 81q0 49 33.5 82.5t81.5 33.5q50 0 83.5 -33.5t33.5 -82.5q0 -48 -34 -81.5t-83 -33.5zM485 -410q-219 0 -336.5 89t-117.5 245q0 195 268 373q108 73 174 180t70 238h30q21 -88 24 -162.5t-5 -126t-32 -102.5t-45.5 -81t-57.5 -73
q-72 -85 -113 -161t-41 -156q0 -101 49.5 -173.5t141.5 -72.5q41 0 104 14l264 402l19 -310q-141 -70 -260 -102q-68 -21 -136 -21z" />
    <glyph glyph-name="Agrave" unicode="&#xc0;" horiz-adv-x="1323" 
d="M918 1569l-7 -10l-542 108l84 162zM1319 0h-477l94 109l-139 389h-490l-96 -279l260 -219h-481l203 217l342 1010v207h215v-2l473 -1323zM311 514h480l-246 690z" />
    <glyph glyph-name="Aacute" unicode="&#xc1;" horiz-adv-x="1323" 
d="M915 1667l-542 -106l-8 10l466 258zM750 1432l473 -1323l96 -109h-477l94 109l-139 389h-490l-96 -279l260 -219h-481l203 217l342 1010v207h215v-2zM791 514l-246 690l-234 -690h480z" />
    <glyph glyph-name="Acircumflex" unicode="&#xc2;" horiz-adv-x="1323" 
d="M639 1673l-313 -108l-2 16l315 260l317 -260l-4 -16zM750 1432l473 -1323l96 -109h-477l94 109l-139 389h-490l-96 -279l260 -219h-481l203 217l342 1010v207h215v-2zM791 514l-246 690l-234 -690h480z" />
    <glyph glyph-name="Atilde" unicode="&#xc3;" horiz-adv-x="1323" 
d="M422 1585q0 65 42 117.5t99 52.5q37 0 66 -18.5t44 -40t37.5 -40t47.5 -18.5q40 0 66 29.5t26 71.5h14q0 -65 -42 -117.5t-99 -52.5q-37 0 -66 18.5t-44 40t-37.5 40t-47.5 18.5q-40 0 -66 -29.5t-26 -71.5h-14zM750 1432l473 -1323l96 -109h-477l94 109l-139 389h-490
l-96 -279l260 -219h-481l203 217l342 1010v207h215v-2zM791 514l-246 690l-234 -690h480z" />
    <glyph glyph-name="Adieresis" unicode="&#xc4;" horiz-adv-x="1323" 
d="M496 1626q-36 0 -62 26t-26 62t26 62t62 26q37 0 62.5 -25.5t25.5 -62.5t-25.5 -62.5t-62.5 -25.5zM782 1626q-37 0 -62.5 25.5t-25.5 62.5t25.5 62.5t62.5 25.5t62.5 -25.5t25.5 -62.5t-25.5 -62.5t-62.5 -25.5zM1227 109l96 -109h-481l94 109l-139 389h-486l-98 -277
l262 -221h-485l203 217l342 1010v207h219v-2zM315 514h476l-244 684z" />
    <glyph glyph-name="Aring" unicode="&#xc5;" horiz-adv-x="1323" 
d="M690 1556q-51 -20 -101.5 1.5t-70.5 72.5q-22 51 -0.5 101.5t72.5 70.5q53 21 102.5 0.5t71.5 -71.5q20 -51 -1.5 -102t-72.5 -73zM594 1794q-41 -15 4 -129q23 -53 44.5 -80.5t43.5 -17.5q44 16 -4 129q-21 53 -43 80.5t-45 17.5zM750 1432l473 -1323l96 -109h-477
l94 109l-139 389h-490l-96 -279l260 -219h-481l203 217l342 1010v207h215v-2zM791 514l-246 690l-234 -690h480z" />
    <glyph glyph-name="AE" unicode="&#xc6;" horiz-adv-x="1724" 
d="M1022 25l661 251v-276h-1038l111 125v373h-412l-143 -277l260 -221h-481l202 217l574 1108l-111 109h895v-277l-518 252v-539h518v-276l-518 252v-821zM352 514h404v776z" />
    <glyph glyph-name="Ccedilla" unicode="&#xc7;" horiz-adv-x="1468" 
d="M1417 340q-107 -175 -274 -264l-283 -176q58 4 103 -39t45 -97q0 -79 -65.5 -125.5t-129.5 -46.5v9q70 44 70 112q0 63 -46.5 99.5t-97.5 17.5l-8 16l313 187q-116 -43 -247 -43q-196 0 -363 97.5t-264.5 264.5t-97.5 363q0 198 97.5 366t264.5 265.5t363 97.5
q175 0 330 -79.5t259 -223.5h-356q-108 102 -224.5 157.5t-221.5 55.5q-152 0 -244 -107.5t-92 -281.5q0 -118 43 -245.5t119 -240t171.5 -203t208.5 -143.5t222 -53q120 0 204 69.5t115 190.5h86z" />
    <glyph glyph-name="Egrave" unicode="&#xc8;" horiz-adv-x="1110" 
d="M227 1667l543 -108l6 10l-465 260zM33 0l110 125v1184l-110 125h893v-277l-516 252v-539l516 2v-276l-516 250v-821l659 251v-276h-1036z" />
    <glyph glyph-name="Eacute" unicode="&#xc9;" horiz-adv-x="1110" 
d="M803 1667l-543 -106l-8 10l467 258zM33 0l110 125v1184l-110 125h893v-277l-516 252v-539l516 2v-276l-516 250v-821l659 251v-276h-1036z" />
    <glyph glyph-name="Ecircumflex" unicode="&#xca;" horiz-adv-x="1110" 
d="M508 1673l-313 -108l-2 16l315 260l317 -260l-4 -16zM33 0l110 125v1184l-110 125h893v-277l-516 252v-539l516 2v-276l-516 250v-821l659 251v-276h-1036z" />
    <glyph glyph-name="Edieresis" unicode="&#xcb;" horiz-adv-x="1110" 
d="M375 1626q-36 0 -62 26t-26 62t26 62t62 26q37 0 62.5 -25.5t25.5 -62.5t-25.5 -62.5t-62.5 -25.5zM662 1626q-37 0 -63 25.5t-26 62.5t26 62.5t63 25.5t62.5 -25.5t25.5 -62.5t-25.5 -62.5t-62.5 -25.5zM33 0l110 125v1184l-110 125h893v-277l-516 252v-539l516 2v-276
l-516 250v-821l659 251v-276h-1036z" />
    <glyph glyph-name="Igrave" unicode="&#xcc;" horiz-adv-x="552" 
d="M-23 1667l543 -108l6 10l-465 260zM520 1434l-110 -125v-1184l110 -125h-487l110 125v1184l-110 125h487z" />
    <glyph glyph-name="Iacute" unicode="&#xcd;" horiz-adv-x="552" 
d="M575 1667l-542 -106l-8 10l467 258zM520 1434l-110 -125v-1184l110 -125h-487l110 125v1184l-110 125h487z" />
    <glyph glyph-name="Icircumflex" unicode="&#xce;" horiz-adv-x="552" 
d="M274 1673l-313 -108l-2 16l315 260l318 -260l-4 -16zM520 1434l-110 -125v-1184l110 -125h-487l110 125v1184l-110 125h487z" />
    <glyph glyph-name="Idieresis" unicode="&#xcf;" horiz-adv-x="552" 
d="M133 1626q-36 0 -62 26t-26 62t26 62t62 26q37 0 62.5 -25.5t25.5 -62.5t-25.5 -62.5t-62.5 -25.5zM420 1626q-37 0 -62.5 25.5t-25.5 62.5t25.5 62.5t62.5 25.5t62.5 -25.5t25.5 -62.5t-25.5 -62.5t-62.5 -25.5zM520 1434l-110 -125v-1184l110 -125h-487l110 125v1184
l-110 125h487z" />
    <glyph glyph-name="Eth" unicode="&#xd0;" horiz-adv-x="1341" 
d="M535 1434q157 -1 293.5 -57t233.5 -151t152.5 -227.5t55.5 -283.5q0 -153 -59 -287t-159 -227t-235.5 -147t-284.5 -54h-499l110 125v627h-219v16h219v541l-110 125h502zM524 16q92 0 167.5 37.5t127 102t87 154t51.5 191t16 214.5q0 149 -25 273t-77 221.5t-140 152.5
t-205 55h-116v-649h221v-16h-221v-736h114z" />
    <glyph glyph-name="Ntilde" unicode="&#xd1;" horiz-adv-x="1333" 
d="M489 1585q0 65 42.5 117.5t99.5 52.5q37 0 65.5 -18.5t44 -40t37.5 -40t47 -18.5q41 0 67 29.5t26 71.5h14q0 -65 -42 -117.5t-99 -52.5q-37 0 -66 18.5t-44 40t-37.5 40t-47.5 18.5q-40 0 -66 -29.5t-26 -71.5h-15zM1130 1212v-991l203 -221h-418l197 211l-891 1071
v-1061l203 -221h-424l203 221v1086l-107 127h350l666 -811v589l-203 222h424z" />
    <glyph glyph-name="Ograve" unicode="&#xd2;" horiz-adv-x="1601" 
d="M512 1667l543 -108l6 10l-465 260zM72 717q0 197 98.5 364.5t266.5 265t364 97.5t364 -97.5t266.5 -265t98.5 -364.5t-98.5 -364.5t-266.5 -265t-364 -97.5t-364 97.5t-266.5 265t-98.5 364.5zM252 965q0 -116 42.5 -243t118 -239.5t170.5 -204t209.5 -145t225.5 -53.5
q65 0 123 24t105.5 70.5t75.5 123t28 171.5q0 116 -42.5 243t-118 239.5t-170.5 204t-209.5 145t-225.5 53.5q-65 0 -123 -24t-105.5 -70.5t-75.5 -123t-28 -171.5z" />
    <glyph glyph-name="Oacute" unicode="&#xd3;" horiz-adv-x="1601" 
d="M1057 1667l-543 -106l-8 10l467 258zM72 717q0 197 98.5 364.5t266.5 265t364 97.5t364 -97.5t266.5 -265t98.5 -364.5t-98.5 -364.5t-266.5 -265t-364 -97.5t-364 97.5t-266.5 265t-98.5 364.5zM252 965q0 -116 42.5 -243t118 -239.5t170.5 -204t209.5 -145t225.5 -53.5
q65 0 123 24t105.5 70.5t75.5 123t28 171.5q0 116 -42.5 243t-118 239.5t-170.5 204t-209.5 145t-225.5 53.5q-65 0 -123 -24t-105.5 -70.5t-75.5 -123t-28 -171.5z" />
    <glyph glyph-name="Ocircumflex" unicode="&#xd4;" horiz-adv-x="1601" 
d="M801 1673l-314 -108l-2 16l316 260l317 -260l-4 -16zM72 717q0 197 98.5 364.5t266.5 265t364 97.5t364 -97.5t266.5 -265t98.5 -364.5t-98.5 -364.5t-266.5 -265t-364 -97.5t-364 97.5t-266.5 265t-98.5 364.5zM252 965q0 -116 42.5 -243t118 -239.5t170.5 -204
t209.5 -145t225.5 -53.5q65 0 123 24t105.5 70.5t75.5 123t28 171.5q0 116 -42.5 243t-118 239.5t-170.5 204t-209.5 145t-225.5 53.5q-65 0 -123 -24t-105.5 -70.5t-75.5 -123t-28 -171.5z" />
    <glyph glyph-name="Otilde" unicode="&#xd5;" horiz-adv-x="1601" 
d="M580 1585q0 65 42 117.5t99 52.5q37 0 65.5 -18.5t44 -40t37.5 -40t47 -18.5q41 0 67 29.5t26 71.5h14q0 -65 -42 -117.5t-99 -52.5q-37 0 -66 18.5t-44 40t-37.5 40t-47.5 18.5q-40 0 -66 -29.5t-26 -71.5h-14zM72 717q0 197 98.5 364.5t266.5 265t364 97.5t364 -97.5
t266.5 -265t98.5 -364.5t-98.5 -364.5t-266.5 -265t-364 -97.5t-364 97.5t-266.5 265t-98.5 364.5zM252 965q0 -116 42.5 -243t118 -239.5t170.5 -204t209.5 -145t225.5 -53.5q65 0 123 24t105.5 70.5t75.5 123t28 171.5q0 116 -42.5 243t-118 239.5t-170.5 204t-209.5 145
t-225.5 53.5q-65 0 -123 -24t-105.5 -70.5t-75.5 -123t-28 -171.5z" />
    <glyph glyph-name="Odieresis" unicode="&#xd6;" horiz-adv-x="1601" 
d="M657 1626q-36 0 -62 26t-26 62t26 62t62 26q37 0 62.5 -25.5t25.5 -62.5t-25.5 -62.5t-62.5 -25.5zM944 1626q-37 0 -62.5 25.5t-25.5 62.5t25.5 62.5t62.5 25.5t62.5 -25.5t25.5 -62.5t-25.5 -62.5t-62.5 -25.5zM72 717q0 197 98.5 364.5t266.5 265t364 97.5t364 -97.5
t266.5 -265t98.5 -364.5t-98.5 -364.5t-266.5 -265t-364 -97.5t-364 97.5t-266.5 265t-98.5 364.5zM252 965q0 -116 42.5 -243t118 -239.5t170.5 -204t209.5 -145t225.5 -53.5q65 0 123 24t105.5 70.5t75.5 123t28 171.5q0 116 -42.5 243t-118 239.5t-170.5 204t-209.5 145
t-225.5 53.5q-65 0 -123 -24t-105.5 -70.5t-75.5 -123t-28 -171.5z" />
    <glyph glyph-name="multiply" unicode="&#xd7;" horiz-adv-x="655" 
d="M358 530l246 -245l-29 -31l-247 248l-246 -248l-31 31l248 245l-248 248l31 29l246 -246l247 246l29 -29z" />
    <glyph glyph-name="Oslash" unicode="&#xd8;" horiz-adv-x="1601" 
d="M1206 1321q149 -100 236.5 -259t87.5 -345q0 -197 -98.5 -364.5t-266.5 -265t-364 -97.5q-215 0 -395 116l-158 -237l-15 10l158 238q-148 100 -233.5 258t-85.5 342q0 197 98.5 364.5t266.5 265t364 97.5q211 0 391 -115l162 244l14 -8zM252 965q0 -158 76.5 -329
t201.5 -306l525 790q-105 109 -227 171.5t-244 62.5q-65 0 -123 -24t-105.5 -70.5t-75.5 -123t-28 -171.5zM1018 80q65 0 123 24t105.5 70.5t75.5 123t28 171.5q0 160 -78 332t-205 307l-524 -791q107 -110 230 -173.5t245 -63.5z" />
    <glyph glyph-name="Ugrave" unicode="&#xd9;" horiz-adv-x="1304" 
d="M403 1667l543 -108l6 10l-465 260zM20 1434h488l-111 -125v-789q0 -205 101 -338t264 -133q52 0 110 27.5t113.5 81t92 149t36.5 215.5v690l-203 222h424l-202 -222v-690q-1 -238 -129.5 -382t-337.5 -144q-146 0 -269 69.5t-194.5 190t-71.5 264.5v789z" />
    <glyph glyph-name="Uacute" unicode="&#xda;" horiz-adv-x="1304" 
d="M997 1667l-542 -106l-9 10l467 258zM20 1434h488l-111 -125v-789q0 -205 101 -338t264 -133q52 0 110 27.5t113.5 81t92 149t36.5 215.5v690l-203 222h424l-202 -222v-690q-1 -238 -129.5 -382t-337.5 -144q-146 0 -269 69.5t-194.5 190t-71.5 264.5v789z" />
    <glyph glyph-name="Ucircumflex" unicode="&#xdb;" horiz-adv-x="1304" 
d="M698 1673l-313 -108l-2 16l315 260l318 -260l-4 -16zM20 1434h488l-111 -125v-789q0 -205 101 -338t264 -133q52 0 110 27.5t113.5 81t92 149t36.5 215.5v690l-203 222h424l-202 -222v-690q-1 -238 -129.5 -382t-337.5 -144q-146 0 -269 69.5t-194.5 190t-71.5 264.5v789
z" />
    <glyph glyph-name="Udieresis" unicode="&#xdc;" horiz-adv-x="1304" 
d="M575 1626q-36 0 -62 26t-26 62t26 62t62 26q37 0 63 -25.5t26 -62.5t-26 -62.5t-63 -25.5zM862 1626q-37 0 -62.5 25.5t-25.5 62.5t25.5 62.5t62.5 25.5t62.5 -25.5t25.5 -62.5t-25.5 -62.5t-62.5 -25.5zM20 1434h488l-111 -125v-789q0 -205 101 -338t264 -133
q52 0 110 27.5t113.5 81t92 149t36.5 215.5v690l-203 222h424l-202 -222v-690q-1 -238 -129.5 -382t-337.5 -144q-146 0 -269 69.5t-194.5 190t-71.5 264.5v789z" />
    <glyph glyph-name="Yacute" unicode="&#xdd;" horiz-adv-x="1222" 
d="M942 1667l-543 -106l-8 10l467 258zM813 1434h422l-203 -217l-297 -881v-211l111 -125h-488l111 125v176l-352 1008l-111 125h498l-111 -125l334 -947l287 850z" />
    <glyph glyph-name="Thorn" unicode="&#xde;" horiz-adv-x="1083" 
d="M33 0l110 125v1184l-110 125h487l-110 -125v-92h317q141 0 236.5 -86.5t95.5 -215.5q0 -24 -2.5 -45t-11.5 -41t-15.5 -35.5t-24 -33.5t-28 -29.5t-37 -29.5t-40 -27.5t-48.5 -29.5t-51.5 -29t-59.5 -32q-17 -9 -26 -14q-51 -28 -86.5 -49.5t-80 -57t-72 -69.5t-47 -80.5
t-19.5 -97.5v-90l110 -125h-487zM410 311q20 58 67.5 108.5t132.5 106.5q55 36 93 87.5t55 107t23.5 100t6.5 88.5q0 144 -84.5 217.5t-238.5 73.5h-55v-889z" />
    <glyph glyph-name="germandbls" unicode="&#xdf;" horiz-adv-x="1421" 
d="M127 125v932q0 97 39.5 172.5t109.5 122.5t162.5 71.5t202.5 24.5q93 0 173.5 -20.5t137 -69t56.5 -117.5q0 -49 -36 -93.5t-87.5 -78t-103.5 -64.5t-88 -67t-36 -72q0 -34 26 -61t74.5 -48t99.5 -38t120.5 -41t118.5 -47q295 -138 295 -322q0 -131 -107.5 -220
t-265.5 -89h-402v2l-34 344l356 -323q30 -5 63 -5q103 0 175.5 38t72.5 94q0 25 -12 49t-38 47t-50.5 41t-66 39.5t-65.5 33t-69.5 32t-58.5 26.5q-62 31 -92 47t-83 51t-79.5 63.5t-48 71.5t-21.5 90q0 79 84 170q59 69 89 122.5t30 115.5q0 96 -62.5 186t-148.5 90
q-42 0 -72 -21t-47.5 -54t-28 -85.5t-13.5 -103.5t-3 -119v-1042h-377z" />
    <glyph glyph-name="agrave" unicode="&#xe0;" horiz-adv-x="1101" 
d="M381 1272l543 -109l6 11l-465 260zM35 348q0 152 106.5 254.5t257.5 102.5q60 0 104 -13t62 -26t45 -39q-18 26 -40 49.5t-58 52.5t-85.5 46.5t-104.5 17.5h-154q58 105 186 173t267 68q72 0 134 -16t112.5 -48t80 -87.5t29.5 -128.5v-629l110 -125h-376v250
q-45 -129 -134 -192.5t-200 -63.5q-145 0 -243.5 102.5t-98.5 251.5zM432 791q23 -9 46 -21t59 -40t66 -63.5t60 -93.5t48 -127v408q0 156 -97 156q-69 0 -114.5 -63.5t-67.5 -155.5zM281 457q0 -125 78 -233.5t178 -108.5q82 0 126 68.5t44 162.5q0 75 -32 152t-92.5 131.5
t-131.5 54.5q-78 0 -124 -67t-46 -160z" />
    <glyph glyph-name="aacute" unicode="&#xe1;" horiz-adv-x="1101" 
d="M848 1272l-543 -107l-8 11l467 258zM35 348q0 152 106.5 254.5t257.5 102.5q60 0 104 -13t62 -26t45 -39q-18 26 -40 49.5t-58 52.5t-85.5 46.5t-104.5 17.5h-154q58 105 186 173t267 68q72 0 134 -16t112.5 -48t80 -87.5t29.5 -128.5v-629l110 -125h-376v250
q-45 -129 -134 -192.5t-200 -63.5q-145 0 -243.5 102.5t-98.5 251.5zM432 791q23 -9 46 -21t59 -40t66 -63.5t60 -93.5t48 -127v408q0 156 -97 156q-69 0 -114.5 -63.5t-67.5 -155.5zM281 457q0 -125 78 -233.5t178 -108.5q82 0 126 68.5t44 162.5q0 75 -32 152t-92.5 131.5
t-131.5 54.5q-78 0 -124 -67t-46 -160z" />
    <glyph glyph-name="acircumflex" unicode="&#xe2;" horiz-adv-x="1101" 
d="M584 1266l-314 -109l-2 17l316 260l317 -260l-4 -17zM35 348q0 152 106.5 254.5t257.5 102.5q60 0 104 -13t62 -26t45 -39q-18 26 -40 49.5t-58 52.5t-85.5 46.5t-104.5 17.5h-154q58 105 186 173t267 68q72 0 134 -16t112.5 -48t80 -87.5t29.5 -128.5v-629l110 -125
h-376v250q-45 -129 -134 -192.5t-200 -63.5q-145 0 -243.5 102.5t-98.5 251.5zM432 791q23 -9 46 -21t59 -40t66 -63.5t60 -93.5t48 -127v408q0 156 -97 156q-69 0 -114.5 -63.5t-67.5 -155.5zM281 457q0 -125 78 -233.5t178 -108.5q82 0 126 68.5t44 162.5q0 75 -32 152
t-92.5 131.5t-131.5 54.5q-78 0 -124 -67t-46 -160z" />
    <glyph glyph-name="atilde" unicode="&#xe3;" horiz-adv-x="1101" 
d="M410 1190q0 65 42 117.5t99 52.5q37 0 65.5 -18.5t44 -40t37.5 -40t47 -18.5q41 0 67 29t26 71h14q0 -65 -42 -117t-99 -52q-30 0 -54.5 12t-40 29t-30 34t-32 29t-38.5 12q-40 0 -66 -29t-26 -71h-14zM35 348q0 152 106.5 254.5t257.5 102.5q60 0 104 -13t62 -26t45 -39
q-18 26 -40 49.5t-58 52.5t-85.5 46.5t-104.5 17.5h-154q58 105 186 173t267 68q72 0 134 -16t112.5 -48t80 -87.5t29.5 -128.5v-629l110 -125h-376v250q-45 -129 -134 -192.5t-200 -63.5q-145 0 -243.5 102.5t-98.5 251.5zM432 791q23 -9 46 -21t59 -40t66 -63.5t60 -93.5
t48 -127v408q0 156 -97 156q-69 0 -114.5 -63.5t-67.5 -155.5zM281 457q0 -125 78 -233.5t178 -108.5q82 0 126 68.5t44 162.5q0 75 -32 152t-92.5 131.5t-131.5 54.5q-78 0 -124 -67t-46 -160z" />
    <glyph glyph-name="adieresis" unicode="&#xe4;" horiz-adv-x="1101" 
d="M479 1182q-36 0 -62 26t-26 62t26 62t62 26q37 0 62.5 -25.5t25.5 -62.5t-25.5 -62.5t-62.5 -25.5zM766 1182q-37 0 -62.5 25.5t-25.5 62.5t25.5 62.5t62.5 25.5t62.5 -25.5t25.5 -62.5t-25.5 -62.5t-62.5 -25.5zM35 348q0 152 106.5 254.5t257.5 102.5q60 0 104 -13
t62 -26t45 -39q-18 26 -40 49.5t-58 52.5t-85.5 46.5t-104.5 17.5h-154q58 105 186 173t267 68q72 0 134 -16t112.5 -48t80 -87.5t29.5 -128.5v-629l110 -125h-376v250q-45 -129 -134 -192.5t-200 -63.5q-145 0 -243.5 102.5t-98.5 251.5zM432 791q23 -9 46 -21t59 -40
t66 -63.5t60 -93.5t48 -127v408q0 156 -97 156q-69 0 -114.5 -63.5t-67.5 -155.5zM281 457q0 -125 78 -233.5t178 -108.5q82 0 126 68.5t44 162.5q0 75 -32 152t-92.5 131.5t-131.5 54.5q-78 0 -124 -67t-46 -160z" />
    <glyph glyph-name="aring" unicode="&#xe5;" horiz-adv-x="1101" 
d="M678 1167q-51 -20 -101.5 1.5t-70.5 72.5q-22 51 -0.5 101.5t72.5 70.5q53 21 102.5 0t71.5 -72q20 -51 -1.5 -101.5t-72.5 -72.5zM582 1405q-41 -15 4 -129q23 -53 44.5 -80.5t43.5 -17.5q44 16 -4 129q-21 53 -43 80.5t-45 17.5zM35 348q0 152 106.5 254.5t257.5 102.5
q60 0 104 -13t62 -26t45 -39q-18 26 -40 49.5t-58 52.5t-85.5 46.5t-104.5 17.5h-154q58 105 186 173t267 68q72 0 134 -16t112.5 -48t80 -87.5t29.5 -128.5v-629l110 -125h-376v250q-45 -129 -134 -192.5t-200 -63.5q-145 0 -243.5 102.5t-98.5 251.5zM432 791
q23 -9 46 -21t59 -40t66 -63.5t60 -93.5t48 -127v408q0 156 -97 156q-69 0 -114.5 -63.5t-67.5 -155.5zM281 457q0 -125 78 -233.5t178 -108.5q82 0 126 68.5t44 162.5q0 75 -32 152t-92.5 131.5t-131.5 54.5q-78 0 -124 -67t-46 -160z" />
    <glyph glyph-name="ae" unicode="&#xe6;" horiz-adv-x="1820" 
d="M35 373q0 146 100 242t240 96q61 0 103 -14.5t93 -47.5q-146 146 -292 146l-138 2q78 110 207.5 174.5t269.5 64.5q98 0 185 -31t129 -98q146 127 344 127q134 0 251.5 -64t190.5 -179h-397q209 -36 327.5 -144t118.5 -272q0 -74 -32.5 -142.5t-92 -123t-152.5 -87
t-206 -32.5q-148 0 -270.5 69.5t-192.5 188.5q-16 -40 -47 -81t-80.5 -81.5t-126 -66t-166.5 -25.5q-147 0 -256.5 113t-109.5 266zM410 786q75 -30 155 -104.5t142 -161.5v334q0 158 -95 158q-64 0 -119 -62.5t-83 -163.5zM983 807h424q-27 82 -90.5 136t-140.5 54
q-85 0 -133.5 -49t-59.5 -141zM981 791q-11 -123 20.5 -246t93.5 -219t157 -156.5t202 -60.5q123 0 206 89.5t83 209.5q0 113 -82.5 202t-213 135t-280.5 46h-186zM254 518q0 -97 55 -209t132.5 -186t138.5 -74q17 0 30 4.5t29 19t27 45t21 77t15 121.5t5 173
q-58 91 -144.5 147t-156.5 56q-72 0 -112 -46t-40 -128z" />
    <glyph glyph-name="ccedilla" unicode="&#xe7;" horiz-adv-x="1110" 
d="M1061 311q-68 -159 -217 -250l-260 -161q58 4 102.5 -39t44.5 -97q0 -79 -65 -125.5t-129 -46.5v9q69 43 69 112q0 63 -46.5 99.5t-96.5 17.5l-8 16l284 168q-77 -24 -159 -24q-142 0 -262.5 70.5t-190.5 191t-70 260.5q0 142 70 262.5t190.5 190t262.5 69.5
q138 0 256.5 -67t191.5 -187l-309 2q-63 98 -135.5 152.5t-137.5 54.5q-80 0 -121.5 -71t-41.5 -177q0 -109 37.5 -234t96.5 -228.5t139.5 -172.5t158.5 -69q83 0 124 78t38 196h184z" />
    <glyph glyph-name="egrave" unicode="&#xe8;" horiz-adv-x="1126" 
d="M322 1272l542 -109l6 11l-464 260zM590 -10q-148 0 -270.5 69.5t-192.5 188.5t-70 262q0 107 41.5 204t112 167t167.5 111.5t204 41.5q134 0 251.5 -64t190.5 -179h-397q209 -36 327.5 -144t118.5 -272q0 -74 -32.5 -142.5t-92 -123t-152.5 -87t-206 -32.5zM481 997
q-170 0 -192 -190h424q-25 81 -89.5 135.5t-142.5 54.5zM287 791q-11 -123 20.5 -246t93.5 -219t157 -156.5t202 -60.5q123 0 206 89.5t83 209.5q0 113 -82.5 202t-213 135t-280.5 46h-186z" />
    <glyph glyph-name="eacute" unicode="&#xe9;" horiz-adv-x="1126" 
d="M874 1272l-542 -107l-8 11l467 258zM590 -10q-148 0 -270.5 69.5t-192.5 188.5t-70 262q0 107 41.5 204t112 167t167.5 111.5t204 41.5q134 0 251.5 -64t190.5 -179h-397q209 -36 327.5 -144t118.5 -272q0 -74 -32.5 -142.5t-92 -123t-152.5 -87t-206 -32.5zM481 997
q-170 0 -192 -190h424q-25 81 -89.5 135.5t-142.5 54.5zM287 791q-11 -123 20.5 -246t93.5 -219t157 -156.5t202 -60.5q123 0 206 89.5t83 209.5q0 113 -82.5 202t-213 135t-280.5 46h-186z" />
    <glyph glyph-name="ecircumflex" unicode="&#xea;" horiz-adv-x="1126" 
d="M545 1266l-314 -109l-2 17l316 260l317 -260l-4 -17zM590 -10q-148 0 -270.5 69.5t-192.5 188.5t-70 262q0 107 41.5 204t112 167t167.5 111.5t204 41.5q134 0 251.5 -64t190.5 -179h-397q209 -36 327.5 -144t118.5 -272q0 -74 -32.5 -142.5t-92 -123t-152.5 -87
t-206 -32.5zM481 997q-170 0 -192 -190h424q-25 81 -89.5 135.5t-142.5 54.5zM287 791q-11 -123 20.5 -246t93.5 -219t157 -156.5t202 -60.5q123 0 206 89.5t83 209.5q0 113 -82.5 202t-213 135t-280.5 46h-186z" />
    <glyph glyph-name="edieresis" unicode="&#xeb;" horiz-adv-x="1126" 
d="M399 1182q-36 0 -62 26t-26 62t26 62t62 26q37 0 62.5 -25.5t25.5 -62.5t-25.5 -62.5t-62.5 -25.5zM686 1182q-37 0 -62.5 25.5t-25.5 62.5t25.5 62.5t62.5 25.5t62.5 -25.5t25.5 -62.5t-25.5 -62.5t-62.5 -25.5zM590 -10q-148 0 -270.5 69.5t-192.5 188.5t-70 262
q0 107 41.5 204t112 167t167.5 111.5t204 41.5q134 0 251.5 -64t190.5 -179h-397q209 -36 327.5 -144t118.5 -272q0 -74 -32.5 -142.5t-92 -123t-152.5 -87t-206 -32.5zM481 997q-170 0 -192 -190h424q-25 81 -89.5 135.5t-142.5 54.5zM287 791q-11 -123 20.5 -246
t93.5 -219t157 -156.5t202 -60.5q123 0 206 89.5t83 209.5q0 113 -82.5 202t-213 135t-280.5 46h-186z" />
    <glyph glyph-name="igrave" unicode="&#xec;" horiz-adv-x="528" 
d="M-31 1272l543 -109l6 11l-465 260zM25 0l110 125v702l-110 74l376 123v-899l111 -125h-487z" />
    <glyph glyph-name="iacute" unicode="&#xed;" horiz-adv-x="528" 
d="M508 1272l-543 -107l-8 11l467 258zM25 0l110 125v702l-110 74l376 123v-899l111 -125h-487z" />
    <glyph glyph-name="icircumflex" unicode="&#xee;" horiz-adv-x="528" 
d="M262 1266l-313 -109l-2 17l315 260l318 -260l-5 -17zM25 0l110 125v702l-110 74l376 123v-899l111 -125h-487z" />
    <glyph glyph-name="idieresis" unicode="&#xef;" horiz-adv-x="528" 
d="M104 1182q-36 0 -62 26t-26 62t26 62t62 26q37 0 63 -25.5t26 -62.5t-26 -62.5t-63 -25.5zM391 1182q-37 0 -62.5 25.5t-25.5 62.5t25.5 62.5t62.5 25.5t62.5 -25.5t25.5 -62.5t-25.5 -62.5t-62.5 -25.5zM25 0l110 125v702l-110 74l376 123v-899l111 -125h-487z" />
    <glyph glyph-name="eth" unicode="&#xf0;" horiz-adv-x="1159" 
d="M1186 1069h-156v-944l111 -125h-377v123q-112 -133 -291 -133q-113 0 -208.5 70t-151.5 190.5t-56 261.5t56 261.5t151.5 190.5t208.5 70q177 0 291 -133v168h-148v16h148v129l-111 74l377 125v-328h156v-16zM764 154v716q-91 117 -184 117q-75 0 -135 -75t-89.5 -182
t-29.5 -218t29.5 -218t89.5 -182t135 -75q93 0 184 117z" />
    <glyph glyph-name="ntilde" unicode="&#xf1;" horiz-adv-x="1122" 
d="M348 1190q0 65 42 117.5t99 52.5q37 0 66 -18.5t44 -40t37.5 -40t47.5 -18.5q40 0 66 29t26 71h15q0 -65 -42.5 -117t-99.5 -52q-37 0 -65.5 18t-44 40t-37.5 40t-47 18q-41 0 -67 -29t-26 -71h-14zM1001 737v-612l111 -125h-487l110 125v610q0 77 -52 132t-120 55
q-88 0 -162 -80v-717l111 -125h-487l110 125v686l-110 74l376 139v-158q161 164 328 164q120 0 196 -84t76 -209z" />
    <glyph glyph-name="ograve" unicode="&#xf2;" horiz-adv-x="1157" 
d="M285 1272l542 -109l7 11l-465 260zM57 512q0 141 69.5 261.5t189.5 190.5t262 70q107 0 204 -41.5t166.5 -111.5t110.5 -166.5t41 -202.5q0 -142 -69.5 -262t-189.5 -190t-263 -70q-142 0 -262 69.5t-189.5 190t-69.5 262.5zM281 741q0 -124 41.5 -254t104 -228t139 -161
t143.5 -63q81 0 123 68.5t42 179.5q0 124 -41.5 254t-104 228t-139 161t-143.5 63q-81 0 -123 -68.5t-42 -179.5z" />
    <glyph glyph-name="oacute" unicode="&#xf3;" horiz-adv-x="1157" 
d="M811 1272l-543 -107l-8 11l467 258zM57 512q0 141 69.5 261.5t189.5 190.5t262 70q107 0 204 -41.5t166.5 -111.5t110.5 -166.5t41 -202.5q0 -142 -69.5 -262t-189.5 -190t-263 -70q-142 0 -262 69.5t-189.5 190t-69.5 262.5zM281 741q0 -124 41.5 -254t104 -228
t139 -161t143.5 -63q81 0 123 68.5t42 179.5q0 124 -41.5 254t-104 228t-139 161t-143.5 63q-81 0 -123 -68.5t-42 -179.5z" />
    <glyph glyph-name="ocircumflex" unicode="&#xf4;" horiz-adv-x="1157" 
d="M563 1266l-313 -109l-2 17l315 260l318 -260l-4 -17zM57 512q0 141 69.5 261.5t189.5 190.5t262 70q107 0 204 -41.5t166.5 -111.5t110.5 -166.5t41 -202.5q0 -142 -69.5 -262t-189.5 -190t-263 -70q-142 0 -262 69.5t-189.5 190t-69.5 262.5zM281 741q0 -124 41.5 -254
t104 -228t139 -161t143.5 -63q81 0 123 68.5t42 179.5q0 124 -41.5 254t-104 228t-139 161t-143.5 63q-81 0 -123 -68.5t-42 -179.5z" />
    <glyph glyph-name="otilde" unicode="&#xf5;" horiz-adv-x="1157" 
d="M358 1190q0 65 42.5 117.5t99.5 52.5q37 0 65.5 -18.5t44 -40t37.5 -40t47 -18.5q40 0 66 29t26 71h15q0 -65 -42.5 -117t-99.5 -52q-37 0 -65.5 18t-44 40t-37.5 40t-47 18q-40 0 -66 -29t-26 -71h-15zM57 512q0 141 69.5 261.5t189.5 190.5t262 70q107 0 204 -41.5
t166.5 -111.5t110.5 -166.5t41 -202.5q0 -142 -69.5 -262t-189.5 -190t-263 -70q-142 0 -262 69.5t-189.5 190t-69.5 262.5zM281 741q0 -124 41.5 -254t104 -228t139 -161t143.5 -63q81 0 123 68.5t42 179.5q0 124 -41.5 254t-104 228t-139 161t-143.5 63q-81 0 -123 -68.5
t-42 -179.5z" />
    <glyph glyph-name="odieresis" unicode="&#xf6;" horiz-adv-x="1157" 
d="M436 1182q-36 0 -62 26t-26 62t26 62t62 26q37 0 62.5 -25.5t25.5 -62.5t-25.5 -62.5t-62.5 -25.5zM723 1182q-37 0 -62.5 25.5t-25.5 62.5t25.5 62.5t62.5 25.5t62.5 -25.5t25.5 -62.5t-25.5 -62.5t-62.5 -25.5zM57 512q0 141 69.5 261.5t189.5 190.5t262 70
q107 0 204 -41.5t166.5 -111.5t110.5 -166.5t41 -202.5q0 -142 -69.5 -262t-189.5 -190t-263 -70q-142 0 -262 69.5t-189.5 190t-69.5 262.5zM281 741q0 -124 41.5 -254t104 -228t139 -161t143.5 -63q81 0 123 68.5t42 179.5q0 124 -41.5 254t-104 228t-139 161t-143.5 63
q-81 0 -123 -68.5t-42 -179.5z" />
    <glyph glyph-name="divide" unicode="&#xf7;" horiz-adv-x="864" 
d="M432 690q-35 0 -59.5 25.5t-24.5 60.5q0 34 24.5 59t59.5 25t60.5 -25t25.5 -59q0 -35 -25.5 -60.5t-60.5 -25.5zM61 553h742v-41h-742v41zM432 375q35 0 60.5 -25.5t25.5 -60.5q0 -34 -25.5 -59t-60.5 -25t-59.5 25t-24.5 59q0 35 24.5 60.5t59.5 25.5z" />
    <glyph glyph-name="oslash" unicode="&#xf8;" horiz-adv-x="1157" 
d="M1112 1034l-160 -160q148 -151 148 -362q0 -142 -69.5 -262t-189.5 -190t-263 -70q-213 0 -363 147l-158 -157l-16 16l158 158q-142 152 -142 358q0 141 69.5 261.5t189.5 190.5t262 70q207 0 358 -141l160 160zM281 741q0 -201 102 -403l375 377q-67 122 -152 198
t-160 76q-81 0 -123 -68.5t-42 -179.5zM874 283q0 199 -104 409l-377 -377q67 -124 153.5 -202t162.5 -78q81 0 123 68.5t42 179.5z" />
    <glyph glyph-name="ugrave" unicode="&#xf9;" horiz-adv-x="1095" 
d="M231 1272l543 -109l6 11l-465 260zM612 1024l357 -2v-1022h-111l-149 168q-71 -78 -158 -126t-176 -48q-120 0 -197.5 82.5t-77.5 208.5v614l-90 125h357v-737q0 -81 52 -133t122 -52q83 0 161 84v713z" />
    <glyph glyph-name="uacute" unicode="&#xfa;" horiz-adv-x="1095" 
d="M821 1272l-542 -107l-9 11l467 258zM612 1024l357 -2v-1022h-111l-149 168q-71 -78 -158 -126t-176 -48q-120 0 -197.5 82.5t-77.5 208.5v614l-90 125h357v-737q0 -81 52 -133t122 -52q83 0 161 84v713z" />
    <glyph glyph-name="ucircumflex" unicode="&#xfb;" horiz-adv-x="1095" 
d="M539 1266l-314 -109l-2 17l316 260l317 -260l-4 -17zM612 1024l357 -2v-1022h-111l-149 168q-71 -78 -158 -126t-176 -48q-120 0 -197.5 82.5t-77.5 208.5v614l-90 125h357v-737q0 -81 52 -133t122 -52q83 0 161 84v713z" />
    <glyph glyph-name="udieresis" unicode="&#xfc;" horiz-adv-x="1095" 
d="M397 1182q-36 0 -62 26t-26 62t26 62t62 26q37 0 62.5 -25.5t25.5 -62.5t-25.5 -62.5t-62.5 -25.5zM684 1182q-37 0 -62.5 25.5t-25.5 62.5t25.5 62.5t62.5 25.5t62.5 -25.5t25.5 -62.5t-25.5 -62.5t-62.5 -25.5zM612 1024l357 -2v-1022h-111l-149 168q-71 -78 -158 -126
t-176 -48q-120 0 -197.5 82.5t-77.5 208.5v614l-90 125h357v-737q0 -81 52 -133t122 -52q83 0 161 84v713z" />
    <glyph glyph-name="yacute" unicode="&#xfd;" horiz-adv-x="1091" 
d="M889 1272l-543 -107l-8 11l467 258zM883 786l-131 238h348l-199 -240l-225 -587v-164h-76q-38 -80 -74 -144.5t-81 -125.5t-91 -101.5t-102 -65t-115 -24.5q-95 0 -159 53t-64 131q0 72 56 129t157 80l338 76l-356 860l-107 123h498l-109 -123l275 -686zM276 -18
q-161 -38 -161 -113q0 -34 27.5 -50t64.5 -16q99 0 205 67t172 163h-95z" />
    <glyph glyph-name="thorn" unicode="&#xfe;" horiz-adv-x="1157" 
d="M16 -369l111 125v1461l-111 73l377 123v-512q114 133 291 133q113 0 208.5 -70t151.5 -190.5t56 -261.5t-56 -261.5t-151.5 -190.5t-208.5 -70q-179 0 -291 133v-367l111 -125h-488zM393 154q91 -117 185 -117q75 0 134.5 75t89 182t29.5 218t-29.5 218t-89 182
t-134.5 75q-94 0 -185 -117v-716z" />
    <glyph glyph-name="ydieresis" unicode="&#xff;" horiz-adv-x="1091" 
d="M475 1182q-36 0 -62 26t-26 62t26 62t62 26q37 0 62.5 -25.5t25.5 -62.5t-25.5 -62.5t-62.5 -25.5zM762 1182q-37 0 -62.5 25.5t-25.5 62.5t25.5 62.5t62.5 25.5t62.5 -25.5t25.5 -62.5t-25.5 -62.5t-62.5 -25.5zM883 786l-131 238h348l-199 -240l-225 -587v-164h-76
q-38 -80 -74 -144.5t-81 -125.5t-91 -101.5t-102 -65t-115 -24.5q-95 0 -159 53t-64 131q0 72 56 129t157 80l338 76l-356 860l-107 123h498l-109 -123l275 -686zM276 -18q-161 -38 -161 -113q0 -34 27.5 -50t64.5 -16q99 0 205 67t172 163h-95z" />
    <glyph glyph-name="Amacron" unicode="&#x100;" horiz-adv-x="1323" 
d="M879 1638v-20h-476v20h476zM750 1432l473 -1323l96 -109h-477l94 109l-139 389h-490l-96 -279l260 -219h-481l203 217l342 1010v207h215v-2zM791 514l-246 690l-234 -690h480z" />
    <glyph glyph-name="amacron" unicode="&#x101;" horiz-adv-x="1101" 
d="M874 1249v-20h-475v20h475zM35 348q0 152 106.5 254.5t257.5 102.5q60 0 104 -13t62 -26t45 -39q-18 26 -40 49.5t-58 52.5t-85.5 46.5t-104.5 17.5h-154q58 105 186 173t267 68q72 0 134 -16t112.5 -48t80 -87.5t29.5 -128.5v-629l110 -125h-376v250
q-45 -129 -134 -192.5t-200 -63.5q-145 0 -243.5 102.5t-98.5 251.5zM432 791q23 -9 46 -21t59 -40t66 -63.5t60 -93.5t48 -127v408q0 156 -97 156q-69 0 -114.5 -63.5t-67.5 -155.5zM281 457q0 -125 78 -233.5t178 -108.5q82 0 126 68.5t44 162.5q0 75 -32 152t-92.5 131.5
t-131.5 54.5q-78 0 -124 -67t-46 -160z" />
    <glyph glyph-name="Abreve" unicode="&#x102;" horiz-adv-x="1323" 
d="M829 1647q-79 -79 -191 -79t-192 79q-77 77 -77 190h80q10 -35 15.5 -50.5t19 -43.5t30.5 -49q31 -39 86.5 -62.5t116 -19t96.5 40.5q62 62 27 184h67q0 -112 -78 -190zM750 1432l473 -1323l96 -109h-477l94 109l-139 389h-490l-96 -279l260 -219h-481l203 217l342 1010
v207h215v-2zM791 514l-246 690l-234 -690h480z" />
    <glyph glyph-name="abreve" unicode="&#x103;" horiz-adv-x="1101" 
d="M836 1243q-80 -79 -192 -79t-191 79q-78 78 -78 191h80q30 -102 65 -144q31 -39 86.5 -62.5t116 -19t96.5 40.5q62 62 27 185h67q0 -114 -77 -191zM35 348q0 152 106.5 254.5t257.5 102.5q60 0 104 -13t62 -26t45 -39q-18 26 -40 49.5t-58 52.5t-85.5 46.5t-104.5 17.5
h-154q58 105 186 173t267 68q72 0 134 -16t112.5 -48t80 -87.5t29.5 -128.5v-629l110 -125h-376v250q-45 -129 -134 -192.5t-200 -63.5q-145 0 -243.5 102.5t-98.5 251.5zM432 791q23 -9 46 -21t59 -40t66 -63.5t60 -93.5t48 -127v408q0 156 -97 156q-69 0 -114.5 -63.5
t-67.5 -155.5zM281 457q0 -125 78 -233.5t178 -108.5q82 0 126 68.5t44 162.5q0 75 -32 152t-92.5 131.5t-131.5 54.5q-78 0 -124 -67t-46 -160z" />
    <glyph glyph-name="Aogonek" unicode="&#x104;" horiz-adv-x="1323" 
d="M1182 -260q34 0 61 27h27q-14 -57 -55 -87t-93 -30q-70 0 -115.5 47.5t-45.5 112.5q0 51 28.5 101.5t79.5 88.5h-227l94 109l-139 389h-490l-96 -279l260 -219h-481l203 217l342 1010v207h215v-2l473 -1323l96 -109h-225q-23 -44 -23 -98q0 -67 32.5 -114.5t78.5 -47.5z
M311 514h480l-246 690z" />
    <glyph glyph-name="aogonek" unicode="&#x105;" horiz-adv-x="1101" 
d="M961 -260q34 0 61 27h27q-14 -57 -55 -87t-93 -30q-70 0 -116 47.5t-46 112.5q0 51 29 101.5t80 88.5h-137v250q-45 -129 -134 -192.5t-200 -63.5q-145 0 -243.5 102.5t-98.5 251.5q0 152 106.5 254.5t257.5 102.5q60 0 104 -13t62 -26t45 -39q-18 26 -40 49.5t-58 52.5
t-85.5 46.5t-104.5 17.5h-154q58 105 186 173t267 68q72 0 134 -16t112.5 -48t80 -87.5t29.5 -128.5v-629l110 -125h-215q-22 -42 -22 -98q0 -67 32.5 -114.5t78.5 -47.5zM711 446v408q0 156 -97 156q-69 0 -114.5 -63.5t-67.5 -155.5q23 -9 46 -21t59 -40t66 -63.5
t60 -93.5t48 -127zM537 115q82 0 126 68.5t44 162.5q0 75 -32 152t-92.5 131.5t-131.5 54.5q-78 0 -124 -67t-46 -160q0 -125 78 -233.5t178 -108.5z" />
    <glyph glyph-name="Cacute" unicode="&#x106;" horiz-adv-x="1468" 
d="M1018 1667l-543 -106l-8 10l467 258zM72 715q0 198 97.5 366t264.5 265.5t363 97.5q175 0 330 -79.5t259 -223.5h-356q-108 102 -224.5 157.5t-221.5 55.5q-152 0 -244 -107.5t-92 -281.5q0 -118 43 -245.5t119 -240t171.5 -203t208.5 -143.5t222 -53q120 0 204 69.5
t115 190.5h86q-101 -166 -264 -258t-356 -92q-196 0 -363 97.5t-264.5 264.5t-97.5 363z" />
    <glyph glyph-name="cacute" unicode="&#x107;" horiz-adv-x="1110" 
d="M854 1272l-543 -107l-8 11l467 258zM57 512q0 142 70 262.5t190.5 190t262.5 69.5q138 0 256.5 -67t191.5 -187l-309 2q-63 98 -135.5 152.5t-137.5 54.5q-80 0 -121.5 -71t-41.5 -177q0 -109 37.5 -234t96.5 -228.5t139.5 -172.5t158.5 -69q83 0 124 78t38 196h184
q-61 -146 -192.5 -233.5t-288.5 -87.5q-142 0 -262.5 70.5t-190.5 191t-70 260.5z" />
    <glyph glyph-name="Cdotaccent" unicode="&#x10a;" horiz-adv-x="1468" 
d="M788 1626q-36 0 -62 26t-26 62t26 62t62 26q37 0 63 -25.5t26 -62.5t-26 -62.5t-63 -25.5zM72 715q0 198 97.5 366t264.5 265.5t363 97.5q175 0 330 -79.5t259 -223.5h-356q-108 102 -224.5 157.5t-221.5 55.5q-152 0 -244 -107.5t-92 -281.5q0 -118 43 -245.5t119 -240
t171.5 -203t208.5 -143.5t222 -53q120 0 204 69.5t115 190.5h86q-101 -166 -264 -258t-356 -92q-196 0 -363 97.5t-264.5 264.5t-97.5 363z" />
    <glyph glyph-name="cdotaccent" unicode="&#x10b;" horiz-adv-x="1110" 
d="M565 1182q-36 0 -62 26t-26 62t26 62t62 26q37 0 62.5 -25.5t25.5 -62.5t-25.5 -62.5t-62.5 -25.5zM57 512q0 142 70 262.5t190.5 190t262.5 69.5q138 0 256.5 -67t191.5 -187l-309 2q-63 98 -135.5 152.5t-137.5 54.5q-80 0 -121.5 -71t-41.5 -177q0 -109 37.5 -234
t96.5 -228.5t139.5 -172.5t158.5 -69q83 0 124 78t38 196h184q-61 -146 -192.5 -233.5t-288.5 -87.5q-142 0 -262.5 70.5t-190.5 191t-70 260.5z" />
    <glyph glyph-name="Ccaron" unicode="&#x10c;" horiz-adv-x="1468" 
d="M793 1739l313 108l4 -16l-317 -260l-316 260l2 16zM72 715q0 198 97.5 366t264.5 265.5t363 97.5q175 0 330 -79.5t259 -223.5h-356q-108 102 -224.5 157.5t-221.5 55.5q-152 0 -244 -107.5t-92 -281.5q0 -118 43 -245.5t119 -240t171.5 -203t208.5 -143.5t222 -53
q120 0 204 69.5t115 190.5h86q-101 -166 -264 -258t-356 -92q-196 0 -363 97.5t-264.5 264.5t-97.5 363z" />
    <glyph glyph-name="ccaron" unicode="&#x10d;" horiz-adv-x="1110" 
d="M575 1325l314 109l4 -17l-318 -260l-315 260l2 17zM57 512q0 142 70 262.5t190.5 190t262.5 69.5q138 0 256.5 -67t191.5 -187l-309 2q-63 98 -135.5 152.5t-137.5 54.5q-80 0 -121.5 -71t-41.5 -177q0 -109 37.5 -234t96.5 -228.5t139.5 -172.5t158.5 -69q83 0 124 78
t38 196h184q-61 -146 -192.5 -233.5t-288.5 -87.5q-142 0 -262.5 70.5t-190.5 191t-70 260.5z" />
    <glyph glyph-name="Dcaron" unicode="&#x10e;" horiz-adv-x="1341" 
d="M573 1739l314 108l4 -16l-318 -260l-315 260l2 16zM33 0l110 125v1184l-110 125h502q157 -1 293.5 -57t233.5 -151t152.5 -227.5t55.5 -283.5q0 -153 -59 -287t-159 -227t-235.5 -147t-284.5 -54h-499zM410 16h114q92 0 167.5 37.5t127 102t87 154t51.5 191t16 214.5
q0 149 -25 273t-77 221.5t-140 152.5t-205 55h-116v-1401z" />
    <glyph glyph-name="dcaron" unicode="&#x10f;" horiz-adv-x="1159" 
d="M1153 1434h147l-71 -433h-4zM57 512q0 141 56 261.5t151.5 190.5t208.5 70q177 0 291 -133v313l-111 74l377 125v-1288l111 -125h-377v123q-112 -133 -291 -133q-113 0 -208.5 70t-151.5 190.5t-56 261.5zM326 512q0 -111 29.5 -218t89.5 -182t135 -75q93 0 184 117v716
q-91 117 -184 117q-75 0 -135 -75t-89.5 -182t-29.5 -218z" />
    <glyph glyph-name="Dcroat" unicode="&#x110;" horiz-adv-x="1341" 
d="M535 1434q157 -1 293.5 -57t233.5 -151t152.5 -227.5t55.5 -283.5q0 -153 -59 -287t-159 -227t-235.5 -147t-284.5 -54h-499l110 125v627h-219v16h219v541l-110 125h502zM524 16q92 0 167.5 37.5t127 102t87 154t51.5 191t16 214.5q0 149 -25 273t-77 221.5t-140 152.5
t-205 55h-116v-649h221v-16h-221v-736h114z" />
    <glyph glyph-name="dcroat" unicode="&#x111;" horiz-adv-x="1159" 
d="M1186 1069h-156v-944l111 -125h-377v123q-112 -133 -291 -133q-113 0 -208.5 70t-151.5 190.5t-56 261.5t56 261.5t151.5 190.5t208.5 70q177 0 291 -133v168h-148v16h148v129l-111 74l377 125v-328h156v-16zM764 154v716q-91 117 -184 117q-75 0 -135 -75t-89.5 -182
t-29.5 -218t29.5 -218t89.5 -182t135 -75q93 0 184 117z" />
    <glyph glyph-name="Emacron" unicode="&#x112;" horiz-adv-x="1110" 
d="M758 1638v-20h-475v20h475zM33 0l110 125v1184l-110 125h893v-277l-516 252v-539l516 2v-276l-516 250v-821l659 251v-276h-1036z" />
    <glyph glyph-name="emacron" unicode="&#x113;" horiz-adv-x="1126" 
d="M813 1249v-20h-475v20h475zM590 -10q-148 0 -270.5 69.5t-192.5 188.5t-70 262q0 107 41.5 204t112 167t167.5 111.5t204 41.5q134 0 251.5 -64t190.5 -179h-397q209 -36 327.5 -144t118.5 -272q0 -74 -32.5 -142.5t-92 -123t-152.5 -87t-206 -32.5zM481 997
q-170 0 -192 -190h424q-25 81 -89.5 135.5t-142.5 54.5zM287 791q-11 -123 20.5 -246t93.5 -219t157 -156.5t202 -60.5q123 0 206 89.5t83 209.5q0 113 -82.5 202t-213 135t-280.5 46h-186z" />
    <glyph glyph-name="Edotaccent" unicode="&#x116;" horiz-adv-x="1110" 
d="M530 1626q-36 0 -62 26t-26 62t26 62t62 26q37 0 62.5 -25.5t25.5 -62.5t-25.5 -62.5t-62.5 -25.5zM33 0l110 125v1184l-110 125h893v-277l-516 252v-539l516 2v-276l-516 250v-821l659 251v-276h-1036z" />
    <glyph glyph-name="edotaccent" unicode="&#x117;" horiz-adv-x="1126" 
d="M547 1182q-36 0 -62 26t-26 62t26 62t62 26q37 0 62.5 -25.5t25.5 -62.5t-25.5 -62.5t-62.5 -25.5zM590 -10q-148 0 -270.5 69.5t-192.5 188.5t-70 262q0 107 41.5 204t112 167t167.5 111.5t204 41.5q134 0 251.5 -64t190.5 -179h-397q209 -36 327.5 -144t118.5 -272
q0 -74 -32.5 -142.5t-92 -123t-152.5 -87t-206 -32.5zM481 997q-170 0 -192 -190h424q-25 81 -89.5 135.5t-142.5 54.5zM287 791q-11 -123 20.5 -246t93.5 -219t157 -156.5t202 -60.5q123 0 206 89.5t83 209.5q0 113 -82.5 202t-213 135t-280.5 46h-186z" />
    <glyph glyph-name="Eogonek" unicode="&#x118;" horiz-adv-x="1110" 
d="M1069 0h-197q-22 -42 -22 -98q0 -67 32.5 -114.5t78.5 -47.5q34 0 61 27h27q-14 -57 -55 -87t-93 -30q-70 0 -116 47.5t-46 112.5q0 51 29 101.5t80 88.5h-815l110 125v1184l-110 125h893v-277l-516 252v-539l516 2v-276l-516 250v-821l659 251v-276z" />
    <glyph glyph-name="eogonek" unicode="&#x119;" horiz-adv-x="1126" 
d="M1073 375q0 -89 -43.5 -167.5t-133.5 -136.5t-212 -75q-20 -45 -20 -94q0 -67 32 -114.5t78 -47.5q35 0 62 27h26q-14 -57 -54.5 -87t-92.5 -30q-70 0 -116 47.5t-46 112.5q0 47 26 96t72 86q-18 -2 -61 -2q-148 0 -270.5 69.5t-192.5 188.5t-70 262q0 107 41.5 204
t112 167t167.5 111.5t204 41.5q134 0 251.5 -64t190.5 -179h-397q209 -36 327.5 -144t118.5 -272zM481 997q-170 0 -192 -190h424q-25 81 -89.5 135.5t-142.5 54.5zM287 791q-11 -123 20.5 -246t93.5 -219t157 -156.5t202 -60.5q123 0 206 89.5t83 209.5q0 113 -82.5 202
t-213 135t-280.5 46h-186z" />
    <glyph glyph-name="Ecaron" unicode="&#x11a;" horiz-adv-x="1110" 
d="M512 1739l313 108l4 -16l-317 -260l-315 260l2 16zM33 0l110 125v1184l-110 125h893v-277l-516 252v-539l516 2v-276l-516 250v-821l659 251v-276h-1036z" />
    <glyph glyph-name="ecaron" unicode="&#x11b;" horiz-adv-x="1126" 
d="M565 1325l314 109l4 -17l-318 -260l-315 260l2 17zM590 -10q-148 0 -270.5 69.5t-192.5 188.5t-70 262q0 107 41.5 204t112 167t167.5 111.5t204 41.5q134 0 251.5 -64t190.5 -179h-397q209 -36 327.5 -144t118.5 -272q0 -74 -32.5 -142.5t-92 -123t-152.5 -87
t-206 -32.5zM481 997q-170 0 -192 -190h424q-25 81 -89.5 135.5t-142.5 54.5zM287 791q-11 -123 20.5 -246t93.5 -219t157 -156.5t202 -60.5q123 0 206 89.5t83 209.5q0 113 -82.5 202t-213 135t-280.5 46h-186z" />
    <glyph glyph-name="Gbreve" unicode="&#x11e;" horiz-adv-x="1492" 
d="M952 1647q-80 -79 -192 -79t-191 79q-77 77 -77 190h79q29 -98 66 -143q31 -39 86.5 -62.5t116 -19t96.5 40.5q62 62 27 184h67q0 -112 -78 -190zM72 717q0 197 97.5 364.5t265 265t364.5 97.5q173 0 328.5 -79.5t256.5 -219.5l2 -4h-354q-109 103 -226 158t-222 55
q-154 0 -244 -108t-90 -275q0 -157 69 -320t177.5 -287.5t248.5 -204t273 -79.5q102 0 184 57q115 81 166 164l-246 487h279v-479q-101 -150 -260.5 -234.5t-341.5 -84.5q-197 0 -364.5 97.5t-265 265t-97.5 364.5z" />
    <glyph glyph-name="gbreve" unicode="&#x11f;" horiz-adv-x="1116" 
d="M735 1243q-79 -79 -191 -79t-192 79q-78 78 -78 191h80q30 -100 66 -144q31 -39 86.5 -62.5t116 -19t96.5 40.5q61 61 26 185h68q0 -113 -78 -191zM1239 -94q0 -84 -49.5 -150t-122 -98.5t-149.5 -32.5q-103 0 -198.5 46.5t-135.5 123.5q-112 -225 -301 -225
q-98 0 -170 62t-72 149q0 201 336 287l137 34q-125 1 -230.5 64t-167 170t-61.5 231q0 125 61.5 232.5t169.5 171t236 63.5q174 0 305 -116h2l256 145v-219h-176v-19q76 -121 76 -256q0 -154 -90 -278t-209 -156l-283 -78q-72 -19 -124 -60t-52 -93q0 -38 24.5 -60t63.5 -22
q13 0 26.5 3.5t30 12t28.5 15.5t31.5 22t29 22t31.5 25t28 23q48 39 75 59.5t77.5 53.5t90 50t93 30.5t107.5 13.5q123 0 199.5 -69.5t76.5 -176.5zM385 989q-51 0 -77.5 -56t-26.5 -145q0 -122 41 -243t100 -205t125 -136t117 -52q27 0 46.5 22t29 56.5t14 67.5t4.5 64
q0 115 -40.5 233.5t-99 202.5t-122.5 137.5t-111 53.5zM811 -330q88 0 143.5 79.5t55.5 176.5q0 76 -43 130.5t-113 54.5q-28 0 -54 -10t-48.5 -31t-39 -40.5t-36 -53.5t-29 -53t-26.5 -54l-27 -55q27 -59 90 -101.5t127 -42.5z" />
    <glyph glyph-name="Gdotaccent" unicode="&#x120;" horiz-adv-x="1492" 
d="M764 1626q-36 0 -62 26t-26 62t26 62t62 26q37 0 62.5 -25.5t25.5 -62.5t-25.5 -62.5t-62.5 -25.5zM72 717q0 197 97.5 364.5t265 265t364.5 97.5q173 0 328.5 -79.5t256.5 -219.5l2 -4h-354q-109 103 -226 158t-222 55q-154 0 -244 -108t-90 -275q0 -157 69 -320
t177.5 -287.5t248.5 -204t273 -79.5q102 0 184 57q115 81 166 164l-246 487h279v-479q-101 -150 -260.5 -234.5t-341.5 -84.5q-197 0 -364.5 97.5t-265 265t-97.5 364.5z" />
    <glyph glyph-name="gdotaccent" unicode="&#x121;" horiz-adv-x="1116" 
d="M528 1182q-36 0 -62 26t-26 62t26 62t62 26q37 0 62.5 -25.5t25.5 -62.5t-25.5 -62.5t-62.5 -25.5zM1239 -94q0 -84 -49.5 -150t-122 -98.5t-149.5 -32.5q-103 0 -198.5 46.5t-135.5 123.5q-112 -225 -301 -225q-98 0 -170 62t-72 149q0 201 336 287l137 34
q-125 1 -230.5 64t-167 170t-61.5 231q0 125 61.5 232.5t169.5 171t236 63.5q174 0 305 -116h2l256 145v-219h-176v-19q76 -121 76 -256q0 -154 -90 -278t-209 -156l-283 -78q-72 -19 -124 -60t-52 -93q0 -38 24.5 -60t63.5 -22q13 0 26.5 3.5t30 12t28.5 15.5t31.5 22
t29 22t31.5 25t28 23q48 39 75 59.5t77.5 53.5t90 50t93 30.5t107.5 13.5q123 0 199.5 -69.5t76.5 -176.5zM385 989q-51 0 -77.5 -56t-26.5 -145q0 -122 41 -243t100 -205t125 -136t117 -52q27 0 46.5 22t29 56.5t14 67.5t4.5 64q0 115 -40.5 233.5t-99 202.5t-122.5 137.5
t-111 53.5zM811 -330q88 0 143.5 79.5t55.5 176.5q0 76 -43 130.5t-113 54.5q-28 0 -54 -10t-48.5 -31t-39 -40.5t-36 -53.5t-29 -53t-26.5 -54l-27 -55q27 -59 90 -101.5t127 -42.5z" />
    <glyph glyph-name="uni0122" unicode="&#x122;" horiz-adv-x="1492" 
d="M72 717q0 197 97.5 364.5t265 265t364.5 97.5q173 0 328.5 -79.5t256.5 -219.5l2 -4h-354q-109 103 -226 158t-222 55q-154 0 -244 -108t-90 -275q0 -157 69 -320t177.5 -287.5t248.5 -204t273 -79.5q102 0 184 57q115 81 166 164l-246 487h279v-479
q-101 -150 -260.5 -234.5t-341.5 -84.5q-197 0 -364.5 97.5t-265 265t-97.5 364.5zM801 -51q50 0 84.5 -36.5t34.5 -105.5q0 -80 -52.5 -155.5t-136.5 -93.5l-2 12q51 15 79.5 60.5t22.5 105.5q-62 -13 -101.5 18.5t-39.5 83.5q0 45 32 78t79 33z" />
    <glyph glyph-name="uni0123" unicode="&#x123;" horiz-adv-x="1116" 
d="M528 1092q-50 0 -84 36t-34 105q0 80 52 156t136 94l2 -13q-51 -15 -79.5 -60t-22.5 -105q62 13 101.5 -19t39.5 -84q0 -45 -32 -77.5t-79 -32.5zM1239 -94q0 -84 -49.5 -150t-122 -98.5t-149.5 -32.5q-103 0 -198.5 46.5t-135.5 123.5q-112 -225 -301 -225
q-98 0 -170 62t-72 149q0 201 336 287l137 34q-125 1 -230.5 64t-167 170t-61.5 231q0 125 61.5 232.5t169.5 171t236 63.5q174 0 305 -116h2l256 145v-219h-176v-19q76 -121 76 -256q0 -154 -90 -278t-209 -156l-283 -78q-72 -19 -124 -60t-52 -93q0 -38 24.5 -60t63.5 -22
q13 0 26.5 3.5t30 12t28.5 15.5t31.5 22t29 22t31.5 25t28 23q48 39 75 59.5t77.5 53.5t90 50t93 30.5t107.5 13.5q123 0 199.5 -69.5t76.5 -176.5zM385 989q-51 0 -77.5 -56t-26.5 -145q0 -122 41 -243t100 -205t125 -136t117 -52q27 0 46.5 22t29 56.5t14 67.5t4.5 64
q0 115 -40.5 233.5t-99 202.5t-122.5 137.5t-111 53.5zM811 -330q88 0 143.5 79.5t55.5 176.5q0 76 -43 130.5t-113 54.5q-28 0 -54 -10t-48.5 -31t-39 -40.5t-36 -53.5t-29 -53t-26.5 -54l-27 -55q27 -59 90 -101.5t127 -42.5z" />
    <glyph glyph-name="Hbar" unicode="&#x126;" horiz-adv-x="1298" 
d="M1360 1004h-205v-879l111 -125h-488l111 125v674h-479v-674l110 -125h-487l110 125v879h-204v16h204v289l-110 125h487l-110 -125v-289h479v289l-111 125h488l-111 -125v-289h205v-16zM889 815v189h-479v-189h479z" />
    <glyph glyph-name="hbar" unicode="&#x127;" horiz-adv-x="1118" 
d="M621 0l110 125v610q0 78 -51.5 138.5t-124.5 60.5q-86 0 -162 -82v-727l111 -125h-488l111 125v866q0 45 6 88h-156v17h158q24 150 112 236.5t228 86.5q124 0 195 -66.5t71 -166.5q0 -43 -24 -87t-64 -75q38 6 70 6q124 0 199 -84.5t75 -208.5v-612l111 -125h-487z
M393 868q86 86 189 133q143 64 143 185q0 76 -48.5 134t-113.5 58q-80 0 -124 -82t-46 -200h154v-17h-154v-211z" />
    <glyph glyph-name="Itilde" unicode="&#x128;" horiz-adv-x="552" 
d="M55 1585q0 65 42.5 117.5t99.5 52.5q37 0 65.5 -18.5t44 -40t37.5 -40t47 -18.5q40 0 66 29.5t26 71.5h15q0 -65 -42.5 -117.5t-99.5 -52.5q-37 0 -65.5 18.5t-44 40t-37.5 40t-47 18.5q-40 0 -66 -29.5t-26 -71.5h-15zM520 1434l-110 -125v-1184l110 -125h-487l110 125
v1184l-110 125h487z" />
    <glyph glyph-name="itilde" unicode="&#x129;" horiz-adv-x="528" 
d="M43 1190q0 65 42 117.5t99 52.5q37 0 66 -18.5t44 -40t37.5 -40t47.5 -18.5q40 0 66 29t26 71h14q0 -65 -42 -117t-99 -52q-37 0 -65.5 18t-44 40t-37.5 40t-47 18q-41 0 -67 -29t-26 -71h-14zM25 0l110 125v702l-110 74l376 123v-899l111 -125h-487z" />
    <glyph glyph-name="Imacron" unicode="&#x12a;" horiz-adv-x="552" 
d="M514 1638v-20h-475v20h475zM520 1434l-110 -125v-1184l110 -125h-487l110 125v1184l-110 125h487z" />
    <glyph glyph-name="imacron" unicode="&#x12b;" horiz-adv-x="528" 
d="M502 1249v-20h-475v20h475zM25 0l110 125v702l-110 74l376 123v-899l111 -125h-487z" />
    <glyph glyph-name="Iogonek" unicode="&#x12e;" horiz-adv-x="552" 
d="M520 0h-221q-23 -44 -23 -98q0 -67 32.5 -114.5t78.5 -47.5q35 0 62 27h26q-14 -57 -54.5 -87t-92.5 -30q-70 0 -116 47.5t-46 112.5q0 51 28.5 101.5t79.5 88.5h-241l110 125v1184l-110 125h487l-110 -125v-1184z" />
    <glyph glyph-name="iogonek" unicode="&#x12f;" horiz-adv-x="528" 
d="M262 1108q-63 0 -107 44.5t-44 107.5t44 107t107 44t107.5 -44t44.5 -107t-44.5 -107.5t-107.5 -44.5zM369 -260q34 0 61 27h27q-14 -57 -55 -87t-93 -30q-70 0 -116 47.5t-46 112.5q0 51 29 101.5t80 88.5h-231l110 125v702l-110 74l376 123v-899l111 -125h-231
q-23 -44 -23 -98q0 -67 32.5 -114.5t78.5 -47.5z" />
    <glyph glyph-name="Idotaccent" unicode="&#x130;" horiz-adv-x="552" 
d="M276 1626q-36 0 -62 26t-26 62t26 62t62 26q37 0 63 -25.5t26 -62.5t-26 -62.5t-63 -25.5zM520 1434l-110 -125v-1184l110 -125h-487l110 125v1184l-110 125h487z" />
    <glyph glyph-name="dotlessi" unicode="&#x131;" horiz-adv-x="528" 
d="M25 0l110 125v702l-110 74l376 123v-899l111 -125h-487z" />
    <glyph glyph-name="uni0136" unicode="&#x136;" horiz-adv-x="1191" 
d="M1190 0h-463l82 88l-283 694q-116 -238 -116 -428v-227l110 -125h-487l110 125v1184l-110 125h487l-110 -125v-799q89 374 405 694l-78 230h430l-333 -236q-72 -73 -134 -149l396 -951zM608 -51q50 0 84.5 -36.5t34.5 -105.5q0 -80 -52 -155.5t-136 -93.5l-2 12
q51 15 79.5 60.5t22.5 105.5q-62 -13 -101.5 18.5t-39.5 83.5q0 45 32 78t78 33z" />
    <glyph glyph-name="uni0137" unicode="&#x137;" horiz-adv-x="1069" 
d="M1063 0h-467l80 88l-227 485q-56 -96 -56 -157v-291l111 -125h-488l111 125v1089l-111 74l377 125v-913q36 100 117 191t182 161l-57 172h399l-299 -164q-53 -34 -96 -72l330 -688zM528 -51q50 0 84.5 -36.5t34.5 -105.5q0 -80 -52 -155.5t-136 -93.5l-2 12
q51 15 79.5 60.5t22.5 105.5q-62 -13 -101.5 18.5t-39.5 83.5q0 45 32 78t78 33z" />
    <glyph glyph-name="Lacute" unicode="&#x139;" horiz-adv-x="1105" 
d="M578 1667l-543 -106l-8 10l467 258zM33 0l110 125v1184l-110 125h487l-110 -125v-1293h307l389 385l-123 -401h-950z" />
    <glyph glyph-name="lacute" unicode="&#x13a;" horiz-adv-x="520" 
d="M506 1667l-543 -106l-8 10l467 258zM393 1413v-1288l111 -125h-488l111 125v1089l-111 74z" />
    <glyph glyph-name="uni013B" unicode="&#x13b;" horiz-adv-x="1105" 
d="M33 0l110 125v1184l-110 125h487l-110 -125v-1293h307l389 385l-123 -401h-950zM559 -51q50 0 84.5 -36.5t34.5 -105.5q0 -80 -52.5 -155.5t-136.5 -93.5l-2 12q51 15 80 60.5t23 105.5q-62 -13 -101.5 18.5t-39.5 83.5q0 45 32 78t78 33z" />
    <glyph glyph-name="uni013C" unicode="&#x13c;" horiz-adv-x="520" 
d="M393 1413v-1288l111 -125h-488l111 125v1089l-111 74zM256 -51q50 0 84.5 -36.5t34.5 -105.5q0 -80 -52.5 -155.5t-136.5 -93.5l-2 12q51 15 80 60.5t23 105.5q-62 -13 -102 18.5t-40 83.5q0 45 32 78t79 33z" />
    <glyph glyph-name="Lcaron" unicode="&#x13d;" horiz-adv-x="1105" 
d="M33 0l110 125v1184l-110 125h487l-110 -125v-1293h307l389 385l-123 -401h-950zM655 1434h148l-72 -433h-4z" />
    <glyph glyph-name="lcaron" unicode="&#x13e;" horiz-adv-x="520" 
d="M528 1434h148l-72 -433h-4zM393 1413v-1288l111 -125h-488l111 125v1089l-111 74z" />
    <glyph glyph-name="Lslash" unicode="&#x141;" horiz-adv-x="1105" 
d="M717 16l389 385l-123 -401h-950l110 125v473l-249 -203l-11 15l260 211v688l-110 125h487l-110 -125v-473l247 200l11 -12l-258 -209v-799h307z" />
    <glyph glyph-name="lslash" unicode="&#x142;" horiz-adv-x="520" 
d="M393 831v-706l111 -125h-488l111 125v442l-256 -256l-14 15l270 270v618l-111 74l377 125v-551l234 234l14 -17z" />
    <glyph glyph-name="Nacute" unicode="&#x143;" horiz-adv-x="1333" 
d="M997 1667l-542 -106l-9 10l467 258zM1130 1212v-991l203 -221h-418l197 211l-891 1071v-1061l203 -221h-424l203 221v1086l-107 127h350l666 -811v589l-203 222h424z" />
    <glyph glyph-name="nacute" unicode="&#x144;" horiz-adv-x="1122" 
d="M836 1272l-543 -107l-8 11l467 258zM1001 737v-612l111 -125h-487l110 125v610q0 77 -52 132t-120 55q-88 0 -162 -80v-717l111 -125h-487l110 125v686l-110 74l376 139v-158q161 164 328 164q120 0 196 -84t76 -209z" />
    <glyph glyph-name="uni0145" unicode="&#x145;" horiz-adv-x="1333" 
d="M1130 1212v-991l203 -221h-418l197 211l-891 1071v-1061l203 -221h-424l203 221v1086l-107 127h350l666 -811v589l-203 222h424zM666 -51q50 0 84 -36.5t34 -105.5q0 -80 -52 -155.5t-136 -93.5l-2 12q51 15 79.5 60.5t22.5 105.5q-62 -13 -101.5 18.5t-39.5 83.5
q0 45 32 78t79 33z" />
    <glyph glyph-name="uni0146" unicode="&#x146;" horiz-adv-x="1122" 
d="M1001 737v-612l111 -125h-487l110 125v610q0 77 -52 132t-120 55q-88 0 -162 -80v-717l111 -125h-487l110 125v686l-110 74l376 139v-158q161 164 328 164q120 0 196 -84t76 -209zM561 -51q50 0 84.5 -36.5t34.5 -105.5q0 -80 -52 -155.5t-136 -93.5l-3 12q51 15 80 60.5
t23 105.5q-62 -13 -101.5 18.5t-39.5 83.5q0 45 32 78t78 33z" />
    <glyph glyph-name="Ncaron" unicode="&#x147;" horiz-adv-x="1333" 
d="M705 1739l313 108l4 -16l-317 -260l-316 260l2 16zM1130 1212v-991l203 -221h-418l197 211l-891 1071v-1061l203 -221h-424l203 221v1086l-107 127h350l666 -811v589l-203 222h424z" />
    <glyph glyph-name="ncaron" unicode="&#x148;" horiz-adv-x="1122" 
d="M555 1325l313 109l4 -17l-317 -260l-315 260l2 17zM1001 737v-612l111 -125h-487l110 125v610q0 77 -52 132t-120 55q-88 0 -162 -80v-717l111 -125h-487l110 125v686l-110 74l376 139v-158q161 164 328 164q120 0 196 -84t76 -209z" />
    <glyph glyph-name="Eng" unicode="&#x14a;" horiz-adv-x="1333" 
d="M1130 221l203 -221h-203v-147q0 -104 -73 -178t-176 -74q-105 0 -178.5 74.5t-73.5 181.5q0 49 34.5 83.5t84.5 34.5q43 0 75.5 -28.5t38.5 -69.5q8 -44 43.5 -75t81.5 -31q53 0 90 37.5t37 89.5v102h-199l197 211l-891 1071v-1061l203 -221h-424l203 221v1086l-107 127
h350l666 -811v589l-203 222h424l-203 -222v-991z" />
    <glyph glyph-name="eng" unicode="&#x14b;" horiz-adv-x="1122" 
d="M1112 0h-111v-135q-2 -132 -94.5 -225t-222.5 -93q-120 0 -215.5 83t-95.5 188q0 53 36.5 90t90.5 37q52 0 89.5 -37.5t37.5 -89.5q0 -31 -6.5 -69t-6.5 -73q0 -54 19 -80t45 -26q54 0 57 106v324h-110l110 125v610q0 77 -52 132t-120 55q-88 0 -162 -80v-717l111 -125
h-487l110 125v686l-110 74l376 139v-158q161 164 328 164q120 0 196 -84t76 -209v-612z" />
    <glyph glyph-name="Omacron" unicode="&#x14c;" horiz-adv-x="1601" 
d="M1038 1638v-20h-475v20h475zM72 717q0 197 98.5 364.5t266.5 265t364 97.5t364 -97.5t266.5 -265t98.5 -364.5t-98.5 -364.5t-266.5 -265t-364 -97.5t-364 97.5t-266.5 265t-98.5 364.5zM252 965q0 -116 42.5 -243t118 -239.5t170.5 -204t209.5 -145t225.5 -53.5
q65 0 123 24t105.5 70.5t75.5 123t28 171.5q0 116 -42.5 243t-118 239.5t-170.5 204t-209.5 145t-225.5 53.5q-65 0 -123 -24t-105.5 -70.5t-75.5 -123t-28 -171.5z" />
    <glyph glyph-name="omacron" unicode="&#x14d;" horiz-adv-x="1157" 
d="M817 1249v-20h-475v20h475zM57 512q0 141 69.5 261.5t189.5 190.5t262 70q107 0 204 -41.5t166.5 -111.5t110.5 -166.5t41 -202.5q0 -142 -69.5 -262t-189.5 -190t-263 -70q-142 0 -262 69.5t-189.5 190t-69.5 262.5zM281 741q0 -124 41.5 -254t104 -228t139 -161
t143.5 -63q81 0 123 68.5t42 179.5q0 124 -41.5 254t-104 228t-139 161t-143.5 63q-81 0 -123 -68.5t-42 -179.5z" />
    <glyph glyph-name="Ohungarumlaut" unicode="&#x150;" horiz-adv-x="1601" 
d="M510 1550l199 402h194l-371 -408zM770 1550l201 402h192l-368 -408zM72 717q0 197 98.5 364.5t266.5 265t364 97.5t364 -97.5t266.5 -265t98.5 -364.5t-98.5 -364.5t-266.5 -265t-364 -97.5t-364 97.5t-266.5 265t-98.5 364.5zM252 965q0 -116 42.5 -243t118 -239.5
t170.5 -204t209.5 -145t225.5 -53.5q65 0 123 24t105.5 70.5t75.5 123t28 171.5q0 116 -42.5 243t-118 239.5t-170.5 204t-209.5 145t-225.5 53.5q-65 0 -123 -24t-105.5 -70.5t-75.5 -123t-28 -171.5z" />
    <glyph glyph-name="ohungarumlaut" unicode="&#x151;" horiz-adv-x="1157" 
d="M326 1202l198 402h195l-371 -408zM586 1202l200 402h193l-369 -408zM57 512q0 141 69.5 261.5t189.5 190.5t262 70q107 0 204 -41.5t166.5 -111.5t110.5 -166.5t41 -202.5q0 -142 -69.5 -262t-189.5 -190t-263 -70q-142 0 -262 69.5t-189.5 190t-69.5 262.5zM281 741
q0 -124 41.5 -254t104 -228t139 -161t143.5 -63q81 0 123 68.5t42 179.5q0 124 -41.5 254t-104 228t-139 161t-143.5 63q-81 0 -123 -68.5t-42 -179.5z" />
    <glyph glyph-name="OE" unicode="&#x152;" horiz-adv-x="1888" 
d="M72 717q0 197 98.5 362t266 260t364.5 95h903v-277l-516 252v-539l516 2v-276l-516 250v-821l659 251v-276h-1046q-197 0 -364.5 95t-266 260t-98.5 362zM252 965q0 -178 94 -367t250.5 -328t325.5 -174v1131q-167 119 -338 119q-65 0 -123 -23t-105.5 -68t-75.5 -120
t-28 -170z" />
    <glyph glyph-name="oe" unicode="&#x153;" horiz-adv-x="1925" 
d="M57 512q0 141 69.5 261.5t189.5 190.5t262 70q119 0 222 -48.5t177 -135.5q73 88 178 136.5t225 47.5q134 0 252 -64t191 -179h-398q209 -36 328 -144.5t119 -271.5q0 -74 -32.5 -142.5t-92 -123t-152.5 -87t-206 -32.5q-124 0 -230.5 49t-179.5 137q-73 -88 -177 -137
t-224 -49q-142 0 -262 69.5t-189.5 190t-69.5 262.5zM1087 807h424q-25 82 -89 136t-142 54q-85 0 -133.5 -49t-59.5 -141zM281 741q0 -124 41.5 -254t104 -228t139 -161t143.5 -63q81 0 123 68.5t42 179.5q0 124 -41.5 254t-104 228t-139 161t-143.5 63q-81 0 -123 -68.5
t-42 -179.5zM1085 791q-11 -122 21 -245.5t94 -219.5t157 -156.5t202 -60.5q123 0 205.5 89.5t82.5 209.5q0 85 -48 158t-128 121.5t-184 76t-215 27.5h-187z" />
    <glyph glyph-name="Racute" unicode="&#x154;" horiz-adv-x="1228" 
d="M825 1667l-542 -106l-9 10l467 258zM760 811l350 -686l115 -125h-463l76 82l-310 584q-118 -106 -118 -240v-301l110 -125h-487l110 125v1184l-110 125h690q142 0 237 -86t95 -215q0 -33 -7 -62.5t-17.5 -52.5t-33 -46.5t-42 -40.5t-55.5 -39.5t-63.5 -38t-76.5 -42.5z
M410 1417v-889q20 58 66 108.5t130 106.5q55 36 93 87.5t55 107t23.5 100t6.5 88.5q0 139 -83.5 215t-239.5 76h-51z" />
    <glyph glyph-name="racute" unicode="&#x155;" horiz-adv-x="811" 
d="M698 1272l-542 -107l-9 11l467 258zM801 1024l-80 -264q-45 -2 -75.5 -5.5t-72 -11.5t-68.5 -22.5t-53 -36.5t-38.5 -56.5t-12.5 -78.5v-424l111 -125h-487l110 125v700l-110 74l376 125v-369q41 205 126.5 288.5t273.5 80.5z" />
    <glyph glyph-name="uni0156" unicode="&#x156;" horiz-adv-x="1228" 
d="M760 811l350 -686l115 -125h-463l76 82l-310 584q-118 -106 -118 -240v-301l110 -125h-487l110 125v1184l-110 125h690q142 0 237 -86t95 -215q0 -33 -7 -62.5t-17.5 -52.5t-33 -46.5t-42 -40.5t-55.5 -39.5t-63.5 -38t-76.5 -42.5zM410 1417v-889q20 58 66 108.5
t130 106.5q55 36 93 87.5t55 107t23.5 100t6.5 88.5q0 139 -83.5 215t-239.5 76h-51zM623 -51q50 0 84 -36.5t34 -105.5q0 -80 -52 -155.5t-136 -93.5l-2 12q51 15 79.5 60.5t22.5 105.5q-62 -13 -101.5 18.5t-39.5 83.5q0 45 32 78t79 33z" />
    <glyph glyph-name="uni0157" unicode="&#x157;" horiz-adv-x="811" 
d="M801 1024l-80 -264q-45 -2 -75.5 -5.5t-72 -11.5t-68.5 -22.5t-53 -36.5t-38.5 -56.5t-12.5 -78.5v-424l111 -125h-487l110 125v700l-110 74l376 125v-369q41 205 126.5 288.5t273.5 80.5zM270 -51q50 0 84.5 -36.5t34.5 -105.5q0 -80 -52 -155.5t-136 -93.5l-2 12
q51 15 79.5 60.5t22.5 105.5q-62 -13 -101.5 18.5t-39.5 83.5q0 45 32 78t78 33z" />
    <glyph glyph-name="Rcaron" unicode="&#x158;" horiz-adv-x="1228" 
d="M561 1739l313 108l5 -16l-318 -260l-315 260l2 16zM760 811l350 -686l115 -125h-463l76 82l-310 584q-118 -106 -118 -240v-301l110 -125h-487l110 125v1184l-110 125h690q142 0 237 -86t95 -215q0 -33 -7 -62.5t-17.5 -52.5t-33 -46.5t-42 -40.5t-55.5 -39.5t-63.5 -38
t-76.5 -42.5zM410 1417v-889q20 58 66 108.5t130 106.5q55 36 93 87.5t55 107t23.5 100t6.5 88.5q0 139 -83.5 215t-239.5 76h-51z" />
    <glyph glyph-name="rcaron" unicode="&#x159;" horiz-adv-x="811" 
d="M397 1325l314 109l4 -17l-318 -260l-315 260l2 17zM801 1024l-80 -264q-45 -2 -75.5 -5.5t-72 -11.5t-68.5 -22.5t-53 -36.5t-38.5 -56.5t-12.5 -78.5v-424l111 -125h-487l110 125v700l-110 74l376 125v-369q41 205 126.5 288.5t273.5 80.5z" />
    <glyph glyph-name="Sacute" unicode="&#x15a;" horiz-adv-x="1165" 
d="M817 1667l-543 -106l-8 10l467 258zM590 907q96 -39 145.5 -61.5t123.5 -61t111.5 -73t78 -83.5t57 -109.5t16.5 -133.5q0 -176 -123 -280.5t-315 -104.5l-569 2l-64 432l342 -368q112 -46 262 -46q316 0 316 175q0 32 -9.5 63t-30.5 59t-41.5 51t-56 48t-61 42t-69 39.5
t-66.5 33.5t-66 32l-256 121q-53 25 -98.5 57t-86 77t-64 106t-23.5 131q0 92 38.5 183t115.5 138q95 58 297 58h485l57 -437l-309 365q-107 51 -233 51q-73 2 -133.5 -6.5t-112 -28.5t-80.5 -58t-29 -91q0 -34 16 -65.5t45 -57.5t66.5 -50.5t83.5 -46.5t92.5 -42t97.5 -40
q33 -13 50 -20z" />
    <glyph glyph-name="sacute" unicode="&#x15b;" horiz-adv-x="890" 
d="M719 1272l-543 -107l-8 11l467 258zM567 606q122 -65 197.5 -144t75.5 -167q0 -130 -106 -212.5t-253 -82.5h-389l-35 336l346 -311q44 -7 78 -7q91 0 152 32.5t61 86.5q0 27 -17 55t-40 49.5t-63 47.5t-69.5 42t-77 41.5t-69.5 37.5l-96 53q-101 56 -159 131.5
t-58 163.5q0 119 94 192.5t228 73.5h360l41 -319l-311 292q-40 9 -90 9q-33 0 -64 -4.5t-60 -15.5t-47 -31t-18 -48t14 -54t32 -45.5t59 -46t70 -42t89 -47.5z" />
    <glyph glyph-name="Scedilla" unicode="&#x15e;" horiz-adv-x="1165" 
d="M1122 385q0 -107 -48 -190.5t-136 -133.5l-260 -161q58 4 102.5 -39t44.5 -97q0 -79 -65 -125.5t-129 -46.5v9q69 43 69 112q0 63 -46.5 99.5t-96.5 17.5l-8 16l297 177q-80 -23 -162 -23l-569 2l-64 432l342 -368q112 -46 262 -46q316 0 316 175q0 32 -9.5 63t-30.5 59
t-41.5 51t-56 48t-61 42t-69 39.5t-66.5 33.5t-66 32l-256 121q-53 25 -98.5 57t-86 77t-64 106t-23.5 131q0 92 38.5 183t115.5 138q95 58 297 58h485l57 -437l-309 365q-107 51 -233 51q-73 2 -133.5 -6.5t-112 -28.5t-80.5 -58t-29 -91q0 -34 16 -65.5t45 -57.5
t66.5 -50.5t83.5 -46.5t92.5 -42t97.5 -40q33 -13 50 -20q96 -39 145.5 -61.5t123.5 -61t111.5 -73t78 -83.5t57 -109.5t16.5 -133.5z" />
    <glyph glyph-name="scedilla" unicode="&#x15f;" horiz-adv-x="890" 
d="M840 295q0 -72 -34.5 -131t-94.5 -98v-3l-262 -163q58 4 102.5 -39t44.5 -97q0 -79 -65.5 -125.5t-129.5 -46.5v9q70 44 70 112q0 63 -46.5 99.5t-96.5 17.5l-9 16l291 172q-62 -18 -129 -18h-389l-35 336l346 -311q44 -7 78 -7q91 0 152 32.5t61 86.5q0 27 -17 55
t-40 49.5t-63 47.5t-69.5 42t-77 41.5t-69.5 37.5l-96 53q-101 56 -159 131.5t-58 163.5q0 119 94 192.5t228 73.5h360l41 -319l-311 292q-40 9 -90 9q-33 0 -64 -4.5t-60 -15.5t-47 -31t-18 -48t14 -54t32 -45.5t59 -46t70 -42t89 -47.5l125 -66q122 -65 197.5 -144
t75.5 -167z" />
    <glyph glyph-name="Scaron" unicode="&#x160;" horiz-adv-x="1165" 
d="M551 1739l313 108l4 -16l-317 -260l-315 260l2 16zM590 907q96 -39 145.5 -61.5t123.5 -61t111.5 -73t78 -83.5t57 -109.5t16.5 -133.5q0 -176 -123 -280.5t-315 -104.5l-569 2l-64 432l342 -368q112 -46 262 -46q316 0 316 175q0 32 -9.5 63t-30.5 59t-41.5 51t-56 48
t-61 42t-69 39.5t-66.5 33.5t-66 32l-256 121q-53 25 -98.5 57t-86 77t-64 106t-23.5 131q0 92 38.5 183t115.5 138q95 58 297 58h485l57 -437l-309 365q-107 51 -233 51q-73 2 -133.5 -6.5t-112 -28.5t-80.5 -58t-29 -91q0 -34 16 -65.5t45 -57.5t66.5 -50.5t83.5 -46.5
t92.5 -42t97.5 -40q33 -13 50 -20z" />
    <glyph glyph-name="scaron" unicode="&#x161;" horiz-adv-x="890" 
d="M408 1325l313 109l4 -17l-317 -260l-316 260l2 17zM567 606q122 -65 197.5 -144t75.5 -167q0 -130 -106 -212.5t-253 -82.5h-389l-35 336l346 -311q44 -7 78 -7q91 0 152 32.5t61 86.5q0 27 -17 55t-40 49.5t-63 47.5t-69.5 42t-77 41.5t-69.5 37.5l-96 53
q-101 56 -159 131.5t-58 163.5q0 119 94 192.5t228 73.5h360l41 -319l-311 292q-40 9 -90 9q-33 0 -64 -4.5t-60 -15.5t-47 -31t-18 -48t14 -54t32 -45.5t59 -46t70 -42t89 -47.5z" />
    <glyph glyph-name="uni0162" unicode="&#x162;" horiz-adv-x="1226" 
d="M858 0h-133l-160 -100q58 4 103 -39t45 -97q0 -79 -65.5 -125.5t-129.5 -46.5v9q70 44 70 112q0 63 -46.5 99.5t-97.5 17.5l-8 16l260 154h-325l110 125v1292h-106l-365 -409l88 426h1030l89 -426l-363 409h-106v-1292z" />
    <glyph glyph-name="uni0163" unicode="&#x163;" horiz-adv-x="591" 
d="M393 297q0 -138 42.5 -213.5t139.5 -69.5v-8q-38 -14 -77 -14q-50 0 -105 10l-162 -102q58 4 103 -39t45 -97q0 -79 -65.5 -125.5t-129.5 -46.5v9q70 44 70 112q0 63 -46.5 99.5t-96.5 17.5l-9 16l271 160q-246 62 -246 387v615h-127l393 266v-250h180v-16h-180v-711z
" />
    <glyph glyph-name="Tcaron" unicode="&#x164;" horiz-adv-x="1226" 
d="M612 1739l314 108l4 -16l-318 -260l-315 260l2 16zM98 1434h1030l89 -426l-363 409h-106v-1292l110 -125h-487l110 125v1292h-106l-365 -409z" />
    <glyph glyph-name="tcaron" unicode="&#x165;" horiz-adv-x="591" 
d="M582 1434h147l-72 -433h-4zM575 14v-8q-38 -14 -77 -14q-371 0 -371 401v615h-127l393 266v-250h180v-16h-180v-711q0 -138 42.5 -213.5t139.5 -69.5z" />
    <glyph glyph-name="Tbar" unicode="&#x166;" horiz-adv-x="1226" 
d="M748 1417v-692h219v-16h-219v-584l110 -125h-487l110 125v584h-219v16h219v692h-106l-365 -409l88 426h1030l89 -426l-363 409h-106z" />
    <glyph glyph-name="tbar" unicode="&#x167;" horiz-adv-x="591" 
d="M393 297q0 -138 42.5 -213.5t139.5 -69.5v-8q-38 -14 -77 -14q-371 0 -371 401v422h-125v16h125v177h-127l393 266v-250h180v-16h-180v-177h176v-16h-176v-518z" />
    <glyph glyph-name="Utilde" unicode="&#x168;" horiz-adv-x="1304" 
d="M504 1585q0 65 42 117.5t99 52.5q37 0 66 -18.5t44 -40t37.5 -40t47.5 -18.5q40 0 66 29.5t26 71.5h14q0 -65 -42 -117.5t-99 -52.5q-37 0 -66 18.5t-44 40t-37.5 40t-47.5 18.5q-40 0 -66 -29.5t-26 -71.5h-14zM20 1434h488l-111 -125v-789q0 -205 101 -338t264 -133
q52 0 110 27.5t113.5 81t92 149t36.5 215.5v690l-203 222h424l-202 -222v-690q-1 -238 -129.5 -382t-337.5 -144q-146 0 -269 69.5t-194.5 190t-71.5 264.5v789z" />
    <glyph glyph-name="utilde" unicode="&#x169;" horiz-adv-x="1095" 
d="M307 1190q0 65 42.5 117.5t99.5 52.5q37 0 65.5 -18.5t44 -40t37.5 -40t47 -18.5q40 0 66 29t26 71h15q0 -65 -42.5 -117t-99.5 -52q-37 0 -65.5 18t-44 40t-37.5 40t-47 18q-40 0 -66 -29t-26 -71h-15zM612 1024l357 -2v-1022h-111l-149 168q-71 -78 -158 -126t-176 -48
q-120 0 -197.5 82.5t-77.5 208.5v614l-90 125h357v-737q0 -81 52 -133t122 -52q83 0 161 84v713z" />
    <glyph glyph-name="Umacron" unicode="&#x16a;" horiz-adv-x="1304" 
d="M944 1638v-20h-475v20h475zM20 1434h488l-111 -125v-789q0 -205 101 -338t264 -133q52 0 110 27.5t113.5 81t92 149t36.5 215.5v690l-203 222h424l-202 -222v-690q-1 -238 -129.5 -382t-337.5 -144q-146 0 -269 69.5t-194.5 190t-71.5 264.5v789z" />
    <glyph glyph-name="umacron" unicode="&#x16b;" horiz-adv-x="1095" 
d="M760 1249v-20h-475v20h475zM612 1024l357 -2v-1022h-111l-149 168q-71 -78 -158 -126t-176 -48q-120 0 -197.5 82.5t-77.5 208.5v614l-90 125h357v-737q0 -81 52 -133t122 -52q83 0 161 84v713z" />
    <glyph glyph-name="Uring" unicode="&#x16e;" horiz-adv-x="1304" 
d="M762 1556q-51 -20 -101.5 1.5t-70.5 72.5q-22 51 -0.5 101.5t72.5 70.5q53 21 102.5 0.5t71.5 -71.5q20 -51 -1.5 -102t-72.5 -73zM666 1794q-41 -15 4 -129q23 -53 44.5 -80.5t43.5 -17.5q44 16 -4 129q-21 53 -43 80.5t-45 17.5zM20 1434h488l-111 -125v-789
q0 -205 101 -338t264 -133q52 0 110 27.5t113.5 81t92 149t36.5 215.5v690l-203 222h424l-202 -222v-690q-1 -238 -129.5 -382t-337.5 -144q-146 0 -269 69.5t-194.5 190t-71.5 264.5v789z" />
    <glyph glyph-name="uring" unicode="&#x16f;" horiz-adv-x="1095" 
d="M578 1167q-51 -20 -101.5 1.5t-70.5 72.5q-22 51 -1 101.5t72 70.5q53 21 102.5 0t71.5 -72q20 -51 -1 -101.5t-72 -72.5zM481 1405q-41 -15 4 -129q23 -53 44.5 -80.5t43.5 -17.5q44 16 -4 129q-21 53 -43 80.5t-45 17.5zM612 1024l357 -2v-1022h-111l-149 168
q-71 -78 -158 -126t-176 -48q-120 0 -197.5 82.5t-77.5 208.5v614l-90 125h357v-737q0 -81 52 -133t122 -52q83 0 161 84v713z" />
    <glyph glyph-name="Uhungarumlaut" unicode="&#x170;" horiz-adv-x="1304" 
d="M483 1550l199 402h195l-371 -408zM743 1550l201 402h193l-369 -408zM20 1434h488l-111 -125v-789q0 -205 101 -338t264 -133q52 0 110 27.5t113.5 81t92 149t36.5 215.5v690l-203 222h424l-202 -222v-690q-1 -238 -129.5 -382t-337.5 -144q-146 0 -269 69.5t-194.5 190
t-71.5 264.5v789z" />
    <glyph glyph-name="uhungarumlaut" unicode="&#x171;" horiz-adv-x="1095" 
d="M307 1202l199 402h194l-370 -408zM567 1202l201 402h193l-369 -408zM612 1024l357 -2v-1022h-111l-149 168q-71 -78 -158 -126t-176 -48q-120 0 -197.5 82.5t-77.5 208.5v614l-90 125h357v-737q0 -81 52 -133t122 -52q83 0 161 84v713z" />
    <glyph glyph-name="Uogonek" unicode="&#x172;" horiz-adv-x="1304" 
d="M911 1434h424l-202 -222v-690q-1 -228 -120 -371t-315 -155q-20 -42 -20 -94q0 -67 32 -114.5t78 -47.5q35 0 62 27h27q-14 -57 -55 -87t-93 -30q-70 0 -116 47.5t-46 112.5q0 49 27.5 98t75.5 88h-4q-146 0 -269 69.5t-194.5 190t-71.5 264.5v789l-111 125h488
l-111 -125v-789q0 -205 101 -338t264 -133q52 0 110 27.5t113.5 81t92 149t36.5 215.5v690z" />
    <glyph glyph-name="uogonek" unicode="&#x173;" horiz-adv-x="1095" 
d="M1032 -233h27q-14 -57 -55 -87t-93 -30q-70 0 -115.5 47.5t-45.5 112.5q0 51 28.5 101.5t79.5 88.5l-149 168q-71 -78 -158 -126t-176 -48q-120 0 -197.5 82.5t-77.5 208.5v614l-90 125h357v-737q0 -81 52 -133t122 -52q83 0 161 84v713l-90 125l357 -2v-1022h-86
q-23 -44 -23 -98q0 -67 32.5 -114.5t78.5 -47.5q34 0 61 27z" />
    <glyph glyph-name="Wcircumflex" unicode="&#x174;" horiz-adv-x="1898" 
d="M1008 1673l-314 -108l-2 16l316 260l317 -260l-4 -16zM1690 1212l-201 222h422l-199 -217l-266 -1063v-154h-236l-278 1065l-227 -911v-154h-236l-348 1311l-113 123h504l-113 -123l295 -1116l230 919v320h182l2 -2l328 -1237z" />
    <glyph glyph-name="wcircumflex" unicode="&#x175;" horiz-adv-x="1609" 
d="M815 1266l-313 -109l-2 17l315 260l318 -260l-5 -17zM1399 782l-135 242h354l-201 -242l-219 -594v-188h-221l-199 598l-151 -410v-188h-221l-304 909l-96 115h467l-92 -115l237 -694l150 412l-94 282l-96 115h469l-95 -115l238 -694z" />
    <glyph glyph-name="Ycircumflex" unicode="&#x176;" horiz-adv-x="1222" 
d="M651 1673l-313 -108l-2 16l315 260l318 -260l-4 -16zM813 1434h422l-203 -217l-297 -881v-211l111 -125h-488l111 125v176l-352 1008l-111 125h498l-111 -125l334 -947l287 850z" />
    <glyph glyph-name="ycircumflex" unicode="&#x177;" horiz-adv-x="1091" 
d="M598 1266l-313 -109l-2 17l315 260l317 -260l-4 -17zM883 786l-131 238h348l-199 -240l-225 -587v-164h-76q-38 -80 -74 -144.5t-81 -125.5t-91 -101.5t-102 -65t-115 -24.5q-95 0 -159 53t-64 131q0 72 56 129t157 80l338 76l-356 860l-107 123h498l-109 -123l275 -686z
M276 -18q-161 -38 -161 -113q0 -34 27.5 -50t64.5 -16q99 0 205 67t172 163h-95z" />
    <glyph glyph-name="Ydieresis" unicode="&#x178;" horiz-adv-x="1222" 
d="M528 1626q-36 0 -62 26t-26 62t26 62t62 26q37 0 62.5 -25.5t25.5 -62.5t-25.5 -62.5t-62.5 -25.5zM815 1626q-37 0 -62.5 25.5t-25.5 62.5t25.5 62.5t62.5 25.5t62.5 -25.5t25.5 -62.5t-25.5 -62.5t-62.5 -25.5zM813 1434h422l-203 -217l-297 -881v-211l111 -125h-488
l111 125v176l-352 1008l-111 125h498l-111 -125l334 -947l287 850z" />
    <glyph glyph-name="Zacute" unicode="&#x179;" horiz-adv-x="1202" 
d="M889 1667l-543 -106l-8 10l467 258zM881 16l311 404l-31 -420h-1106l770 1417h-481l-309 -375l28 392h1039l-770 -1418h549z" />
    <glyph glyph-name="zacute" unicode="&#x17a;" horiz-adv-x="890" 
d="M756 1272l-543 -107l-8 11l467 258zM578 16l264 342l-19 -358h-786l495 1008h-192l-262 -342l16 358h715l-494 -1008h263z" />
    <glyph glyph-name="Zdotaccent" unicode="&#x17b;" horiz-adv-x="1202" 
d="M592 1626q-36 0 -62 26t-26 62t26 62t62 26q37 0 62.5 -25.5t25.5 -62.5t-25.5 -62.5t-62.5 -25.5zM881 16l311 404l-31 -420h-1106l770 1417h-481l-309 -375l28 392h1039l-770 -1418h549z" />
    <glyph glyph-name="zdotaccent" unicode="&#x17c;" horiz-adv-x="890" 
d="M442 1182q-36 0 -62 26t-26 62t26 62t62 26q37 0 62.5 -25.5t25.5 -62.5t-25.5 -62.5t-62.5 -25.5zM578 16l264 342l-19 -358h-786l495 1008h-192l-262 -342l16 358h715l-494 -1008h263z" />
    <glyph glyph-name="Zcaron" unicode="&#x17d;" horiz-adv-x="1202" 
d="M598 1739l313 108l4 -16l-317 -260l-315 260l2 16zM881 16l311 404l-31 -420h-1106l770 1417h-481l-309 -375l28 392h1039l-770 -1418h549z" />
    <glyph glyph-name="zcaron" unicode="&#x17e;" horiz-adv-x="890" 
d="M463 1325l313 109l4 -17l-317 -260l-316 260l3 17zM578 16l264 342l-19 -358h-786l495 1008h-192l-262 -342l16 358h715l-494 -1008h263z" />
    <glyph glyph-name="uni0197" unicode="&#x197;" horiz-adv-x="552" 
d="M528 709h-118v-584l110 -125h-487l110 125v584h-118v16h118v584l-110 125h487l-110 -125v-584h118v-16z" />
    <glyph glyph-name="uni01CD" unicode="&#x1cd;" horiz-adv-x="1323" 
d="M977 1831l-318 -260l-315 260l2 16l313 -108l314 108zM1229 109l96 -109h-483l94 109l-139 389h-484l-98 -277l262 -221h-487l203 217l342 1010v207h221v-2zM317 514h474l-242 682z" />
    <glyph glyph-name="uni01CE" unicode="&#x1ce;" horiz-adv-x="1101" 
d="M653 1325l314 109l4 -17l-318 -260l-315 260l2 17zM35 348q0 152 106.5 254.5t257.5 102.5q60 0 104 -13t62 -26t45 -39q-18 26 -40 49.5t-58 52.5t-85.5 46.5t-104.5 17.5h-154q58 105 186 173t267 68q72 0 134 -16t112.5 -48t80 -87.5t29.5 -128.5v-629l110 -125h-376
v250q-45 -129 -134 -192.5t-200 -63.5q-145 0 -243.5 102.5t-98.5 251.5zM432 791q23 -9 46 -21t59 -40t66 -63.5t60 -93.5t48 -127v408q0 156 -97 156q-69 0 -114.5 -63.5t-67.5 -155.5zM281 457q0 -125 78 -233.5t178 -108.5q82 0 126 68.5t44 162.5q0 75 -32 152
t-92.5 131.5t-131.5 54.5q-78 0 -124 -67t-46 -160z" />
    <glyph glyph-name="uni01CF" unicode="&#x1cf;" horiz-adv-x="552" 
d="M274 1739l314 108l4 -16l-318 -260l-315 260l2 16zM520 1434l-110 -125v-1184l110 -125h-487l110 125v1184l-110 125h487z" />
    <glyph glyph-name="uni01D0" unicode="&#x1d0;" horiz-adv-x="528" 
d="M262 1325l313 109l5 -17l-318 -260l-315 260l2 17zM25 0l110 125v702l-110 74l376 123v-899l111 -125h-487z" />
    <glyph glyph-name="uni01D1" unicode="&#x1d1;" horiz-adv-x="1601" 
d="M801 1739l313 108l4 -16l-317 -260l-316 260l2 16zM72 717q0 197 98.5 364.5t266.5 265t364 97.5t364 -97.5t266.5 -265t98.5 -364.5t-98.5 -364.5t-266.5 -265t-364 -97.5t-364 97.5t-266.5 265t-98.5 364.5zM252 965q0 -116 42.5 -243t118 -239.5t170.5 -204
t209.5 -145t225.5 -53.5q65 0 123 24t105.5 70.5t75.5 123t28 171.5q0 116 -42.5 243t-118 239.5t-170.5 204t-209.5 145t-225.5 53.5q-65 0 -123 -24t-105.5 -70.5t-75.5 -123t-28 -171.5z" />
    <glyph glyph-name="uni01D2" unicode="&#x1d2;" horiz-adv-x="1157" 
d="M578 1325l313 109l4 -17l-317 -260l-316 260l2 17zM57 512q0 141 69.5 261.5t189.5 190.5t262 70q107 0 204 -41.5t166.5 -111.5t110.5 -166.5t41 -202.5q0 -142 -69.5 -262t-189.5 -190t-263 -70q-142 0 -262 69.5t-189.5 190t-69.5 262.5zM281 741q0 -124 41.5 -254
t104 -228t139 -161t143.5 -63q81 0 123 68.5t42 179.5q0 124 -41.5 254t-104 228t-139 161t-143.5 63q-81 0 -123 -68.5t-42 -179.5z" />
    <glyph glyph-name="uni01D3" unicode="&#x1d3;" horiz-adv-x="1304" 
d="M700 1739l314 108l4 -16l-318 -260l-315 260l2 16zM20 1434h488l-111 -125v-789q0 -205 101 -338t264 -133q52 0 110 27.5t113.5 81t92 149t36.5 215.5v690l-203 222h424l-202 -222v-690q-1 -238 -129.5 -382t-337.5 -144q-146 0 -269 69.5t-194.5 190t-71.5 264.5v789z
" />
    <glyph glyph-name="uni01D4" unicode="&#x1d4;" horiz-adv-x="1095" 
d="M516 1325l313 109l5 -17l-318 -260l-315 260l2 17zM612 1024l357 -2v-1022h-111l-149 168q-71 -78 -158 -126t-176 -48q-120 0 -197.5 82.5t-77.5 208.5v614l-90 125h357v-737q0 -81 52 -133t122 -52q83 0 161 84v713z" />
    <glyph glyph-name="uni0218" unicode="&#x218;" horiz-adv-x="1165" 
d="M590 907q96 -39 145.5 -61.5t123.5 -61t111.5 -73t78 -83.5t57 -109.5t16.5 -133.5q0 -176 -123 -280.5t-315 -104.5l-569 2l-64 432l342 -368q112 -46 262 -46q316 0 316 175q0 32 -9.5 63t-30.5 59t-41.5 51t-56 48t-61 42t-69 39.5t-66.5 33.5t-66 32l-256 121
q-53 25 -98.5 57t-86 77t-64 106t-23.5 131q0 92 38.5 183t115.5 138q95 58 297 58h485l57 -437l-309 365q-107 51 -233 51q-73 2 -133.5 -6.5t-112 -28.5t-80.5 -58t-29 -91q0 -34 16 -65.5t45 -57.5t66.5 -50.5t83.5 -46.5t92.5 -42t97.5 -40q33 -13 50 -20zM618 -51
q50 0 84.5 -36.5t34.5 -105.5q0 -80 -52 -155.5t-136 -93.5l-2 12q51 15 79.5 60.5t22.5 105.5q-62 -13 -101.5 18.5t-39.5 83.5q0 45 32 78t78 33z" />
    <glyph glyph-name="uni0219" unicode="&#x219;" horiz-adv-x="890" 
d="M567 606q122 -65 197.5 -144t75.5 -167q0 -130 -106 -212.5t-253 -82.5h-389l-35 336l346 -311q44 -7 78 -7q91 0 152 32.5t61 86.5q0 27 -17 55t-40 49.5t-63 47.5t-69.5 42t-77 41.5t-69.5 37.5l-96 53q-101 56 -159 131.5t-58 163.5q0 119 94 192.5t228 73.5h360
l41 -319l-311 292q-40 9 -90 9q-33 0 -64 -4.5t-60 -15.5t-47 -31t-18 -48t14 -54t32 -45.5t59 -46t70 -42t89 -47.5zM483 -51q50 0 84.5 -36.5t34.5 -105.5q0 -80 -52 -155.5t-136 -93.5l-2 12q51 15 79.5 60.5t22.5 105.5q-62 -13 -101.5 18.5t-39.5 83.5q0 45 32 78
t78 33z" />
    <glyph glyph-name="uni021A" unicode="&#x21a;" horiz-adv-x="1226" 
d="M98 1434h1030l89 -426l-363 409h-106v-1292l110 -125h-487l110 125v1292h-106l-365 -409zM608 -51q50 0 84.5 -36.5t34.5 -105.5q0 -80 -52 -155.5t-136 -93.5l-2 12q51 15 79.5 60.5t22.5 105.5q-62 -13 -101.5 18.5t-39.5 83.5q0 45 32 78t78 33z" />
    <glyph glyph-name="uni021B" unicode="&#x21b;" horiz-adv-x="591" 
d="M575 14v-8q-38 -14 -77 -14q-371 0 -371 401v615h-127l393 266v-250h180v-16h-180v-711q0 -138 42.5 -213.5t139.5 -69.5zM330 -51q50 0 84.5 -36.5t34.5 -105.5q0 -80 -52.5 -155.5t-136.5 -93.5l-2 12q51 15 79.5 60.5t22.5 105.5q-62 -13 -101.5 18.5t-39.5 83.5
q0 45 32 78t79 33z" />
    <glyph glyph-name="uni0268" unicode="&#x268;" horiz-adv-x="528" 
d="M262 1108q-63 0 -107 44.5t-44 107.5t44 107t107 44t107.5 -44t44.5 -107t-44.5 -107.5t-107.5 -44.5zM25 0l110 125v702l-110 74l376 123v-899l111 -125h-487z" />
    <glyph glyph-name="circumflex" unicode="&#x2c6;" horiz-adv-x="714" 
d="M356 1266l-313 -109l-2 17l315 260l318 -260l-4 -17z" />
    <glyph glyph-name="caron" unicode="&#x2c7;" horiz-adv-x="714" 
d="M356 1325l314 109l4 -17l-318 -260l-315 260l2 17z" />
    <glyph glyph-name="breve" unicode="&#x2d8;" horiz-adv-x="620" 
d="M502 1243q-80 -79 -192 -79t-191 79q-78 78 -78 191h80q30 -102 65 -144q31 -39 86.5 -62.5t116 -19t96.5 40.5q62 62 27 185h68q0 -113 -78 -191z" />
    <glyph glyph-name="dotaccent" unicode="&#x2d9;" horiz-adv-x="258" 
d="M129 1257q-35 0 -61.5 26.5t-26.5 62.5t26 62t62 26q37 0 62.5 -25.5t25.5 -62.5t-25.5 -63t-62.5 -26z" />
    <glyph glyph-name="ring" unicode="&#x2da;" horiz-adv-x="348" 
d="M223 1176q-51 -20 -101.5 1t-70.5 72q-22 51 -0.5 101.5t72.5 70.5q53 21 102.5 0.5t71.5 -71.5q20 -51 -1.5 -101.5t-72.5 -72.5zM127 1413q-41 -15 4 -129q23 -53 44.5 -80.5t43.5 -17.5q44 16 -4 129q-21 53 -43 80.5t-45 17.5z" />
    <glyph glyph-name="ogonek" unicode="&#x2db;" horiz-adv-x="391" 
d="M324 -233h26q-14 -57 -54.5 -87t-92.5 -30q-70 0 -116 47.5t-46 112.5q0 51 29 101.5t80 88.5h24q-22 -42 -22 -98q0 -67 32 -114.5t78 -47.5q35 0 62 27z" />
    <glyph glyph-name="tilde" unicode="&#x2dc;" horiz-adv-x="524" 
d="M41 1264q0 65 42 117.5t99 52.5q37 0 66 -18.5t44 -40t37.5 -40t47.5 -18.5q40 0 66 29t26 71h14q0 -65 -42 -117.5t-99 -52.5q-37 0 -66 18.5t-44 40t-37.5 40t-47.5 18.5q-40 0 -66 -29t-26 -71h-14z" />
    <glyph glyph-name="hungarumlaut" unicode="&#x2dd;" horiz-adv-x="735" 
d="M41 1032l199 402h194l-371 -408zM301 1032l201 402h192l-368 -408z" />
    <glyph glyph-name="gravecomb" unicode="&#x300;" 
d="M-590 1272l543 -109l6 11l-465 260z" />
    <glyph glyph-name="acutecomb" unicode="&#x301;" 
d="M-41 1272l-543 -107l-8 11l467 258z" />
    <glyph glyph-name="uni0302" unicode="&#x302;" 
d="M-358 1266l-314 -109l-2 17l316 260l317 -260l-4 -17z" />
    <glyph glyph-name="tildecomb" unicode="&#x303;" 
d="M-483 1264q0 65 42 117.5t99 52.5q37 0 66 -18.5t44 -40t37.5 -40t47.5 -18.5q40 0 66 29t26 71h14q0 -65 -42 -117.5t-99 -52.5q-37 0 -66 18.5t-44 40t-37.5 40t-47.5 18.5q-40 0 -66 -29t-26 -71h-14z" />
    <glyph glyph-name="uni0304" unicode="&#x304;" 
d="M-41 1434v-21h-475v21h475z" />
    <glyph glyph-name="uni0306" unicode="&#x306;" 
d="M-119 1243q-79 -79 -191 -79t-192 79q-78 78 -78 191h80q30 -100 66 -144q31 -39 86.5 -62.5t116 -19t96.5 40.5q61 61 26 185h68q0 -113 -78 -191z" />
    <glyph glyph-name="uni0307" unicode="&#x307;" 
d="M-129 1257q-35 0 -61.5 26.5t-26.5 62.5t26 62t62 26q37 0 62.5 -25.5t25.5 -62.5t-25.5 -63t-62.5 -26z" />
    <glyph glyph-name="uni0308" unicode="&#x308;" 
d="M-416 1257q-36 0 -62 26.5t-26 62.5t26 62t62 26q37 0 62.5 -25.5t25.5 -62.5t-25.5 -63t-62.5 -26zM-129 1257q-37 0 -62.5 26t-25.5 63t25.5 62.5t62.5 25.5t62.5 -25.5t25.5 -62.5t-25.5 -63t-62.5 -26z" />
    <glyph glyph-name="uni030A" unicode="&#x30a;" 
d="M-125 1176q-51 -20 -101.5 1t-70.5 72q-22 51 -0.5 101.5t72.5 70.5q53 21 102.5 0.5t71.5 -71.5q20 -51 -1.5 -101.5t-72.5 -72.5zM-221 1413q-41 -15 4 -129q23 -53 44.5 -80.5t43.5 -17.5q44 16 -4 129q-21 53 -43 80.5t-45 17.5z" />
    <glyph glyph-name="uni030B" unicode="&#x30b;" 
d="M-694 1032l198 402h195l-371 -408zM-434 1032l201 402h192l-369 -408z" />
    <glyph glyph-name="uni030C" unicode="&#x30c;" 
d="M-358 1325l313 109l4 -17l-317 -260l-316 260l2 17z" />
    <glyph glyph-name="uni0312" unicode="&#x312;" 
d="M-152 1092q-50 0 -84 36t-34 105q0 80 52 156t136 94l2 -13q-51 -15 -79.5 -60t-22.5 -105q62 13 101.5 -19t39.5 -84q0 -45 -32 -77.5t-79 -32.5z" />
    <glyph glyph-name="uni0326" unicode="&#x326;" 
d="M-160 -53q50 0 84.5 -36.5t34.5 -105.5q0 -80 -52 -155.5t-136 -93.5l-2 12q51 15 79.5 60.5t22.5 105.5q-62 -13 -101.5 18.5t-39.5 83.5q0 45 32 78t78 33z" />
    <glyph glyph-name="uni0327" unicode="&#x327;" 
d="M-41 94l-311 -194q58 4 102.5 -39t44.5 -97q0 -79 -65 -125.5t-129 -46.5v9q69 43 69 112q0 63 -46.5 99.5t-96.5 17.5l-8 16l432 256z" />
    <glyph glyph-name="uni0328" unicode="&#x328;" 
d="M-68 -233h27q-14 -57 -54.5 -87t-92.5 -30q-70 0 -116 47.5t-46 112.5q0 51 28.5 101.5t79.5 88.5h25q-23 -44 -23 -98q0 -67 32.5 -114.5t78.5 -47.5q34 0 61 27z" />
    <glyph glyph-name="Wgrave" unicode="&#x1e80;" horiz-adv-x="1898" 
d="M717 1667l543 -108l6 10l-465 260zM1690 1212l-201 222h422l-199 -217l-266 -1063v-154h-236l-278 1065l-227 -911v-154h-236l-348 1311l-113 123h504l-113 -123l295 -1116l230 919v320h182l2 -2l328 -1237z" />
    <glyph glyph-name="wgrave" unicode="&#x1e81;" horiz-adv-x="1609" 
d="M541 1272l542 -109l7 11l-465 260zM1399 782l-135 242h354l-201 -242l-219 -594v-188h-221l-199 598l-151 -410v-188h-221l-304 909l-96 115h467l-92 -115l237 -694l150 412l-94 282l-96 115h469l-95 -115l238 -694z" />
    <glyph glyph-name="Wacute" unicode="&#x1e82;" horiz-adv-x="1898" 
d="M1278 1667l-543 -106l-8 10l467 258zM1690 1212l-201 222h422l-199 -217l-266 -1063v-154h-236l-278 1065l-227 -911v-154h-236l-348 1311l-113 123h504l-113 -123l295 -1116l230 919v320h182l2 -2l328 -1237z" />
    <glyph glyph-name="wacute" unicode="&#x1e83;" horiz-adv-x="1609" 
d="M1092 1272l-543 -107l-8 11l467 258zM1399 782l-135 242h354l-201 -242l-219 -594v-188h-221l-199 598l-151 -410v-188h-221l-304 909l-96 115h467l-92 -115l237 -694l150 412l-94 282l-96 115h469l-95 -115l238 -694z" />
    <glyph glyph-name="Wdieresis" unicode="&#x1e84;" horiz-adv-x="1898" 
d="M883 1626q-36 0 -62 26t-26 62t26 62t62 26q37 0 62.5 -25.5t25.5 -62.5t-25.5 -62.5t-62.5 -25.5zM1169 1626q-37 0 -62.5 25.5t-25.5 62.5t25.5 62.5t62.5 25.5t62.5 -25.5t25.5 -62.5t-25.5 -62.5t-62.5 -25.5zM1690 1212l-201 222h422l-199 -217l-266 -1063v-154
h-236l-278 1065l-227 -911v-154h-236l-348 1311l-113 123h504l-113 -123l295 -1116l230 919v320h182l2 -2l328 -1237z" />
    <glyph glyph-name="wdieresis" unicode="&#x1e85;" horiz-adv-x="1609" 
d="M668 1182q-36 0 -62 26t-26 62t26 62t62 26q37 0 62.5 -25.5t25.5 -62.5t-25.5 -62.5t-62.5 -25.5zM954 1182q-37 0 -62.5 25.5t-25.5 62.5t25.5 62.5t62.5 25.5t62.5 -25.5t25.5 -62.5t-25.5 -62.5t-62.5 -25.5zM1399 782l-135 242h354l-201 -242l-219 -594v-188h-221
l-199 598l-151 -410v-188h-221l-304 909l-96 115h467l-92 -115l237 -694l150 412l-94 282l-96 115h469l-95 -115l238 -694z" />
    <glyph glyph-name="uni1EBC" unicode="&#x1ebc;" horiz-adv-x="1110" 
d="M301 1585q0 65 42 117.5t99 52.5q37 0 66 -18.5t44 -40t37.5 -40t47.5 -18.5q40 0 66 29.5t26 71.5h14q0 -65 -42 -117.5t-99 -52.5q-37 0 -65.5 18.5t-44 40t-37.5 40t-47 18.5q-41 0 -67 -29.5t-26 -71.5h-14zM33 0l110 125v1184l-110 125h893v-277l-516 252v-539
l516 2v-276l-516 250v-821l659 251v-276h-1036z" />
    <glyph glyph-name="uni1EBD" unicode="&#x1ebd;" horiz-adv-x="1126" 
d="M309 1190q0 65 42.5 117.5t99.5 52.5q37 0 65.5 -18.5t44 -40t37.5 -40t47 -18.5q40 0 66 29t26 71h15q0 -65 -42.5 -117t-99.5 -52q-37 0 -65.5 18t-44 40t-37.5 40t-47 18q-40 0 -66 -29t-26 -71h-15zM590 -10q-148 0 -270.5 69.5t-192.5 188.5t-70 262q0 107 41.5 204
t112 167t167.5 111.5t204 41.5q134 0 251.5 -64t190.5 -179h-397q209 -36 327.5 -144t118.5 -272q0 -74 -32.5 -142.5t-92 -123t-152.5 -87t-206 -32.5zM481 997q-170 0 -192 -190h424q-25 81 -89.5 135.5t-142.5 54.5zM287 791q-11 -123 20.5 -246t93.5 -219t157 -156.5
t202 -60.5q123 0 206 89.5t83 209.5q0 113 -82.5 202t-213 135t-280.5 46h-186z" />
    <glyph glyph-name="Ygrave" unicode="&#x1ef2;" horiz-adv-x="1222" 
d="M387 1667l543 -108l6 10l-465 260zM813 1434h422l-203 -217l-297 -881v-211l111 -125h-488l111 125v176l-352 1008l-111 125h498l-111 -125l334 -947l287 850z" />
    <glyph glyph-name="ygrave" unicode="&#x1ef3;" horiz-adv-x="1091" 
d="M319 1272l543 -109l6 11l-465 260zM883 786l-131 238h348l-199 -240l-225 -587v-164h-76q-38 -80 -74 -144.5t-81 -125.5t-91 -101.5t-102 -65t-115 -24.5q-95 0 -159 53t-64 131q0 72 56 129t157 80l338 76l-356 860l-107 123h498l-109 -123l275 -686zM276 -18
q-161 -38 -161 -113q0 -34 27.5 -50t64.5 -16q99 0 205 67t172 163h-95z" />
    <glyph glyph-name="uni1EF8" unicode="&#x1ef8;" horiz-adv-x="1222" 
d="M457 1585q0 65 42 117.5t99 52.5q37 0 66 -18.5t44 -40t37.5 -40t47.5 -18.5q40 0 66 29.5t26 71.5h14q0 -65 -42 -117.5t-99 -52.5q-37 0 -66 18.5t-44 40t-37.5 40t-47.5 18.5q-40 0 -66 -29.5t-26 -71.5h-14zM813 1434h422l-203 -217l-297 -881v-211l111 -125h-488
l111 125v176l-352 1008l-111 125h498l-111 -125l334 -947l287 850z" />
    <glyph glyph-name="uni1EF9" unicode="&#x1ef9;" horiz-adv-x="1091" 
d="M393 1190q0 65 42.5 117.5t99.5 52.5q37 0 65.5 -18.5t44 -40t37.5 -40t47 -18.5q40 0 66 29t26 71h15q0 -65 -42.5 -117t-99.5 -52q-37 0 -65.5 18t-44 40t-37.5 40t-47 18q-40 0 -66 -29t-26 -71h-15zM883 786l-131 238h348l-199 -240l-225 -587v-164h-76
q-38 -80 -74 -144.5t-81 -125.5t-91 -101.5t-102 -65t-115 -24.5q-95 0 -159 53t-64 131q0 72 56 129t157 80l338 76l-356 860l-107 123h498l-109 -123l275 -686zM276 -18q-161 -38 -161 -113q0 -34 27.5 -50t64.5 -16q99 0 205 67t172 163h-95z" />
    <glyph glyph-name="endash" unicode="&#x2013;" horiz-adv-x="786" 
d="M61 559h664v-39h-664v39z" />
    <glyph glyph-name="emdash" unicode="&#x2014;" horiz-adv-x="1095" 
d="M61 559h973v-39h-973v39z" />
    <glyph glyph-name="quoteleft" unicode="&#x2018;" horiz-adv-x="311" 
d="M160 1073q-50 0 -84.5 36t-34.5 105q0 80 52 156t136 94l2 -12q-51 -15 -79.5 -60.5t-22.5 -105.5q62 13 101.5 -18.5t39.5 -83.5q0 -45 -32 -78t-78 -33z" />
    <glyph glyph-name="quoteright" unicode="&#x2019;" horiz-adv-x="311" 
d="M152 1434q50 0 84 -36.5t34 -105.5q0 -80 -52 -156t-136 -94l-2 13q51 15 79.5 60.5t22.5 105.5q-62 -13 -101.5 18.5t-39.5 83.5q0 45 32 78t79 33z" />
    <glyph glyph-name="quotesinglbase" unicode="&#x201a;" horiz-adv-x="331" 
d="M162 223q50 0 84.5 -36t34.5 -105q0 -80 -52.5 -156t-136.5 -94l-2 12q51 15 80 60.5t23 105.5q-62 -13 -102 19t-40 84q0 45 32 77.5t79 32.5z" />
    <glyph glyph-name="quotedblleft" unicode="&#x201c;" horiz-adv-x="598" 
d="M160 1073q-50 0 -84.5 36t-34.5 105q0 80 52 156t136 94l2 -12q-51 -15 -79.5 -60.5t-22.5 -105.5q62 13 101.5 -18.5t39.5 -83.5q0 -45 -32 -78t-78 -33zM446 1073q-50 0 -84 36t-34 105q0 80 52 156t136 94l2 -12q-51 -15 -79.5 -60.5t-22.5 -105.5q62 13 101.5 -18.5
t39.5 -83.5q0 -45 -32 -78t-79 -33z" />
    <glyph glyph-name="quotedblright" unicode="&#x201d;" horiz-adv-x="598" 
d="M152 1434q50 0 84 -36.5t34 -105.5q0 -80 -52 -156t-136 -94l-2 13q51 15 79.5 60.5t22.5 105.5q-62 -13 -101.5 18.5t-39.5 83.5q0 45 32 78t79 33zM438 1434q50 0 84.5 -36.5t34.5 -105.5q0 -80 -52 -156t-136 -94l-2 13q51 15 79.5 60.5t22.5 105.5
q-62 -13 -101.5 18.5t-39.5 83.5q0 45 32 78t78 33z" />
    <glyph glyph-name="quotedblbase" unicode="&#x201e;" horiz-adv-x="618" 
d="M162 223q50 0 84.5 -36t34.5 -105q0 -80 -52.5 -156t-136.5 -94l-2 12q51 15 80 60.5t23 105.5q-62 -13 -102 19t-40 84q0 45 32 77.5t79 32.5zM449 223q50 0 84 -36t34 -105q0 -80 -52 -156t-136 -94l-2 12q51 15 79.5 60.5t22.5 105.5q-62 -13 -101.5 19t-39.5 84
q0 45 32 77.5t79 32.5z" />
    <glyph glyph-name="dagger" unicode="&#x2020;" horiz-adv-x="673" 
d="M358 1159h275v-41h-275v-778h-43v778h-274v41h274v275h43v-275z" />
    <glyph glyph-name="daggerdbl" unicode="&#x2021;" horiz-adv-x="675" 
d="M635 1118h-277v-250h277v-41h-277v-274h-41v274h-276v41h276v250h-276v41h276v275h41v-275h277v-41z" />
    <glyph glyph-name="bullet" unicode="&#x2022;" horiz-adv-x="333" 
d="M168 711q47 0 81 -34t34 -81q0 -49 -33.5 -83t-81.5 -34t-82.5 34t-34.5 83q0 47 35 81t82 34z" />
    <glyph glyph-name="ellipsis" unicode="&#x2026;" horiz-adv-x="1021" 
d="M168 231q47 0 81 -33.5t34 -80.5q0 -49 -33.5 -83t-81.5 -34t-82.5 34t-34.5 83q0 47 34.5 80.5t82.5 33.5zM512 231q47 0 81 -33.5t34 -80.5q0 -49 -33.5 -83t-81.5 -34t-82.5 34t-34.5 83q0 47 34.5 80.5t82.5 33.5zM856 231q47 0 81 -33.5t34 -80.5q0 -49 -33.5 -83
t-81.5 -34t-82.5 34t-34.5 83q0 47 34.5 80.5t82.5 33.5z" />
    <glyph glyph-name="perthousand" unicode="&#x2030;" horiz-adv-x="1839" 
d="M31 1135q0 123 80 211t202 88q99 0 187 -68q64 -50 137.5 -82.5t138.5 -32.5q161 0 275 162l12 21h43l-948 -1434h-43l884 1335q-102 -96 -223.5 -94t-249.5 92q70 -90 70 -198q0 -124 -83 -212.5t-200 -88.5q-122 0 -202 90t-80 211zM203 1135q0 -124 29.5 -205.5
t80.5 -81.5t81 82t30 205t-30 203.5t-81 80.5t-80.5 -80t-29.5 -204zM608 301q0 123 80.5 211t202.5 88q121 0 202 -89.5t81 -209.5q0 -124 -83 -212.5t-200 -88.5q-122 0 -202.5 90t-80.5 211zM1243 301q0 123 80.5 211t202.5 88q121 0 201.5 -89t80.5 -210
q0 -125 -82.5 -213t-199.5 -88q-122 0 -202.5 90t-80.5 211zM780 301q0 -124 30 -205.5t81 -81.5t80.5 82t29.5 205q0 124 -29.5 204.5t-80.5 80.5t-81 -80.5t-30 -204.5zM1415 301q0 -124 30 -205.5t81 -81.5t80.5 82t29.5 205q0 124 -29.5 204.5t-80.5 80.5t-81 -80.5
t-30 -204.5z" />
    <glyph glyph-name="guilsinglleft" unicode="&#x2039;" horiz-adv-x="591" 
d="M301 483l260 -483l-551 483l551 482z" />
    <glyph glyph-name="guilsinglright" unicode="&#x203a;" horiz-adv-x="591" 
d="M291 483l-260 482l551 -482l-551 -483z" />
    <glyph glyph-name="fraction" unicode="&#x2044;" horiz-adv-x="901" 
d="M852 1434l33 -19l-836 -1415l-33 18z" />
    <glyph glyph-name="Euro" unicode="&#x20ac;" horiz-adv-x="1484" 
d="M1206 346l228 2l-11 -18q-101 -157 -263 -243.5t-343 -86.5q-137 0 -263 50t-221 136.5t-157 207.5t-76 257h-161v21h159q-3 48 0 96h-159v23h161q14 131 70.5 246t141 197t194 135t226 68t241 -12t235.5 -98q112 -72 193 -182l2 -4l-234 2q-67 133 -167 207t-207 71
q-112 -4 -207 -87t-153.5 -226.5t-65.5 -316.5h419v-23h-421l2 -96h419v-21h-417q14 -162 74.5 -306t166 -237t230.5 -88q114 3 210.5 89.5t153.5 236.5z" />
    <glyph glyph-name="trademark" unicode="&#x2122;" horiz-adv-x="868" 
d="M66 1434h282l21 -115l-97 111h-28v-355l28 -33h-133l31 33v355h-29l-100 -111zM799 1401v-326l28 -33h-133l31 33v316l-104 -297v-52h-58l-135 330v-270l55 -60h-116l57 60v278l-27 54h84l137 -334l105 299l-29 35h133z" />
    <glyph glyph-name="arrowleft" unicode="&#x2190;" horiz-adv-x="1529" 
d="M1468 416v-43h-1331l496 -340l-4 -33l-609 393l609 395l4 -34l-496 -338h1331z" />
    <glyph glyph-name="arrowup" unicode="&#x2191;" horiz-adv-x="829" 
d="M436 0h-43v1331l-340 -495l-33 4l394 608l395 -608l-35 -4l-338 495v-1331z" />
    <glyph glyph-name="arrowright" unicode="&#x2192;" horiz-adv-x="1529" 
d="M61 416h1332l-496 338l4 34l608 -395l-608 -393l-4 33l496 340h-1332v43z" />
    <glyph glyph-name="arrowdown" unicode="&#x2193;" horiz-adv-x="829" 
d="M436 1444v-1331l338 495l35 -4l-395 -608l-394 608l33 4l340 -495v1331h43z" />
    <glyph glyph-name="arrowboth" unicode="&#x2194;" horiz-adv-x="1488" 
d="M1436 418l32 -23l-32 -22l-576 -373l-4 35l496 338h-1215l496 -338l-2 -35l-611 395l611 396l2 -35l-496 -338h1215l-496 338l4 35z" />
    <glyph glyph-name="arrowupdn" unicode="&#x2195;" horiz-adv-x="872" 
d="M436 0l-395 608l35 4l338 -495v1214l-338 -495l-35 4l395 608l395 -608l-34 -4l-338 495v-1214l338 495l34 -4z" />
    <glyph glyph-name="uni2196" unicode="&#x2196;" horiz-adv-x="1112" 
d="M1071 33l-33 -33l-940 942l111 -590l-27 -22l-151 710l710 -151l-22 -27l-590 111z" />
    <glyph glyph-name="uni2197" unicode="&#x2197;" horiz-adv-x="1112" 
d="M41 33l942 940l-590 -111l-22 27l710 151l-151 -710l-27 22l111 590l-940 -942z" />
    <glyph glyph-name="uni2198" unicode="&#x2198;" horiz-adv-x="1112" 
d="M41 1008l33 32l940 -942l-111 590l27 23l151 -711l-710 152l22 26l590 -110z" />
    <glyph glyph-name="uni2199" unicode="&#x2199;" horiz-adv-x="1112" 
d="M1071 1008l-942 -940l590 110l22 -26l-710 -152l151 711l27 -23l-111 -590l940 942z" />
    <glyph glyph-name="emptyset" unicode="&#x2205;" horiz-adv-x="1157" 
d="M1112 1034l-160 -160q148 -151 148 -362q0 -142 -69.5 -262t-189.5 -190t-263 -70q-213 0 -363 147l-158 -157l-16 16l158 158q-142 152 -142 358q0 141 69.5 261.5t189.5 190.5t262 70q207 0 358 -141l160 160zM281 741q0 -201 102 -403l375 377q-67 122 -152 198
t-160 76q-81 0 -123 -68.5t-42 -179.5zM874 283q0 199 -104 409l-377 -377q67 -124 153.5 -202t162.5 -78q81 0 123 68.5t42 179.5z" />
    <glyph glyph-name="minus" unicode="&#x2212;" horiz-adv-x="862" 
d="M61 553h740v-43h-740v43z" />
    <glyph glyph-name="approxequal" unicode="&#x2248;" horiz-adv-x="862" 
d="M756 729h45v-12q0 -74 -67.5 -127t-162.5 -53q-114 0 -180 69q-50 47 -129 47q-64 0 -110 -30.5t-46 -73.5v-12h-45v12q0 75 67.5 127.5t162.5 52.5q112 0 182 -70q45 -45 127 -45q65 0 110.5 30t45.5 73v12zM756 492v12h45v-12q0 -75 -67.5 -129t-162.5 -54
q-110 0 -180 70q-50 47 -129 47q-65 0 -110.5 -29.5t-45.5 -72.5v-15h-45v15q0 74 67.5 127t162.5 53q110 0 182 -72q48 -45 127 -45q63 0 108.5 31t47.5 74z" />
    <glyph glyph-name="notequal" unicode="&#x2260;" horiz-adv-x="841" 
d="M51 354v43h205l270 246h-475v43h522l109 98l27 -30l-74 -68h156v-43h-203l-271 -246h474v-43h-521l-108 -98l-29 31l74 67h-156z" />
    <glyph glyph-name="lessequal" unicode="&#x2264;" horiz-adv-x="880" 
d="M813 266l-762 256l762 256l6 -28l-569 -228l569 -227zM819 82h-768v43h768v-43z" />
    <glyph glyph-name="greaterequal" unicode="&#x2265;" horiz-adv-x="880" 
d="M57 266l-6 29l570 227l-570 228l6 28l762 -256zM51 82v43h768v-43h-768z" />
    <glyph glyph-name="B.ss01" horiz-adv-x="1282" 
d="M823 866q178 0 303 -127t125 -307q0 -181 -125 -309.5t-303 -128.5q-144 0 -261 94t-152 236v-324h-377l110 125v1184l-110 125h633q143 0 238 -87t95 -217q0 -55 -18 -99.5t-52 -75.5t-71 -52t-88 -41q36 4 53 4zM410 1415v-872q20 82 70 149.5t122 110.5
q133 85 133 262q0 151 -87 244.5t-238 105.5zM412 432q0 -89 35 -168t85.5 -128t103.5 -77t93 -28q70 0 127.5 64t87 155.5t29.5 181.5q0 89 -31.5 180.5t-89 155t-121.5 63.5q-40 0 -93 -28t-104.5 -76.5t-86.5 -127t-35 -167.5z" />
    <glyph glyph-name="G.ss01" horiz-adv-x="1552" 
d="M797 885l118 -33h596v-279l-256 123q119 -104 119 -280q0 -98 -54 -181.5t-139 -135t-185.5 -80.5t-198.5 -29q-196 0 -363 97.5t-264.5 264.5t-97.5 363q0 198 97.5 366t264.5 265.5t363 97.5q176 0 331.5 -79.5t257.5 -223.5h-356q-108 102 -225 157.5t-223 55.5
q-105 0 -166.5 -49.5t-61.5 -133.5q0 -76 45 -124q24 -27 63.5 -50t105 -45t104 -33t125.5 -34zM1358 416q0 112 -44 184.5t-153 138.5q-87 53 -368 129q-80 21 -126.5 34.5t-108.5 34.5t-103.5 45t-67.5 52q-51 57 -51 137q0 57 29 101q-117 -105 -117 -305q0 -149 68 -309
t174.5 -286t247 -208t276.5 -82q141 0 242.5 100.5t101.5 233.5z" />
    <glyph glyph-name="Gbreve.ss01" horiz-adv-x="1552" 
d="M952 1647q-80 -79 -192 -79t-191 79q-77 77 -77 190h79q29 -98 66 -143q31 -39 86.5 -62.5t116 -19t96.5 40.5q62 62 27 184h67q0 -112 -78 -190zM797 885l118 -33h596v-279l-256 123q119 -104 119 -280q0 -98 -54 -181.5t-139 -135t-185.5 -80.5t-198.5 -29
q-196 0 -363 97.5t-264.5 264.5t-97.5 363q0 198 97.5 366t264.5 265.5t363 97.5q176 0 331.5 -79.5t257.5 -223.5h-356q-108 102 -225 157.5t-223 55.5q-105 0 -166.5 -49.5t-61.5 -133.5q0 -76 45 -124q24 -27 63.5 -50t105 -45t104 -33t125.5 -34zM1358 416
q0 112 -44 184.5t-153 138.5q-87 53 -368 129q-80 21 -126.5 34.5t-108.5 34.5t-103.5 45t-67.5 52q-51 57 -51 137q0 57 29 101q-117 -105 -117 -305q0 -149 68 -309t174.5 -286t247 -208t276.5 -82q141 0 242.5 100.5t101.5 233.5z" />
    <glyph glyph-name="uni0122.ss01" horiz-adv-x="1552" 
d="M797 885l118 -33h596v-279l-256 123q119 -104 119 -280q0 -98 -54 -181.5t-139 -135t-185.5 -80.5t-198.5 -29q-196 0 -363 97.5t-264.5 264.5t-97.5 363q0 198 97.5 366t264.5 265.5t363 97.5q176 0 331.5 -79.5t257.5 -223.5h-356q-108 102 -225 157.5t-223 55.5
q-105 0 -166.5 -49.5t-61.5 -133.5q0 -76 45 -124q24 -27 63.5 -50t105 -45t104 -33t125.5 -34zM1358 416q0 112 -44 184.5t-153 138.5q-87 53 -368 129q-80 21 -126.5 34.5t-108.5 34.5t-103.5 45t-67.5 52q-51 57 -51 137q0 57 29 101q-117 -105 -117 -305q0 -149 68 -309
t174.5 -286t247 -208t276.5 -82q141 0 242.5 100.5t101.5 233.5zM811 -51q50 0 84.5 -36.5t34.5 -105.5q0 -80 -52.5 -155.5t-136.5 -93.5l-2 12q51 15 80 60.5t23 105.5q-62 -13 -102 18.5t-40 83.5q0 45 32 78t79 33z" />
    <glyph glyph-name="Gdotaccent.ss01" horiz-adv-x="1552" 
d="M780 1626q-36 0 -62 26t-26 62t26 62t62 26q37 0 62.5 -25.5t25.5 -62.5t-25.5 -62.5t-62.5 -25.5zM797 885l118 -33h596v-279l-256 123q119 -104 119 -280q0 -98 -54 -181.5t-139 -135t-185.5 -80.5t-198.5 -29q-196 0 -363 97.5t-264.5 264.5t-97.5 363q0 198 97.5 366
t264.5 265.5t363 97.5q176 0 331.5 -79.5t257.5 -223.5h-356q-108 102 -225 157.5t-223 55.5q-105 0 -166.5 -49.5t-61.5 -133.5q0 -76 45 -124q24 -27 63.5 -50t105 -45t104 -33t125.5 -34zM1358 416q0 112 -44 184.5t-153 138.5q-87 53 -368 129q-80 21 -126.5 34.5
t-108.5 34.5t-103.5 45t-67.5 52q-51 57 -51 137q0 57 29 101q-117 -105 -117 -305q0 -149 68 -309t174.5 -286t247 -208t276.5 -82q141 0 242.5 100.5t101.5 233.5z" />
    <glyph glyph-name="K.ss01" horiz-adv-x="1191" 
d="M1190 0h-463l82 88l-295 731l-104 -123v-569l110 -125h-487l110 125v1184l-110 125h487l-110 -125v-584l405 479l-78 230h430l-329 -236l-133 -156l391 -944z" />
    <glyph glyph-name="uni0136.ss01" horiz-adv-x="1191" 
d="M1190 0h-463l82 88l-295 731l-104 -123v-569l110 -125h-487l110 125v1184l-110 125h487l-110 -125v-584l405 479l-78 230h430l-329 -236l-133 -156l391 -944zM608 -51q50 0 84.5 -36.5t34.5 -105.5q0 -80 -52 -155.5t-136 -93.5l-2 12q51 15 79.5 60.5t22.5 105.5
q-62 -13 -101.5 18.5t-39.5 83.5q0 45 32 78t78 33z" />
    <glyph glyph-name="M.ss01" horiz-adv-x="1722" 
d="M1575 1311v-1188l115 -123h-494l113 121v885q-20 -105 -45 -187q-114 -402 -336 -631v-188h-209l-498 1214v-993l201 -221h-422l203 219v1036l-97 179h308l508 -1227q103 109 187 268t138 348q43 142 62 295v172l-119 144h500z" />
    <glyph glyph-name="Q.ss01" horiz-adv-x="1632" 
d="M72 717q0 197 98.5 364.5t266.5 265t364 97.5t364 -97.5t266.5 -265t98.5 -364.5q0 -142 -53 -271t-148 -229l70 -33l334 -184h-478l127 174l-65 31q-100 -101 -234 -158t-282 -57q-196 0 -364 97.5t-266.5 265t-98.5 364.5zM317 1108q-5 -21 -3.5 -51.5t5 -63t19 -73
t37.5 -80t60.5 -84t88.5 -86.5q192 -160 504 -308l264 -126q58 98 58 233q0 116 -42.5 243t-118 239.5t-170.5 204t-209.5 145t-225.5 53.5q-68 0 -129 -27q-48 -24 -87.5 -81.5t-50.5 -137.5zM252 965q0 -116 42.5 -243t118 -239.5t170.5 -204t209.5 -145t225.5 -53.5
q79 0 149.5 36t116.5 105l-264 127q-229 109 -377 210q-70 47 -131 97q-61 51 -105.5 107.5t-65.5 104t-33.5 95.5t-10.5 82.5t4 65.5q10 89 57 150l9 10q-115 -108 -115 -305z" />
    <glyph glyph-name="R.ss01" horiz-adv-x="1304" 
d="M1188 123l115 -123h-463l75 82l-180 500q-52 137 -112 137q-25 0 -80 -41q-124 -102 -133 -238v-315l110 -125h-487l110 125v1184l-110 125h690q141 0 236.5 -86t95.5 -215q0 -61 -22 -108.5t-82.5 -94t-99.5 -69.5t-141 -76l-51 -27q65 18 109 18q87 0 150 -44t90 -118z
M410 1417v-889q20 59 66 109.5t130 105.5q55 36 93 87.5t55 107t23.5 100t6.5 88.5q0 37 -6 71.5t-27 76t-55 72t-95 51t-142 20.5h-49z" />
    <glyph glyph-name="Racute.ss01" horiz-adv-x="1304" 
d="M825 1667l-542 -106l-9 10l467 258zM1188 123l115 -123h-463l75 82l-180 500q-52 137 -112 137q-25 0 -80 -41q-124 -102 -133 -238v-315l110 -125h-487l110 125v1184l-110 125h690q141 0 236.5 -86t95.5 -215q0 -61 -22 -108.5t-82.5 -94t-99.5 -69.5t-141 -76l-51 -27
q65 18 109 18q87 0 150 -44t90 -118zM410 1417v-889q20 59 66 109.5t130 105.5q55 36 93 87.5t55 107t23.5 100t6.5 88.5q0 37 -6 71.5t-27 76t-55 72t-95 51t-142 20.5h-49z" />
    <glyph glyph-name="Rcaron.ss01" horiz-adv-x="1304" 
d="M561 1739l313 108l5 -16l-318 -260l-315 260l2 16zM1188 123l115 -123h-463l75 82l-180 500q-52 137 -112 137q-25 0 -80 -41q-124 -102 -133 -238v-315l110 -125h-487l110 125v1184l-110 125h690q141 0 236.5 -86t95.5 -215q0 -61 -22 -108.5t-82.5 -94t-99.5 -69.5
t-141 -76l-51 -27q65 18 109 18q87 0 150 -44t90 -118zM410 1417v-889q20 59 66 109.5t130 105.5q55 36 93 87.5t55 107t23.5 100t6.5 88.5q0 37 -6 71.5t-27 76t-55 72t-95 51t-142 20.5h-49z" />
    <glyph glyph-name="uni0156.ss01" horiz-adv-x="1304" 
d="M1188 123l115 -123h-463l75 82l-180 500q-52 137 -112 137q-25 0 -80 -41q-124 -102 -133 -238v-315l110 -125h-487l110 125v1184l-110 125h690q141 0 236.5 -86t95.5 -215q0 -61 -22 -108.5t-82.5 -94t-99.5 -69.5t-141 -76l-51 -27q65 18 109 18q87 0 150 -44t90 -118z
M410 1417v-889q20 59 66 109.5t130 105.5q55 36 93 87.5t55 107t23.5 100t6.5 88.5q0 37 -6 71.5t-27 76t-55 72t-95 51t-142 20.5h-49zM674 -51q50 0 84.5 -36.5t34.5 -105.5q0 -80 -52.5 -155.5t-136.5 -93.5l-2 12q51 15 80 60.5t23 105.5q-62 -13 -102 18.5t-40 83.5
q0 45 32 78t79 33z" />
    <glyph glyph-name="W.ss01" horiz-adv-x="1894" 
d="M1675 1225l-188 209h420l-199 -217l-264 -1063v-154h-238l-225 860q-258 -293 -279 -721v-139h-237l-346 1309l-111 125h498l-111 -125l295 -1106q38 400 285 678l-111 428l-110 125h497l-112 -125l61 -238q231 148 475 154zM1686 1208q-250 -3 -482 -153l230 -860z" />
    <glyph glyph-name="Wacute.ss01" horiz-adv-x="1894" 
d="M1278 1667l-543 -106l-8 10l467 258zM1675 1225l-188 209h420l-199 -217l-264 -1063v-154h-238l-225 860q-258 -293 -279 -721v-139h-237l-346 1309l-111 125h498l-111 -125l295 -1106q38 400 285 678l-111 428l-110 125h497l-112 -125l61 -238q231 148 475 154z
M1686 1208q-250 -3 -482 -153l230 -860z" />
    <glyph glyph-name="Wcircumflex.ss01" horiz-adv-x="1894" 
d="M995 1673l-313 -108l-2 16l315 260l318 -260l-4 -16zM1675 1225l-188 209h420l-199 -217l-264 -1063v-154h-238l-225 860q-258 -293 -279 -721v-139h-237l-346 1309l-111 125h498l-111 -125l295 -1106q38 400 285 678l-111 428l-110 125h497l-112 -125l61 -238
q231 148 475 154zM1686 1208q-250 -3 -482 -153l230 -860z" />
    <glyph glyph-name="Wdieresis.ss01" horiz-adv-x="1894" 
d="M856 1626q-36 0 -62 26t-26 62t26 62t62 26q37 0 62.5 -25.5t25.5 -62.5t-25.5 -62.5t-62.5 -25.5zM1143 1626q-37 0 -62.5 25.5t-25.5 62.5t25.5 62.5t62.5 25.5t62.5 -25.5t25.5 -62.5t-25.5 -62.5t-62.5 -25.5zM1675 1225l-188 209h420l-199 -217l-264 -1063v-154
h-238l-225 860q-258 -293 -279 -721v-139h-237l-346 1309l-111 125h498l-111 -125l295 -1106q38 400 285 678l-111 428l-110 125h497l-112 -125l61 -238q231 148 475 154zM1686 1208q-250 -3 -482 -153l230 -860z" />
    <glyph glyph-name="Wgrave.ss01" horiz-adv-x="1894" 
d="M731 1667l543 -108l6 10l-465 260zM1675 1225l-188 209h420l-199 -217l-264 -1063v-154h-238l-225 860q-258 -293 -279 -721v-139h-237l-346 1309l-111 125h498l-111 -125l295 -1106q38 400 285 678l-111 428l-110 125h497l-112 -125l61 -238q231 148 475 154zM1686 1208
q-250 -3 -482 -153l230 -860z" />
    <glyph glyph-name="Y.ss01" horiz-adv-x="1216" 
d="M809 1434h420l-199 -217l-287 -705v-389l113 -123h-494l115 123v348l-344 838v2l-127 123h502l-102 -111l329 -788l275 675z" />
    <glyph glyph-name="Yacute.ss01" horiz-adv-x="1216" 
d="M942 1667l-543 -106l-8 10l467 258zM809 1434h420l-199 -217l-287 -705v-389l113 -123h-494l115 123v348l-344 838v2l-127 123h502l-102 -111l329 -788l275 675z" />
    <glyph glyph-name="Ycircumflex.ss01" horiz-adv-x="1216" 
d="M662 1673l-314 -108l-2 16l316 260l317 -260l-4 -16zM809 1434h420l-199 -217l-287 -705v-389l113 -123h-494l115 123v348l-344 838v2l-127 123h502l-102 -111l329 -788l275 675z" />
    <glyph glyph-name="Ydieresis.ss01" horiz-adv-x="1216" 
d="M524 1626q-36 0 -62 26t-26 62t26 62t62 26q37 0 62.5 -25.5t25.5 -62.5t-25.5 -62.5t-62.5 -25.5zM811 1626q-37 0 -62.5 25.5t-25.5 62.5t25.5 62.5t62.5 25.5t62.5 -25.5t25.5 -62.5t-25.5 -62.5t-62.5 -25.5zM809 1434h420l-199 -217l-287 -705v-389l113 -123h-494
l115 123v348l-344 838v2l-127 123h502l-102 -111l329 -788l275 675z" />
    <glyph glyph-name="Ygrave.ss01" horiz-adv-x="1216" 
d="M387 1667l543 -108l6 10l-465 260zM809 1434h420l-199 -217l-287 -705v-389l113 -123h-494l115 123v348l-344 838v2l-127 123h502l-102 -111l329 -788l275 675z" />
    <glyph glyph-name="uni1EF8.ss01" horiz-adv-x="1216" 
d="M446 1585q0 65 42.5 117.5t99.5 52.5q37 0 65.5 -18.5t44 -40t37.5 -40t47 -18.5q40 0 66 29.5t26 71.5h15q0 -65 -42 -117.5t-99 -52.5q-37 0 -66 18.5t-44 40t-37.5 40t-47.5 18.5q-40 0 -66 -29.5t-26 -71.5h-15zM809 1434h420l-199 -217l-287 -705v-389l113 -123
h-494l115 123v348l-344 838v2l-127 123h502l-102 -111l329 -788l275 675z" />
    <glyph glyph-name="K.ss02" horiz-adv-x="1337" 
d="M1221 123l114 -123h-463l76 82l-194 534q-29 78 -69 123t-103 45q-86 0 -172 -86v-573l110 -125h-487l110 125v1184l-110 125h487l-110 -125v-580l358 477l-10 228h413l-389 -240l-329 -438q131 96 270 96q105 0 190 -65.5t127 -172.5z" />
    <glyph glyph-name="uni0136.ss02" horiz-adv-x="1337" 
d="M1221 123l114 -123h-463l76 82l-194 534q-29 78 -69 123t-103 45q-86 0 -172 -86v-573l110 -125h-487l110 125v1184l-110 125h487l-110 -125v-580l358 477l-10 228h413l-389 -240l-329 -438q131 96 270 96q105 0 190 -65.5t127 -172.5zM688 -51q50 0 84.5 -36.5
t34.5 -105.5q0 -80 -52.5 -155.5t-136.5 -93.5l-2 12q51 15 80 60.5t23 105.5q-62 -13 -101.5 18.5t-39.5 83.5q0 45 32 78t78 33z" />
    <glyph glyph-name="M.ss02" horiz-adv-x="1720" 
d="M1573 1311v-1188l115 -123h-406q-109 0 -201 46.5t-153 129.5v-176h-211v2l-496 1212v-993l201 -221h-422l203 219v1036l-94 179h303l446 -1076q-9 199 174 410q150 172 210 288t65 234l-117 144h498zM1044 756q-167 -188 -170 -371q0 -137 107 -244q123 -123 301 -123
h25v1153q-28 -102 -94 -199.5t-169 -215.5z" />
    <glyph glyph-name="W.ss02" horiz-adv-x="1900" 
d="M1692 1212l-201 222h422l-201 -217l-264 -1063v-154h-238v2l-194 743q-108 -50 -177.5 -104.5t-111 -126t-44.5 -158t22 -200.5l2 -2v-154h-238l-346 1311l-115 123h506l-115 -123l267 -1004q-2 75 17.5 139t50.5 109.5t79 86t94 67t105 53.5l-144 549l-112 123h504
l-117 -129l117 -441q66 26 112 46t100.5 50.5t91.5 61t69.5 72.5t49.5 90zM1264 846l174 -651l227 911q-55 -85 -152.5 -142.5t-248.5 -117.5z" />
    <glyph glyph-name="Wacute.ss02" horiz-adv-x="1900" 
d="M1278 1667l-543 -106l-8 10l467 258zM1692 1212l-201 222h422l-201 -217l-264 -1063v-154h-238v2l-194 743q-108 -50 -177.5 -104.5t-111 -126t-44.5 -158t22 -200.5l2 -2v-154h-238l-346 1311l-115 123h506l-115 -123l267 -1004q-2 75 17.5 139t50.5 109.5t79 86t94 67
t105 53.5l-144 549l-112 123h504l-117 -129l117 -441q66 26 112 46t100.5 50.5t91.5 61t69.5 72.5t49.5 90zM1264 846l174 -651l227 911q-55 -85 -152.5 -142.5t-248.5 -117.5z" />
    <glyph glyph-name="Wcircumflex.ss02" horiz-adv-x="1900" 
d="M995 1673l-313 -108l-2 16l315 260l318 -260l-4 -16zM1692 1212l-201 222h422l-201 -217l-264 -1063v-154h-238v2l-194 743q-108 -50 -177.5 -104.5t-111 -126t-44.5 -158t22 -200.5l2 -2v-154h-238l-346 1311l-115 123h506l-115 -123l267 -1004q-2 75 17.5 139
t50.5 109.5t79 86t94 67t105 53.5l-144 549l-112 123h504l-117 -129l117 -441q66 26 112 46t100.5 50.5t91.5 61t69.5 72.5t49.5 90zM1264 846l174 -651l227 911q-55 -85 -152.5 -142.5t-248.5 -117.5z" />
    <glyph glyph-name="Wdieresis.ss02" horiz-adv-x="1900" 
d="M856 1626q-36 0 -62 26t-26 62t26 62t62 26q37 0 62.5 -25.5t25.5 -62.5t-25.5 -62.5t-62.5 -25.5zM1143 1626q-37 0 -62.5 25.5t-25.5 62.5t25.5 62.5t62.5 25.5t62.5 -25.5t25.5 -62.5t-25.5 -62.5t-62.5 -25.5zM1692 1212l-201 222h422l-201 -217l-264 -1063v-154
h-238v2l-194 743q-108 -50 -177.5 -104.5t-111 -126t-44.5 -158t22 -200.5l2 -2v-154h-238l-346 1311l-115 123h506l-115 -123l267 -1004q-2 75 17.5 139t50.5 109.5t79 86t94 67t105 53.5l-144 549l-112 123h504l-117 -129l117 -441q66 26 112 46t100.5 50.5t91.5 61
t69.5 72.5t49.5 90zM1264 846l174 -651l227 911q-55 -85 -152.5 -142.5t-248.5 -117.5z" />
    <glyph glyph-name="Wgrave.ss02" horiz-adv-x="1900" 
d="M731 1667l543 -108l6 10l-465 260zM1692 1212l-201 222h422l-201 -217l-264 -1063v-154h-238v2l-194 743q-108 -50 -177.5 -104.5t-111 -126t-44.5 -158t22 -200.5l2 -2v-154h-238l-346 1311l-115 123h506l-115 -123l267 -1004q-2 75 17.5 139t50.5 109.5t79 86t94 67
t105 53.5l-144 549l-112 123h504l-117 -129l117 -441q66 26 112 46t100.5 50.5t91.5 61t69.5 72.5t49.5 90zM1264 846l174 -651l227 911q-55 -85 -152.5 -142.5t-248.5 -117.5z" />
    <glyph glyph-name="Y.ss02" horiz-adv-x="1247" 
d="M1040 1210l-200 224h420l-201 -220q-27 -600 -420 -946l94 -268h-583l479 281l63 61h-268l-309 967l-109 125h496l-111 -125l307 -961q318 330 342 862z" />
    <glyph glyph-name="Yacute.ss02" horiz-adv-x="1247" 
d="M963 1667l-543 -106l-8 10l467 258zM1040 1210l-200 224h420l-201 -220q-27 -600 -420 -946l94 -268h-583l479 281l63 61h-268l-309 967l-109 125h496l-111 -125l307 -961q318 330 342 862z" />
    <glyph glyph-name="Ycircumflex.ss02" horiz-adv-x="1247" 
d="M682 1673l-313 -108l-2 16l315 260l317 -260l-4 -16zM1040 1210l-200 224h420l-201 -220q-27 -600 -420 -946l94 -268h-583l479 281l63 61h-268l-309 967l-109 125h496l-111 -125l307 -961q318 330 342 862z" />
    <glyph glyph-name="Ydieresis.ss02" horiz-adv-x="1247" 
d="M539 1626q-36 0 -62 26t-26 62t26 62t62 26q37 0 62.5 -25.5t25.5 -62.5t-25.5 -62.5t-62.5 -25.5zM825 1626q-37 0 -62.5 25.5t-25.5 62.5t25.5 62.5t62.5 25.5t62.5 -25.5t25.5 -62.5t-25.5 -62.5t-62.5 -25.5zM1040 1210l-200 224h420l-201 -220q-27 -600 -420 -946
l94 -268h-583l479 281l63 61h-268l-309 967l-109 125h496l-111 -125l307 -961q318 330 342 862z" />
    <glyph glyph-name="Ygrave.ss02" horiz-adv-x="1247" 
d="M408 1667l542 -108l6 10l-464 260zM1040 1210l-200 224h420l-201 -220q-27 -600 -420 -946l94 -268h-583l479 281l63 61h-268l-309 967l-109 125h496l-111 -125l307 -961q318 330 342 862z" />
    <glyph glyph-name="uni1EF8.ss02" horiz-adv-x="1247" 
d="M467 1585q0 65 42 117.5t99 52.5q37 0 66 -18.5t44 -40t37.5 -40t47.5 -18.5q40 0 66 29.5t26 71.5h14q0 -65 -42 -117.5t-99 -52.5q-37 0 -66 18.5t-44 40t-37.5 40t-47.5 18.5q-40 0 -66 -29.5t-26 -71.5h-14zM1040 1210l-200 224h420l-201 -220q-27 -600 -420 -946
l94 -268h-583l479 281l63 61h-268l-309 967l-109 125h496l-111 -125l307 -961q318 330 342 862z" />
    <glyph glyph-name="i.loclTRK" horiz-adv-x="528" 
d="M258 1182q-36 0 -62 26t-26 62t26 62t62 26q37 0 62.5 -25.5t25.5 -62.5t-25.5 -62.5t-62.5 -25.5zM25 0l110 125v702l-110 74l376 123v-899l111 -125h-487z" />
    <glyph glyph-name="a.ss01" horiz-adv-x="1097" 
d="M1083 0h-374v250q-45 -129 -134 -192.5t-200 -63.5q-141 0 -240.5 105.5t-99.5 252.5q0 145 102 247.5t246 105.5q49 1 86.5 -4.5t64 -19.5t40 -24t34.5 -30q-10 15 -17.5 25.5t-38.5 40t-64 48.5t-89.5 35.5t-119.5 16.5h-146v8q26 7 51 15t49 19t41 19t41.5 22t34.5 20
t35.5 22.5t30.5 19.5q52 33 84.5 50t83.5 31.5t106 14.5q139 0 212 -71.5t73 -208.5v-629zM444 778q57 -22 104 -60t77.5 -85t50.5 -92.5t33 -94.5v435q0 75 -14 106t-48 31q-48 0 -93 -40t-72 -93.5t-38 -106.5zM580 121q52 17 85.5 70.5t38.5 123t-18 148.5
q-35 114 -117.5 177t-162.5 38q-81 -26 -113 -124t4 -212q37 -118 119 -182t164 -39z" />
    <glyph glyph-name="aacute.ss01" horiz-adv-x="1097" 
d="M881 1272l-543 -107l-8 11l467 258zM1083 0h-374v250q-45 -129 -134 -192.5t-200 -63.5q-141 0 -240.5 105.5t-99.5 252.5q0 145 102 247.5t246 105.5q49 1 86.5 -4.5t64 -19.5t40 -24t34.5 -30q-10 15 -17.5 25.5t-38.5 40t-64 48.5t-89.5 35.5t-119.5 16.5h-146v8
q26 7 51 15t49 19t41 19t41.5 22t34.5 20t35.5 22.5t30.5 19.5q52 33 84.5 50t83.5 31.5t106 14.5q139 0 212 -71.5t73 -208.5v-629zM444 778q57 -22 104 -60t77.5 -85t50.5 -92.5t33 -94.5v435q0 75 -14 106t-48 31q-48 0 -93 -40t-72 -93.5t-38 -106.5zM580 121
q52 17 85.5 70.5t38.5 123t-18 148.5q-35 114 -117.5 177t-162.5 38q-81 -26 -113 -124t4 -212q37 -118 119 -182t164 -39z" />
    <glyph glyph-name="abreve.ss01" horiz-adv-x="1097" 
d="M836 1243q-80 -79 -192 -79t-191 79q-78 78 -78 191h80q30 -102 65 -144q31 -39 86.5 -62.5t116 -19t96.5 40.5q62 62 27 185h67q0 -114 -77 -191zM1083 0h-374v250q-45 -129 -134 -192.5t-200 -63.5q-141 0 -240.5 105.5t-99.5 252.5q0 145 102 247.5t246 105.5
q49 1 86.5 -4.5t64 -19.5t40 -24t34.5 -30q-10 15 -17.5 25.5t-38.5 40t-64 48.5t-89.5 35.5t-119.5 16.5h-146v8q26 7 51 15t49 19t41 19t41.5 22t34.5 20t35.5 22.5t30.5 19.5q52 33 84.5 50t83.5 31.5t106 14.5q139 0 212 -71.5t73 -208.5v-629zM444 778q57 -22 104 -60
t77.5 -85t50.5 -92.5t33 -94.5v435q0 75 -14 106t-48 31q-48 0 -93 -40t-72 -93.5t-38 -106.5zM580 121q52 17 85.5 70.5t38.5 123t-18 148.5q-35 114 -117.5 177t-162.5 38q-81 -26 -113 -124t4 -212q37 -118 119 -182t164 -39z" />
    <glyph glyph-name="uni01CE.ss01" horiz-adv-x="1097" 
d="M649 1325l314 109l4 -17l-318 -260l-315 260l2 17zM1083 0h-374v250q-45 -129 -134 -192.5t-200 -63.5q-141 0 -240.5 105.5t-99.5 252.5q0 145 102 247.5t246 105.5q49 1 86.5 -4.5t64 -19.5t40 -24t34.5 -30q-10 15 -17.5 25.5t-38.5 40t-64 48.5t-89.5 35.5
t-119.5 16.5h-146v8q26 7 51 15t49 19t41 19t41.5 22t34.5 20t35.5 22.5t30.5 19.5q52 33 84.5 50t83.5 31.5t106 14.5q139 0 212 -71.5t73 -208.5v-629zM444 778q57 -22 104 -60t77.5 -85t50.5 -92.5t33 -94.5v435q0 75 -14 106t-48 31q-48 0 -93 -40t-72 -93.5t-38 -106.5
zM580 121q52 17 85.5 70.5t38.5 123t-18 148.5q-35 114 -117.5 177t-162.5 38q-81 -26 -113 -124t4 -212q37 -118 119 -182t164 -39z" />
    <glyph glyph-name="acircumflex.ss01" horiz-adv-x="1097" 
d="M492 1182q-36 0 -62.5 26t-26.5 62t26.5 62t62.5 26q37 0 62.5 -25.5t25.5 -62.5t-25.5 -62.5t-62.5 -25.5zM778 1182q-37 0 -62.5 25.5t-25.5 62.5t25.5 62.5t62.5 25.5t62.5 -25.5t25.5 -62.5t-25.5 -62.5t-62.5 -25.5zM1083 0h-374v250q-45 -129 -134 -192.5
t-200 -63.5q-141 0 -240.5 105.5t-99.5 252.5q0 145 102 247.5t246 105.5q49 1 86.5 -4.5t64 -19.5t40 -24t34.5 -30q-10 15 -17.5 25.5t-38.5 40t-64 48.5t-89.5 35.5t-119.5 16.5h-146v8q26 7 51 15t49 19t41 19t41.5 22t34.5 20t35.5 22.5t30.5 19.5q52 33 84.5 50
t83.5 31.5t106 14.5q139 0 212 -71.5t73 -208.5v-629zM444 778q57 -22 104 -60t77.5 -85t50.5 -92.5t33 -94.5v435q0 75 -14 106t-48 31q-48 0 -93 -40t-72 -93.5t-38 -106.5zM580 121q52 17 85.5 70.5t38.5 123t-18 148.5q-35 114 -117.5 177t-162.5 38q-81 -26 -113 -124
t4 -212q37 -118 119 -182t164 -39z" />
    <glyph glyph-name="adieresis.ss01" horiz-adv-x="1097" 
d="M639 1266l-313 -109l-2 17l315 260l317 -260l-4 -17zM1083 0h-374v250q-45 -129 -134 -192.5t-200 -63.5q-141 0 -240.5 105.5t-99.5 252.5q0 145 102 247.5t246 105.5q49 1 86.5 -4.5t64 -19.5t40 -24t34.5 -30q-10 15 -17.5 25.5t-38.5 40t-64 48.5t-89.5 35.5
t-119.5 16.5h-146v8q26 7 51 15t49 19t41 19t41.5 22t34.5 20t35.5 22.5t30.5 19.5q52 33 84.5 50t83.5 31.5t106 14.5q139 0 212 -71.5t73 -208.5v-629zM444 778q57 -22 104 -60t77.5 -85t50.5 -92.5t33 -94.5v435q0 75 -14 106t-48 31q-48 0 -93 -40t-72 -93.5t-38 -106.5
zM580 121q52 17 85.5 70.5t38.5 123t-18 148.5q-35 114 -117.5 177t-162.5 38q-81 -26 -113 -124t4 -212q37 -118 119 -182t164 -39z" />
    <glyph glyph-name="agrave.ss01" horiz-adv-x="1097" 
d="M381 1272l543 -109l6 11l-465 260zM1083 0h-374v250q-45 -129 -134 -192.5t-200 -63.5q-141 0 -240.5 105.5t-99.5 252.5q0 145 102 247.5t246 105.5q49 1 86.5 -4.5t64 -19.5t40 -24t34.5 -30q-10 15 -17.5 25.5t-38.5 40t-64 48.5t-89.5 35.5t-119.5 16.5h-146v8
q26 7 51 15t49 19t41 19t41.5 22t34.5 20t35.5 22.5t30.5 19.5q52 33 84.5 50t83.5 31.5t106 14.5q139 0 212 -71.5t73 -208.5v-629zM444 778q57 -22 104 -60t77.5 -85t50.5 -92.5t33 -94.5v435q0 75 -14 106t-48 31q-48 0 -93 -40t-72 -93.5t-38 -106.5zM580 121
q52 17 85.5 70.5t38.5 123t-18 148.5q-35 114 -117.5 177t-162.5 38q-81 -26 -113 -124t4 -212q37 -118 119 -182t164 -39z" />
    <glyph glyph-name="amacron.ss01" horiz-adv-x="1097" 
d="M891 1249v-20h-475v20h475zM1083 0h-374v250q-45 -129 -134 -192.5t-200 -63.5q-141 0 -240.5 105.5t-99.5 252.5q0 145 102 247.5t246 105.5q49 1 86.5 -4.5t64 -19.5t40 -24t34.5 -30q-10 15 -17.5 25.5t-38.5 40t-64 48.5t-89.5 35.5t-119.5 16.5h-146v8q26 7 51 15
t49 19t41 19t41.5 22t34.5 20t35.5 22.5t30.5 19.5q52 33 84.5 50t83.5 31.5t106 14.5q139 0 212 -71.5t73 -208.5v-629zM444 778q57 -22 104 -60t77.5 -85t50.5 -92.5t33 -94.5v435q0 75 -14 106t-48 31q-48 0 -93 -40t-72 -93.5t-38 -106.5zM580 121q52 17 85.5 70.5
t38.5 123t-18 148.5q-35 114 -117.5 177t-162.5 38q-81 -26 -113 -124t4 -212q37 -118 119 -182t164 -39z" />
    <glyph glyph-name="aogonek.ss01" horiz-adv-x="1097" 
d="M971 -260q34 0 61 27h27q-14 -57 -55 -87t-93 -30q-70 0 -115.5 47.5t-45.5 112.5q0 51 28.5 101.5t79.5 88.5h-149v250q-45 -129 -134 -192.5t-200 -63.5q-141 0 -240.5 105.5t-99.5 252.5q0 145 102 247.5t246 105.5q49 1 86.5 -4.5t64 -19.5t40 -24t34.5 -30
q-10 15 -17.5 25.5t-38.5 40t-64 48.5t-89.5 35.5t-119.5 16.5h-146v8q26 7 51 15t49 19t41 19t41.5 22t34.5 20t35.5 22.5t30.5 19.5q52 33 84.5 50t83.5 31.5t106 14.5q139 0 212 -71.5t73 -208.5v-629l108 -125h-200q-23 -44 -23 -98q0 -67 32.5 -114.5t78.5 -47.5z
M709 446v435q0 75 -14 106t-48 31q-48 0 -93 -40t-72 -93.5t-38 -106.5q57 -22 104 -60t77.5 -85t50.5 -92.5t33 -94.5zM580 121q52 17 85.5 70.5t38.5 123t-18 148.5q-35 114 -117.5 177t-162.5 38q-81 -26 -113 -124t4 -212q37 -118 119 -182t164 -39z" />
    <glyph glyph-name="aring.ss01" horiz-adv-x="1097" 
d="M735 1167q-51 -20 -101.5 1.5t-70.5 72.5q-22 51 -0.5 101.5t72.5 70.5q53 21 102.5 0t71.5 -72q20 -51 -1.5 -101.5t-72.5 -72.5zM639 1405q-41 -15 4 -129q23 -53 44.5 -80.5t43.5 -17.5q44 16 -4 129q-21 53 -43 80.5t-45 17.5zM1083 0h-374v250q-45 -129 -134 -192.5
t-200 -63.5q-141 0 -240.5 105.5t-99.5 252.5q0 145 102 247.5t246 105.5q49 1 86.5 -4.5t64 -19.5t40 -24t34.5 -30q-10 15 -17.5 25.5t-38.5 40t-64 48.5t-89.5 35.5t-119.5 16.5h-146v8q26 7 51 15t49 19t41 19t41.5 22t34.5 20t35.5 22.5t30.5 19.5q52 33 84.5 50
t83.5 31.5t106 14.5q139 0 212 -71.5t73 -208.5v-629zM444 778q57 -22 104 -60t77.5 -85t50.5 -92.5t33 -94.5v435q0 75 -14 106t-48 31q-48 0 -93 -40t-72 -93.5t-38 -106.5zM580 121q52 17 85.5 70.5t38.5 123t-18 148.5q-35 114 -117.5 177t-162.5 38q-81 -26 -113 -124
t4 -212q37 -118 119 -182t164 -39z" />
    <glyph glyph-name="atilde.ss01" horiz-adv-x="1097" 
d="M436 1190q0 65 42.5 117.5t99.5 52.5q37 0 65.5 -18.5t44 -40t37.5 -40t47 -18.5q40 0 66 29t26 71h15q0 -65 -42.5 -117t-99.5 -52q-37 0 -65.5 18t-44 40t-37.5 40t-47 18q-40 0 -66 -29t-26 -71h-15zM1083 0h-374v250q-45 -129 -134 -192.5t-200 -63.5
q-141 0 -240.5 105.5t-99.5 252.5q0 145 102 247.5t246 105.5q49 1 86.5 -4.5t64 -19.5t40 -24t34.5 -30q-10 15 -17.5 25.5t-38.5 40t-64 48.5t-89.5 35.5t-119.5 16.5h-146v8q26 7 51 15t49 19t41 19t41.5 22t34.5 20t35.5 22.5t30.5 19.5q52 33 84.5 50t83.5 31.5
t106 14.5q139 0 212 -71.5t73 -208.5v-629zM444 778q57 -22 104 -60t77.5 -85t50.5 -92.5t33 -94.5v435q0 75 -14 106t-48 31q-48 0 -93 -40t-72 -93.5t-38 -106.5zM580 121q52 17 85.5 70.5t38.5 123t-18 148.5q-35 114 -117.5 177t-162.5 38q-81 -26 -113 -124t4 -212
q37 -118 119 -182t164 -39z" />
    <glyph glyph-name="ae.ss01" horiz-adv-x="1820" 
d="M35 371q0 146 102 243t244 97q96 0 194 -64q-91 87 -161 117q-40 17 -86 21.5t-178 6.5q-37 1 -58 1v14q143 40 289 133q84 51 140.5 72.5t117.5 21.5q206 0 295 -127q146 127 342 127q134 0 251.5 -64t190.5 -179h-397q209 -36 327.5 -144t118.5 -272
q0 -74 -32.5 -142.5t-92 -123t-152.5 -87t-206 -32.5q-147 0 -268 68t-191 184q-16 -40 -48 -80.5t-82 -81t-126.5 -65.5t-165.5 -25q-150 0 -259 112.5t-109 268.5zM403 786q124 -46 256 -206l50 -62v336q0 158 -97 158q-69 0 -128.5 -71.5t-80.5 -154.5zM983 807h424
q-25 82 -89 136t-142 54q-85 0 -133.5 -49t-59.5 -141zM981 791q-11 -123 20.5 -246t93.5 -219t157 -156.5t202 -60.5q123 0 206 89.5t83 209.5q0 113 -82.5 202t-213 135t-280.5 46h-186zM254 518q0 -89 51.5 -200.5t130 -192t146.5 -80.5q48 0 78 45.5t39.5 102t9.5 122.5
v172q-60 90 -142 146.5t-159 56.5q-72 0 -113 -46t-41 -126z" />
    <glyph glyph-name="f.ss01" horiz-adv-x="737" 
d="M881 1300q0 -60 -62.5 -120.5t-152.5 -101t-179 -54.5h312v-16h-406v-883l111 -125h-488l111 125v883h-92v16h92q0 85 33.5 153t87.5 112t127 73.5t147.5 42t153.5 12.5q92 0 148.5 -28t56.5 -89zM655 1282q0 51 -26.5 82t-67.5 31q-42 0 -75.5 -33t-53 -87t-29.5 -118.5
t-10 -132.5q95 0 178.5 88.5t83.5 169.5z" />
    <glyph glyph-name="h.ss01" horiz-adv-x="1114" 
d="M993 737v-612l111 -125h-488l111 125v610q0 77 -52 132t-120 55q-88 0 -162 -80v-717l111 -125h-488l111 125v1075l-111 74l377 139v-547q161 164 328 164q120 0 196 -84t76 -209z" />
    <glyph glyph-name="hbar.ss01" horiz-adv-x="1114" 
d="M616 0l111 125v610q0 77 -52 132t-120 55q-88 0 -162 -80v-717l111 -125h-488l111 125v954h-150v17h150v104l-111 74l377 139v-317h154v-17h-154v-213q161 164 328 164q120 0 196 -84t76 -209v-612l111 -125h-488z" />
    <glyph glyph-name="j.ss01" horiz-adv-x="520" 
d="M113 1257q0 63 44 108.5t107 45.5t107.5 -45.5t44.5 -108.5t-44.5 -108t-107.5 -45t-107 45t-44 108zM-188 -195q-14 41 -3.5 82t41.5 64q26 20 53 28t57.5 2.5t50 -12.5t55.5 -22q55 -24 57 -25q4 40 4 109v798l-111 72l377 123v-885q0 -112 -18 -192t-59.5 -139.5
t-112.5 -89.5t-174 -33q-175 0 -217 120zM-172 -190q14 -47 61.5 -76t90.5 -29q61 0 94 48t47 153q-19 5 -62 24q-36 16 -53.5 22t-46 12t-51.5 -0.5t-47 -24.5q-26 -20 -35.5 -56t2.5 -73z" />
    <glyph glyph-name="k.ss01" horiz-adv-x="1107" 
d="M920 330l63 -203l123 -127h-473l86 90l-90 318q-15 53 -48.5 82.5t-76.5 29.5q-51 0 -81 -39.5t-30 -89.5v-266l111 -125h-488l111 125v1089l-111 74l377 125v-508q92 125 234 125q98 0 170.5 -60.5t72.5 -150.5q0 -37 -15 -68.5t-34.5 -52t-57 -41t-63.5 -31t-73 -28.5
q-99 -37 -146 -66q79 31 152 31q104 0 179 -63.5t108 -169.5zM393 459q15 31 42 63.5t53.5 59t51.5 55t40.5 63t15.5 72.5q0 62 -34.5 101.5t-84.5 39.5q-47 0 -84 -34v-420z" />
    <glyph glyph-name="t.ss01" horiz-adv-x="591" 
d="M575 14v-8q-38 -14 -77 -14q-371 0 -371 401v615h-127l393 266v-250h180v-16h-180v-711q0 -138 42.5 -213.5t139.5 -69.5z" />
    <glyph glyph-name="tbar.ss01" horiz-adv-x="591" 
d="M393 297q0 -138 42.5 -213.5t139.5 -69.5v-8q-38 -14 -77 -14q-371 0 -371 401v422h-125v16h125v177h-127l393 266v-250h180v-16h-180v-177h176v-16h-176v-518z" />
    <glyph glyph-name="tcaron.ss01" horiz-adv-x="591" 
d="M582 1434h147l-72 -433h-4zM575 14v-8q-38 -14 -77 -14q-371 0 -371 401v615h-127l393 266v-250h180v-16h-180v-711q0 -138 42.5 -213.5t139.5 -69.5z" />
    <glyph glyph-name="uni0163.ss01" horiz-adv-x="591" 
d="M393 297q0 -138 42.5 -213.5t139.5 -69.5v-8q-38 -14 -77 -14q-50 0 -105 10l-162 -102q58 4 103 -39t45 -97q0 -79 -65.5 -125.5t-129.5 -46.5v9q70 44 70 112q0 63 -46.5 99.5t-96.5 17.5l-9 16l271 160q-246 62 -246 387v615h-127l393 266v-250h180v-16h-180v-711z
" />
    <glyph glyph-name="uni021B.ss01" horiz-adv-x="591" 
d="M575 14v-8q-38 -14 -77 -14q-371 0 -371 401v615h-127l393 266v-250h180v-16h-180v-711q0 -138 42.5 -213.5t139.5 -69.5zM330 -51q50 0 84.5 -36.5t34.5 -105.5q0 -80 -52.5 -155.5t-136.5 -93.5l-2 12q51 15 79.5 60.5t22.5 105.5q-62 -13 -101.5 18.5t-39.5 83.5
q0 45 32 78t79 33z" />
    <glyph glyph-name="y.ss01" horiz-adv-x="1056" 
d="M6 1024h465l-92 -115l248 -694l217 569l-135 240h356l-203 -242l-227 -594v-188h-72l-78 -201l-411 -209l4 277h416l51 133h-131l-312 909z" />
    <glyph glyph-name="yacute.ss01" horiz-adv-x="1056" 
d="M854 1272l-543 -107l-8 11l467 258zM6 1024h465l-92 -115l248 -694l217 569l-135 240h356l-203 -242l-227 -594v-188h-72l-78 -201l-411 -209l4 277h416l51 133h-131l-312 909z" />
    <glyph glyph-name="ycircumflex.ss01" horiz-adv-x="1056" 
d="M590 1266l-314 -109l-2 17l316 260l317 -260l-4 -17zM6 1024h465l-92 -115l248 -694l217 569l-135 240h356l-203 -242l-227 -594v-188h-72l-78 -201l-411 -209l4 277h416l51 133h-131l-312 909z" />
    <glyph glyph-name="ydieresis.ss01" horiz-adv-x="1056" 
d="M455 1182q-36 0 -62 26t-26 62t26 62t62 26q37 0 62.5 -25.5t25.5 -62.5t-25.5 -62.5t-62.5 -25.5zM741 1182q-37 0 -62.5 25.5t-25.5 62.5t25.5 62.5t62.5 25.5t62.5 -25.5t25.5 -62.5t-25.5 -62.5t-62.5 -25.5zM6 1024h465l-92 -115l248 -694l217 569l-135 240h356
l-203 -242l-227 -594v-188h-72l-78 -201l-411 -209l4 277h416l51 133h-131l-312 909z" />
    <glyph glyph-name="ygrave.ss01" horiz-adv-x="1056" 
d="M301 1272l543 -109l6 11l-465 260zM6 1024h465l-92 -115l248 -694l217 569l-135 240h356l-203 -242l-227 -594v-188h-72l-78 -201l-411 -209l4 277h416l51 133h-131l-312 909z" />
    <glyph glyph-name="uni1EF9.ss01" horiz-adv-x="1056" 
d="M369 1190q0 65 42 117.5t99 52.5q37 0 66 -18.5t44 -40t37.5 -40t47.5 -18.5q40 0 66 29t26 71h14q0 -65 -42 -117t-99 -52q-30 0 -54.5 12t-40 29t-30 34t-32 29t-38.5 12q-40 0 -66 -29t-26 -71h-14zM6 1024h465l-92 -115l248 -694l217 569l-135 240h356l-203 -242
l-227 -594v-188h-72l-78 -201l-411 -209l4 277h416l51 133h-131l-312 909z" />
    <glyph glyph-name="j.ss02" horiz-adv-x="520" 
d="M264 1411q63 0 107.5 -45.5t44.5 -108.5t-44.5 -108t-107.5 -45t-107 45t-44 108t44 108.5t107 45.5zM16 901l377 123v-1008q-6 -191 -135 -290t-346 -99q-142 0 -242 35l224 176q48 -96 78.5 -134t66.5 -38q21 0 37 6.5t25 22t15 29.5t8 41t2.5 43t0.5 49v972z" />
    <glyph glyph-name="k.ss02" horiz-adv-x="1110" 
d="M905 393l78 -266l125 -127h-475l86 90l-111 393q-15 50 -46.5 82.5t-74.5 32.5q-40 0 -69 -20l-25 -21v-432l111 -125h-488l111 125v1085l-111 74l377 125v-829l340 276l-123 168h398l-242 -166l-295 -240q76 31 145 31q104 -6 180 -75.5t109 -180.5z" />
    <glyph glyph-name="c_t" horiz-adv-x="1683" 
d="M57 512q0 142 70 262.5t190.5 190t262.5 69.5q198 0 350 -133q-94 146 -94 285q0 148 111.5 256t254.5 108q67 0 123.5 -21t91 -54.5t53.5 -71.5t19 -74q0 -15 -4 -35v-254h182v-16h-182v-723q0 -138 42.5 -213.5t139.5 -69.5v-8q-38 -14 -78 -14q-370 0 -370 401v627
h-134l7 3q251 93 340 203q41 50 41 99q0 71 -75 138t-196 67q-139 0 -243.5 -103.5t-104.5 -244.5q0 -159 143 -361l33 -45l-311 2q-63 98 -135.5 152.5t-137.5 54.5q-80 0 -121.5 -71t-41.5 -177q0 -109 37.5 -234t96.5 -228.5t139.5 -172.5t158.5 -69q83 0 124 78t38 196
h184q-61 -146 -192.5 -233.5t-288.5 -87.5q-142 0 -262.5 70.5t-190.5 191t-70 260.5z" />
    <glyph glyph-name="e_e" horiz-adv-x="2129" 
d="M57 510q0 107 41.5 204t112 167t167.5 111.5t204 41.5q129 0 243 -60t189 -167h135q66 105 176.5 166t259.5 61q134 0 252 -64t191 -179h-398q209 -36 328 -144.5t119 -271.5q0 -74 -32.5 -142.5t-92 -123t-153 -87t-206.5 -32.5q-187 0 -312.5 89t-178.5 232
q-20 -45 -46.5 -85.5t-71 -85.5t-97.5 -76.5t-130.5 -52.5t-166.5 -21q-148 0 -270.5 69.5t-192.5 188.5t-70 262zM289 807h424q-25 81 -89.5 135.5t-142.5 54.5q-170 0 -192 -190zM1292 807h424q-25 82 -89 136t-142 54q-85 0 -133.5 -49t-59.5 -141zM287 791
q-11 -123 20.5 -246t93.5 -219t157 -156.5t202 -60.5q109 0 200.5 69.5t133.5 157.5q-37 110 -25 232t70 223h-852zM1290 791q-11 -123 20.5 -246t93.5 -219t157 -156.5t202 -60.5q123 0 206 89.5t83 209.5q0 85 -48 158t-128 121.5t-184 76t-215 27.5h-187z" />
    <glyph glyph-name="e_e_t" horiz-adv-x="2689" 
d="M2673 1024h-183v-723q0 -137 43 -213t140 -70v-8q-38 -14 -78 -14q-371 0 -371 401v627h-133l7 3q251 93 340 204q40 50 40 98q0 71 -74.5 138t-195.5 67q-139 0 -243.5 -103.5t-104.5 -244.5q0 -159 143 -361l25 -34h-398q209 -36 328 -144.5t119 -271.5
q0 -74 -32.5 -142.5t-92 -123t-153 -87t-206.5 -32.5q-187 0 -312.5 89t-178.5 232q-20 -45 -46.5 -85.5t-71 -85.5t-97.5 -76.5t-130.5 -52.5t-166.5 -21q-148 0 -270.5 69.5t-192.5 188.5t-70 262q0 107 41.5 204t112 167t167.5 111.5t204 41.5q129 0 243 -60t189 -167
h135q66 105 176.5 166t259.5 61q87 0 164 -26q101 -34 186 -107q-94 146 -94 285q0 148 111.5 256t255.5 108q130 0 208 -70.5t78 -150.5q0 -15 -4 -35v-254h183v-16zM481 997q-170 0 -192 -190h424q-25 81 -89.5 135.5t-142.5 54.5zM1292 807h424q-25 82 -89 136t-142 54
q-85 0 -133.5 -49t-59.5 -141zM1094 336q-37 110 -25 232t70 223h-852q-11 -123 20.5 -246t93.5 -219t157 -156.5t202 -60.5q109 0 200.5 69.5t133.5 157.5zM2052 408q0 85 -48 158t-128 121.5t-184 76t-215 27.5h-187q-11 -123 20.5 -246t93.5 -219t157 -156.5t202 -60.5
q123 0 206 89.5t83 209.5z" />
    <glyph glyph-name="e_t" horiz-adv-x="1685" 
d="M57 510q0 107 41.5 204t112 167t167.5 111.5t204 41.5q198 0 350 -133q-94 146 -94 285q0 148 111.5 256t254.5 108q67 0 123.5 -21t91 -54.5t53.5 -71.5t19 -74q0 -15 -4 -35v-254h182v-16h-182v-723q0 -138 42.5 -213.5t139.5 -69.5v-8q-38 -14 -78 -14
q-370 0 -370 401v627h-134l7 3q251 93 340 203q41 50 41 99q0 71 -75 138t-196 67q-139 0 -243.5 -103.5t-104.5 -244.5q0 -159 143 -361l25 -34h-397q209 -36 327.5 -144t118.5 -272q0 -74 -32.5 -142.5t-92 -123t-152.5 -87t-206 -32.5q-148 0 -270.5 69.5t-192.5 188.5
t-70 262zM289 807h424q-25 81 -89.5 135.5t-142.5 54.5q-170 0 -192 -190zM287 791q-11 -123 20.5 -246t93.5 -219t157 -156.5t202 -60.5q123 0 206 89.5t83 209.5q0 113 -82.5 202t-213 135t-280.5 46h-186z" />
    <glyph glyph-name="f_b" horiz-adv-x="1765" 
d="M16 0l111 125v899h-94v16h94q3 120 65 205.5t164.5 126.5t235.5 41q151 0 282 -55l127 55v-512q114 133 291 133q113 0 208.5 -70t151.5 -190.5t56 -261.5t-56 -261.5t-151.5 -190.5t-208.5 -70q-189 0 -305 149l-141 -139h-111v1165q-34 111 -102 166t-137 55
q-59 0 -81 -42t-22 -121v-183h248v-16h-248v-899l111 -125h-488zM1001 154q91 -117 185 -117q75 0 135 75t89.5 182t29.5 218t-29.5 218t-89.5 182t-135 75q-94 0 -185 -117v-716z" />
    <glyph glyph-name="f_f_b" horiz-adv-x="2330" 
d="M16 0l111 125v833q0 52 2 66h-96v16h100q17 102 88.5 173t169.5 102t215 31q122 3 228 -29q125 96 323 96q152 0 283 -55l127 55v-512q114 133 291 133q113 0 208.5 -70t151 -190.5t55.5 -261.5t-55.5 -261.5t-151 -190.5t-208.5 -70q-190 0 -306 149l-141 -139h-111
v1165q-34 111 -102 166t-137 55q-59 0 -81 -42t-22 -121v-183h248v-16h-248v-899l111 -125h-487l110 125v899h-299v-899l111 -125h-488zM393 1040h299q0 42 19 97q-89 176 -211 176q-62 0 -83.5 -37.5t-23.5 -112.5v-123zM1567 154q91 -117 184 -117q75 0 135 75t89.5 182
t29.5 218t-29.5 218t-89.5 182t-135 75q-93 0 -184 -117v-716z" />
    <glyph glyph-name="f_f_h" horiz-adv-x="2287" 
d="M16 0l111 125v833q0 52 2 66h-96v16h100q17 102 88.5 173t169.5 102t215 31q122 3 228 -29q125 96 323 96q152 0 283 -55l127 55v-547q161 164 327 164q120 0 196.5 -84t76.5 -209v-612l110 -125h-487l111 125v610q0 77 -52 132t-120 55q-88 0 -162 -80v-717l110 -125
h-487l110 125v1040q-34 111 -102 166t-137 55q-59 0 -81 -42t-22 -121v-183h248v-16h-248v-899l111 -125h-487l110 125v899h-299v-899l111 -125h-488zM393 1040h299q0 42 19 97q-89 176 -211 176q-62 0 -83.5 -37.5t-23.5 -112.5v-123z" />
    <glyph glyph-name="f_f_j" horiz-adv-x="1632" 
d="M16 0l111 125v833q0 38 2 50h-96v16h100q17 103 88 177.5t170.5 109.5t214.5 35q120 3 225 -29q126 100 351 100q67 0 162 -24.5t151 -59.5l-233 -180q-63 113 -114.5 169t-100.5 56q-19 0 -33.5 -7t-23.5 -15.5t-15.5 -26.5t-9.5 -31t-5 -37.5t-2 -37v-39.5v-160h570
v-1008q-6 -191 -135 -290t-346 -99q-142 0 -242 35l223 176q47 -96 78.5 -134t67.5 -38q21 0 37 6.5t25 22t15 29.5t8 41t2.5 43t0.5 49v1151h-304v-883l111 -125h-487l110 125v883h-299v-883l111 -125h-488zM393 1024h299q3 58 19 115q-89 174 -211 174q-62 0 -83.5 -37.5
t-23.5 -112.5v-139z" />
    <glyph glyph-name="f_f_k" horiz-adv-x="2281" 
d="M16 0l111 125v833q0 52 2 66h-96v16h100q17 102 88.5 173t169.5 102t215 31q122 3 228 -29q125 96 323 96q152 0 283 -55l127 55v-508q92 125 233 125q98 0 171 -60.5t73 -150.5q0 -24 -4.5 -44.5t-17 -38.5t-23 -31t-33 -27.5t-35 -22.5t-43 -21t-42.5 -18t-46 -18
q-96 -36 -145 -66q79 31 151 31q104 0 179 -63.5t108 -169.5l64 -203l122 -127h-473l86 90l-90 318q-15 53 -48.5 82.5t-76.5 29.5q-51 0 -80.5 -39.5t-29.5 -89.5v-266l110 -125h-487l110 125v1040q-34 111 -102 166t-137 55q-59 0 -81 -42t-22 -121v-183h248v-16h-248
v-899l111 -125h-487l110 125v899h-299v-899l111 -125h-488zM393 1040h299q0 42 19 97q-89 176 -211 176q-62 0 -83.5 -37.5t-23.5 -112.5v-123zM1567 459q15 31 42 63.5t53.5 59t51 55t40 63t15.5 72.5q0 62 -34 101.5t-84 39.5q-47 0 -84 -34v-420z" />
    <glyph glyph-name="f_f_t" horiz-adv-x="1748" 
d="M16 0l111 125v833q0 36 2 50h-96v16h100q17 103 88 177.5t170.5 109.5t214.5 35q122 3 228 -29q126 100 350 100q134 0 241 -37l-229 -174q-47 97 -78 134.5t-69 37.5q-16 0 -29.5 -4t-22.5 -14.5t-15.5 -19t-10.5 -27t-6 -29t-3 -34t-1 -32.5v-34v-160h221l368 250v-250
h181v-16h-181v-711q0 -137 43 -213t140 -70v-8q-38 -14 -78 -14q-371 0 -371 401v615h-323v-883l110 -125h-487l110 125v883h-301v-883l111 -125h-488zM393 1024h301q3 65 17 113q-89 176 -211 176q-63 0 -85 -38t-22 -112v-139z" />
    <glyph glyph-name="f_h" horiz-adv-x="1722" 
d="M16 0l111 125v899h-94v16h94q3 120 65 205.5t164.5 126.5t235.5 41q151 0 282 -55l127 55v-547q161 164 328 164q120 0 196.5 -84t76.5 -209v-612l110 -125h-487l110 125v610q0 77 -52 132t-120 55q-88 0 -162 -80v-717l111 -125h-487l110 125v1040q-34 111 -102 166
t-137 55q-59 0 -81 -42t-22 -121v-183h248v-16h-248v-899l111 -125h-488z" />
    <glyph glyph-name="f_j" horiz-adv-x="1067" 
d="M16 0l111 125v883h-94v16h94q6 193 138 293t351 100q67 0 162.5 -24.5t151.5 -59.5l-234 -180q-63 113 -114.5 169t-100.5 56q-16 0 -29.5 -4t-22.5 -14.5t-15.5 -19t-10.5 -27t-6 -29t-3 -34t-1 -32.5v-34v-160h570v-1008q-6 -191 -135.5 -290t-346.5 -99
q-141 0 -241 35l223 176q48 -96 78.5 -134t66.5 -38q21 0 37 6.5t25 22t15 29.5t8 41t2.5 43t0.5 49v1151h-303v-883l111 -125h-488z" />
    <glyph glyph-name="f_k" horiz-adv-x="1716" 
d="M16 0l111 125v899h-94v16h94q3 120 65 205.5t164.5 126.5t235.5 41q151 0 282 -55l127 55v-508q92 125 234 125q98 0 171 -60.5t73 -150.5q0 -24 -4.5 -44.5t-17 -38.5t-23 -31t-33 -27.5t-35 -22.5t-43 -21t-42.5 -18t-46 -18q-96 -36 -145 -66q79 31 151 31
q104 0 179 -63.5t108 -169.5l63 -203l123 -127h-473l86 90l-90 318q-15 53 -48.5 82.5t-76.5 29.5q-51 0 -81 -39.5t-30 -89.5v-266l111 -125h-487l110 125v1040q-34 111 -102 166t-137 55q-59 0 -81 -42t-22 -121v-183h248v-16h-248v-899l111 -125h-488zM1001 459
q15 31 42 63.5t53.5 59t51.5 55t40.5 63t15.5 72.5q0 62 -34.5 101.5t-84.5 39.5q-47 0 -84 -34v-420z" />
    <glyph glyph-name="f_t" horiz-adv-x="1181" 
d="M16 0l111 125v883h-94v16h94q6 193 138 293t351 100q135 0 242 -37l-229 -174q-46 97 -78 134.5t-70 37.5q-16 0 -29.5 -4t-22.5 -14.5t-15.5 -19t-10.5 -27t-6 -29t-3 -34t-1 -32.5v-34v-160h221l369 250v-250h180v-16h-180v-711q0 -138 42.5 -213.5t139.5 -69.5v-8
q-38 -14 -78 -14q-370 0 -370 401v615h-324v-883l111 -125h-488z" />
    <glyph glyph-name="h_j" horiz-adv-x="1660" 
d="M16 0l111 125v1075l-111 74l377 139v-547q161 164 328 164q120 0 196 -84t76 -209v-796q12 -18 34 -54q12 -21 18.5 -31t18.5 -28.5t18.5 -27.5t17 -23.5t18 -21t17.5 -16t18.5 -13t18 -7t19 -2.5t19.5 4q21 7 33 23t16.5 52.5t5.5 63.5t1 89v31v845l-113 74l379 125
v-948q-5 -109 -52.5 -192t-133.5 -130q-115 -63 -297 -63q-132 0 -247 50t-165 118l90 123v753q0 77 -52 132t-120 55q-88 0 -162 -80v-717l111 -125h-488zM1251 1257q0 63 44.5 108.5t107.5 45.5q79 0 123 -63q30 -45 30 -93q0 -63 -44 -108t-107 -45q-62 0 -107 45
q-47 47 -47 110z" />
    <glyph glyph-name="i_p" horiz-adv-x="1681" 
d="M25 836l548 190q164 57 244 114t84 140q0 110 -100.5 181t-237.5 71q-104 0 -204.5 -36.5t-165.5 -104.5q37 16 71 16q63 0 107.5 -44.5t44.5 -107.5t-44.5 -108t-107.5 -45t-108 45t-45 108q0 33 14 68q54 107 177.5 166t260.5 59q148 0 251.5 -76t103.5 -192v-379
q114 133 290 133q113 0 208.5 -70t151.5 -190.5t56 -261.5t-56 -261.5t-151.5 -190.5t-208.5 -70q-176 0 -290 133v-367l110 -125h-487l110 125v1166l-110 73l-140 -51v-819l111 -125h-485l108 125v637zM918 154q91 -117 184 -117q75 0 135 75t89.5 182t29.5 218t-29.5 218
t-89.5 182t-135 75q-93 0 -184 -117v-716z" />
    <glyph glyph-name="i_t" horiz-adv-x="1116" 
d="M25 836l548 190q164 57 244 114t84 140q0 110 -100.5 181t-237.5 71q-104 0 -204.5 -36.5t-165.5 -104.5q37 16 71 16q63 0 107.5 -44.5t44.5 -107.5t-44.5 -108t-107.5 -45t-108 45t-45 108q0 33 14 68q54 107 177.5 166t260.5 59q148 0 251.5 -76t103.5 -192v-256h178
v-16h-178v-711q0 -138 42.5 -213.5t139.5 -69.5v-8q-38 -14 -78 -14q-371 0 -371 401v613h-80q-54 -21 -170 -62v-819l111 -125h-485l108 125v637z" />
    <glyph glyph-name="l_j" horiz-adv-x="1062" 
d="M700 1147q-47 47 -47 110t44.5 108.5t107.5 45.5q79 0 123 -63q30 -45 30 -93q0 -63 -44 -108t-107 -45q-62 0 -107 45zM668 825l-113 74l379 125v-948q-5 -109 -52.5 -192t-133.5 -130q-115 -63 -297 -63q-132 0 -247 50t-165 118l90 123l-2 1224l-111 74l379 125v-1464
q12 -18 34 -54q12 -21 18.5 -31t18.5 -28.5t18.5 -27.5t17 -23.5t18 -21t17.5 -16t18.5 -13t18 -7t19 -2.5t19.5 4q21 7 33 23t16.5 52.5t5.5 63.5t1 89v31v845z" />
    <glyph glyph-name="n_j" horiz-adv-x="1669" 
d="M1260 1257q0 63 44 108.5t107 45.5q79 0 123 -63q31 -47 31 -93q0 -63 -44.5 -108t-107.5 -45q-61 0 -106 45q-47 47 -47 110zM25 0l110 125v686l-110 74l376 139v-158q161 164 328 164q120 0 196 -84t76 -209v-796q11 -18 32 -52q70 -112 103 -143q42 -39 83 -25
q20 7 32 22.5t17 51.5t5.5 61.5t0.5 87.5v36v845l-113 74l379 125v-948q-5 -109 -52.5 -192t-133.5 -130q-115 -63 -297 -63q-132 0 -247 50t-165 118l90 123v753q0 77 -52 132t-120 55q-88 0 -162 -80v-717l111 -125h-487z" />
    <glyph glyph-name="o_f" horiz-adv-x="1861" 
d="M57 512q0 165 92 299.5t240 187.5q142 51 350 54q45 1 93 -0.5t107 -5t96 -6.5t113 -9t105 -8q6 192 138.5 292.5t351.5 100.5q135 0 242 -37l-230 -174q-47 97 -78 134.5t-69 37.5q-16 0 -29.5 -4t-22.5 -14.5t-15.5 -19t-10.5 -27t-6 -29t-3 -34t-1 -32.5v-34v-160h405
v-16h-405v-883l110 -125h-487l110 125v881q-417 39 -610 24q127 -15 232 -88t165 -186.5t60 -243.5q0 -142 -69.5 -262t-189.5 -190t-263 -70q-142 0 -262 69.5t-189.5 190t-69.5 262.5zM281 741q0 -124 41.5 -254t104 -228t139 -161t143.5 -63q81 0 123 68.5t42 179.5
q0 124 -41.5 254t-104 228t-139 161t-143.5 63q-81 0 -123 -68.5t-42 -179.5z" />
    <glyph glyph-name="o_t" horiz-adv-x="1681" 
d="M57 512q0 141 69.5 261.5t189.5 190.5t262 70q201 0 350 -133q-94 143 -94 285q0 148 111.5 256t254.5 108q67 0 123.5 -21t91 -54.5t53.5 -71.5t19 -74q0 -15 -4 -35v-254h182v-16h-182v-723q0 -138 42.5 -213.5t139.5 -69.5v-8q-38 -14 -78 -14q-370 0 -370 401v627
h-134l7 3q251 93 340 204q40 49 40 98q0 71 -74.5 138t-195.5 67q-139 0 -243.5 -103.5t-104.5 -244.5q0 -156 141 -357q107 -138 107 -317q0 -142 -69.5 -262t-189.5 -190t-263 -70q-142 0 -262 69.5t-189.5 190t-69.5 262.5zM281 741q0 -124 41.5 -254t104 -228t139 -161
t143.5 -63q81 0 123 68.5t42 179.5q0 124 -41.5 254t-104 228t-139 161t-143.5 63q-81 0 -123 -68.5t-42 -179.5z" />
    <glyph glyph-name="r_t" horiz-adv-x="1378" 
d="M25 0l110 125v698l-110 76l360 119q0 221 178 350q128 96 348 96q131 0 203 -46t72 -138q0 -28 -6 -49v-207h178v-16h-178v-707q0 -138 42.5 -213.5t139.5 -69.5v-8q-38 -14 -78 -14q-371 0 -371 401v609h-102l-90 -246h-2q-168 -6 -243 -56.5t-75 -175.5v-403l111 -125
h-487zM401 655q22 117 54 187t96 119q30 23 69 40t88 27t75.5 13.5t76.5 9.5q135 16 222.5 76.5t86.5 152.5q0 74 -62 121t-196 47q-64 0 -132 -14.5t-136 -47.5t-121.5 -79.5t-87 -117.5t-33.5 -155v-379z" />
    <glyph glyph-name="s_p" horiz-adv-x="2019" 
d="M45 758q0 119 94 192.5t228 73.5h340q-15 91 24 139q22 29 66 44.5t79 19.5t105 8q137 5 184 17q60 16 90 48v-399q114 133 291 133q113 0 208.5 -70t151.5 -190.5t56 -261.5t-56 -261.5t-151.5 -190.5t-208.5 -70q-177 0 -291 133v-367l111 -125h-487l110 125v1374
l-117 80q-95 -13 -129 -57q-32 -43 -20 -129l47 -319l-313 292q-40 9 -90 9q-33 0 -64 -4.5t-60 -15.5t-47 -31t-18 -48t14 -54t32 -45.5t59 -46t70 -42t89 -47.5l125 -66q122 -65 197.5 -144t75.5 -167q0 -130 -106 -212.5t-253 -82.5h-389l-35 336l346 -311q44 -7 78 -7
q91 0 152 32.5t61 86.5q0 27 -17 55t-40 49.5t-63 47.5t-69.5 42t-77 41.5t-69.5 37.5l-96 53q-101 56 -159 131.5t-58 163.5zM1255 154q91 -117 185 -117q75 0 135 75t89.5 182t29.5 218t-29.5 218t-89.5 182t-135 75q-94 0 -185 -117v-716z" />
    <glyph glyph-name="s_s" horiz-adv-x="1742" 
d="M45 758q0 120 94.5 195t227.5 75q49 0 93.5 -10t80.5 -25.5t70.5 -43.5t60 -54t53 -67.5t46 -74t41.5 -83t37 -85t36 -89.5q82 -199 125 -273q90 -154 215 -193q50 -16 108 -16q90 0 151.5 34.5t61.5 88.5q0 27 -17 55t-40 49.5t-63 47.5t-69.5 42t-77 41.5t-69.5 37.5
l-96 53q-101 56 -159 131.5t-58 163.5q0 119 94 192.5t228 73.5h360l41 -319l-311 292q-40 9 -90 9q-33 0 -64 -4.5t-60 -15.5t-47 -31t-18 -48t14 -54t32 -45.5t59 -46t70 -42t89 -47.5l125 -66q122 -65 197.5 -144t75.5 -167q0 -130 -106 -214.5t-253 -84.5
q-158 0 -257 107.5t-206 385.5q-28 70 -46 111.5t-48.5 103.5t-57 99.5t-65.5 81.5t-79.5 68t-93.5 40.5t-113 16.5q-32 0 -63.5 -5.5t-60.5 -16.5t-47 -32t-18 -49t14 -54t32 -45.5t59 -46t70 -42t89 -47.5l125 -66q122 -65 197.5 -144t75.5 -167q0 -130 -106 -212.5
t-253 -82.5h-389l-35 336l346 -311q44 -7 78 -7q91 0 152 32.5t61 86.5q0 27 -17 55t-40 49.5t-63 47.5t-69.5 42t-77 41.5t-69.5 37.5l-96 53q-101 56 -159 131.5t-58 163.5z" />
    <glyph glyph-name="s_t" horiz-adv-x="1480" 
d="M45 758q0 119 94 192.5t228 73.5h325q-35 193 55.5 326t262.5 133q108 0 173 -59t46 -146v-254h182v-16h-182v-705q0 -188 78 -254q56 -46 155 -22l2 -19q-70 -12 -131 -12q-165 0 -254 80q-116 98 -116 323v609h-127q77 28 142.5 60t120.5 70.5t86.5 83t31.5 89.5
q0 71 -60 113t-147 42q-111 0 -187.5 -60.5t-105 -161t-6.5 -220.5l59 -319l-313 292q-40 9 -90 9q-33 0 -64 -4.5t-60 -15.5t-47 -31t-18 -48t14 -54t32 -45.5t59 -46t70 -42t89 -47.5l125 -66q122 -65 197.5 -144t75.5 -167q0 -130 -106 -212.5t-253 -82.5h-389l-35 336
l346 -311q44 -7 78 -7q91 0 152 32.5t61 86.5q0 27 -17 55t-40 49.5t-63 47.5t-69.5 42t-77 41.5t-69.5 37.5l-96 53q-101 56 -159 131.5t-58 163.5z" />
    <glyph glyph-name="t_i" horiz-adv-x="1185" 
d="M768 1270q0 63 44.5 107t107.5 44t107 -44t44 -107t-44 -107.5t-107 -44.5t-107.5 44.5t-44.5 107.5zM0 1024l393 266v-250h666v-915l110 -125h-487l111 125v899h-400v-723q0 -138 42.5 -213.5t139.5 -69.5v-8q-38 -14 -77 -14q-371 0 -371 401v627h-127z" />
    <glyph glyph-name="t_t" horiz-adv-x="1136" 
d="M0 1008q29 10 58.5 23t53 24.5t51.5 29.5t46 29.5t45.5 34t39.5 32t39.5 35t35 32.5t35.5 34t32 31q116 115 208.5 149t182.5 -2q54 -22 84.5 -64.5t28.5 -95.5l-2 -28v-248h180v-16h-180v-711q0 -138 42.5 -213.5t139.5 -69.5v-8q-38 -14 -78 -14q-370 0 -370 401v615
h-279v-711q0 -138 42.5 -213.5t139.5 -69.5v-8q-38 -14 -77 -14q-371 0 -371 401v615h-127zM393 1024h215q80 28 140.5 62t92.5 63.5t52 60.5t25.5 51t5.5 39q1 47 -26 85.5t-77 58.5q-36 14 -68.5 17t-78 -7.5t-102 -48t-123.5 -102.5l-56 -54v-225z" />
    <glyph glyph-name="v_e" horiz-adv-x="1974" 
d="M6 1024h465l-92 -115l244 -682q22 210 114 353t248 206q70 114 188 181t257 67q134 0 251.5 -64t190.5 -179h-397q209 -36 327.5 -144t118.5 -272q0 -74 -32.5 -142.5t-92 -123t-152.5 -87t-206 -32.5q-148 0 -270.5 69.5t-192.5 188.5t-70 262q0 132 66 254
q-156 -67 -246 -236t-90 -391v-137h-221l-312 909zM1137 807h424q-25 81 -89.5 135.5t-142.5 54.5q-170 0 -192 -190zM1135 791q-11 -123 20.5 -246t93.5 -219t157 -156.5t202 -60.5q123 0 205.5 89.5t82.5 209.5q0 85 -48 158t-128 121.5t-184 76t-215 27.5h-186z" />
    <glyph glyph-name="v_e_e" horiz-adv-x="2977" 
d="M6 1024h465l-92 -115l244 -682q22 210 114 353t248 206q70 114 188 181t257 67q129 0 243 -60t189 -167h135q66 105 176.5 166t259.5 61q134 0 251.5 -64t190.5 -179h-397q209 -36 328 -144.5t119 -271.5q0 -74 -32.5 -142.5t-92 -123t-153 -87t-206.5 -32.5
q-187 0 -312.5 89t-178.5 232q-20 -45 -46.5 -85.5t-71 -85.5t-97.5 -76.5t-130.5 -52.5t-166.5 -21q-148 0 -270.5 69.5t-192.5 188.5t-70 262q0 132 66 254q-156 -67 -246 -236t-90 -391v-137h-221l-312 909zM1137 807h424q-25 81 -89.5 135.5t-142.5 54.5
q-170 0 -192 -190zM2140 807h424q-25 82 -89 136t-142 54q-85 0 -133.5 -49t-59.5 -141zM1135 791q-11 -123 20.5 -246t93.5 -219t157 -156.5t202 -60.5q109 0 200.5 69.5t133.5 157.5q-37 110 -25 232t70 223h-852zM2138 791q-11 -123 20.5 -246t93.5 -219t157 -156.5
t202 -60.5q123 0 206 89.5t83 209.5q0 113 -82.5 202t-213 135t-280.5 46h-186z" />
    <glyph glyph-name="v_i" horiz-adv-x="1374" 
d="M1108 1108q-63 0 -107.5 44.5t-44.5 107.5t44.5 107t107.5 44t107.5 -44t44.5 -107t-44.5 -107.5t-107.5 -44.5zM1247 1047v-922l111 -125h-488l111 125v610l-88 60q-136 -102 -189.5 -280.5t-56.5 -457.5v-57h-221l-309 899l-111 125h498l-111 -125l242 -684
q9 123 30 218.5t60 179.5t102.5 147t151.5 106q92 45 159 90.5t88 66.5t21 24z" />
    <glyph glyph-name="v_i_p" horiz-adv-x="2516" 
d="M6 1024h498l-111 -125l240 -674q24 261 147 436.5t318 249.5q56 21 156 58q291 106 384.5 161t98.5 150q0 76 -52 135t-130.5 88t-165.5 29q-100 0 -197.5 -36.5t-161.5 -102.5q28 14 68 14q63 0 107 -44.5t44 -107.5t-44 -108t-107 -45t-106.5 45t-43.5 108
q0 80 67.5 148.5t168.5 106.5t205 38q93 0 175 -31t135.5 -93.5t53.5 -143.5v-379q114 133 291 133q113 0 208.5 -70t151.5 -190.5t56 -261.5t-56 -261.5t-151.5 -190.5t-208.5 -70q-177 0 -291 133v-367l111 -125h-488l111 125v1162l-113 75l-137 -49v-819l111 -125h-488
l111 125v635l-47 33q-123 -100 -194 -255.5t-83 -351.5v-186h-221l-309 899zM1753 154q91 -117 184 -117q75 0 135 75t89.5 182t29.5 218t-29.5 218t-89.5 182t-135 75q-93 0 -184 -117v-716z" />
    <glyph glyph-name="v_i_t" horiz-adv-x="1951" 
d="M6 1024h498l-111 -125l240 -674q24 261 147 436.5t318 249.5q56 21 156 58q291 106 384.5 161t98.5 150q0 76 -52 135t-130.5 88t-165.5 29q-100 0 -197.5 -36.5t-161.5 -102.5q28 14 68 14q63 0 107 -44.5t44 -107.5t-44 -108t-107 -45t-106.5 45t-43.5 108
q0 80 67.5 148.5t168.5 106.5t205 38q93 0 175 -31t135.5 -93.5t53.5 -143.5v-256h180v-16h-180v-709q0 -138 42.5 -213.5t139.5 -69.5v-8q-38 -14 -77 -14q-371 0 -371 401v613h-72l-178 -64v-819l111 -125h-488l111 125v635l-47 33q-123 -100 -194 -255.5t-83 -351.5v-186
h-221l-309 899z" />
    <glyph glyph-name="v_j" horiz-adv-x="1363" 
d="M956 1260q0 63 44.5 107t107.5 44t107.5 -44t44.5 -107t-44.5 -107.5t-107.5 -44.5t-107.5 44.5t-44.5 107.5zM6 1024h498l-111 -125l242 -684q9 123 30 218.5t60 179.5t102.5 147t151.5 106q92 45 159 90.5t88 66.5t21 24v-1031q-6 -191 -135 -290t-346 -99
q-142 0 -242 35l224 176q48 -96 78.5 -134t66.5 -38q21 0 37 6.5t25 22t15 29.5t8 41t2.5 43t0.5 49v878l-88 60q-136 -102 -189.5 -280.5t-56.5 -457.5v-57h-221l-309 899z" />
    <glyph glyph-name="w_e" horiz-adv-x="2537" 
d="M6 1024h467l-92 -115l237 -694l150 412l-94 282l-96 115h469l-95 -115l234 -682q22 210 114 353t248 206q70 114 188 181t257 67q134 0 251.5 -64t190.5 -179h-397q209 -36 327.5 -144t118.5 -272q0 -74 -32.5 -142.5t-92 -123t-152.5 -87t-206 -32.5q-148 0 -270.5 69.5
t-192.5 188.5t-70 262q0 132 66 254q-156 -67 -246 -236t-90 -391v-137h-221l-199 598l-151 -410v-188h-221l-304 909zM1700 807h424q-25 81 -89.5 135.5t-142.5 54.5q-170 0 -192 -190zM1698 791q-11 -123 20.5 -246t93.5 -219t157 -156.5t202 -60.5q123 0 206 89.5
t83 209.5q0 113 -82.5 202t-213 135t-280.5 46h-186z" />
    <glyph glyph-name="w_e_e" horiz-adv-x="3540" 
d="M6 1024h467l-92 -115l237 -694l150 412l-94 282l-96 115h469l-95 -115l234 -682q22 210 114 353t248 206q70 114 188 181t257 67q129 0 243 -60t189 -167h135q66 105 176.5 166t259.5 61q134 0 252 -64t191 -179h-398q209 -36 328 -144.5t119 -271.5q0 -74 -32.5 -142.5
t-92 -123t-153 -87t-206.5 -32.5q-187 0 -312.5 89t-178.5 232q-20 -45 -46.5 -85.5t-71 -85.5t-97.5 -76.5t-130.5 -52.5t-166.5 -21q-148 0 -270.5 69.5t-192.5 188.5t-70 262q0 132 66 254q-156 -67 -246 -236t-90 -391v-137h-221l-199 598l-151 -410v-188h-221l-304 909
zM1700 807h424q-26 84 -91 137t-141 53q-170 0 -192 -190zM2703 807h424q-25 82 -89 136t-142 54q-85 0 -133.5 -49t-59.5 -141zM1698 791q-11 -123 20.5 -246t93.5 -219t157 -156.5t202 -60.5q109 0 200.5 69.5t133.5 157.5q-37 110 -25 232t70 223h-852zM2701 791
q-11 -123 20.5 -246t93.5 -219t157 -156.5t202 -60.5q123 0 206 89.5t83 209.5q0 85 -48 158t-128 121.5t-184 76t-215 27.5h-187z" />
    <glyph glyph-name="w_i" horiz-adv-x="1925" 
d="M1507 1260q0 63 44.5 107t107.5 44t107 -44t44 -107t-44 -107.5t-107 -44.5t-107.5 44.5t-44.5 107.5zM6 1024h467l-92 -115l237 -694l150 412l-94 282l-96 115h469l-95 -115l234 -684q10 121 31.5 214.5t60.5 176.5t102 145.5t150 104.5q92 45 159 90.5t88 66.5t21 24
v-922l111 -125h-488l111 125v610l-88 60q-137 -103 -190 -280.5t-56 -457.5v-57h-221l-199 598l-151 -410v-188h-221l-304 909z" />
    <glyph glyph-name="w_i_p" horiz-adv-x="3067" 
d="M6 1024h467l-92 -115l237 -694l150 412l-94 282l-96 115h469l-95 -115l232 -678q26 258 148.5 433t316.5 247q61 23 169 62q286 105 378 159t92 148q0 76 -52.5 135t-131 88t-165.5 29q-99 0 -196.5 -36.5t-161.5 -102.5q28 14 68 14q63 0 107 -44.5t44 -107.5t-44 -108
t-107 -45t-106.5 45t-43.5 108q0 80 67 148.5t168 106.5t205 38q93 0 175 -31t136 -93.5t54 -143.5v-379q114 133 291 133q113 0 208.5 -70t151.5 -190.5t56 -261.5t-56 -261.5t-151.5 -190.5t-208.5 -70q-177 0 -291 133v-367l111 -125h-488l111 125v1162l-113 75l-137 -49
v-819l110 -125h-487l111 125v635l-47 33q-123 -100 -194 -255.5t-83 -351.5v-186h-221l-199 598l-151 -410v-188h-221l-304 909zM2304 154q91 -117 184 -117q75 0 135 75t89.5 182t29.5 218t-29.5 218t-89.5 182t-135 75q-93 0 -184 -117v-716z" />
    <glyph glyph-name="w_i_t" horiz-adv-x="2502" 
d="M6 1024h467l-92 -115l237 -694l150 412l-94 282l-96 115h469l-95 -115l232 -678q26 258 148.5 433t316.5 247q61 23 169 62q286 105 378 159t92 148q0 76 -52.5 135t-131 88t-165.5 29q-99 0 -196.5 -36.5t-161.5 -102.5q28 14 68 14q63 0 107 -44.5t44 -107.5t-44 -108
t-107 -45t-106.5 45t-43.5 108q0 80 67 148.5t168 106.5t205 38q93 0 175 -31t136 -93.5t54 -143.5v-256h180v-16h-180v-709q0 -138 42.5 -213.5t139.5 -69.5v-8q-38 -14 -78 -14q-370 0 -370 401v613h-72l-178 -64v-819l110 -125h-487l111 125v635l-47 33
q-123 -100 -194 -255.5t-83 -351.5v-186h-221l-199 598l-151 -410v-188h-221l-304 909z" />
    <glyph glyph-name="w_j" horiz-adv-x="1914" 
d="M1507 1260q0 63 44.5 107t107.5 44t107 -44t44 -107t-44 -107.5t-107 -44.5t-107.5 44.5t-44.5 107.5zM6 1024h467l-92 -115l237 -694l150 412l-94 282l-96 115h469l-95 -115l234 -684q10 121 31.5 214.5t60.5 176.5t102 145.5t150 104.5q42 21 80 42.5t64 38.5t48 33.5
t35.5 28.5t23 21t13.5 13l4 4v-1031q-6 -191 -135 -290t-346 -99q-142 0 -242 35l223 176q47 -96 78.5 -134t67.5 -38q21 0 37 6.5t25 22t15 29.5t8 41t2.5 43t0.5 49v878l-88 60q-137 -103 -190 -280.5t-56 -457.5v-57h-221l-199 598l-151 -410v-188h-221l-304 909z" />
    <glyph glyph-name="f_f.ss01" horiz-adv-x="1302" 
d="M16 0l111 125v833q0 36 2 50h-96v16h100q17 103 88 177.5t170.5 109.5t214.5 35q131 3 234 -37q151 108 401 108q92 0 148.5 -28t56.5 -89q0 -60 -62.5 -120.5t-152 -101t-178.5 -54.5h311v-16h-406v-883l111 -125h-487l110 125v883h-299v-883l111 -125h-488zM958 1024
q95 0 179 88.5t84 169.5q0 51 -27 82t-68 31q-42 0 -75.5 -33t-53 -87t-29.5 -118.5t-10 -132.5zM393 1024h299q0 60 19 115q-89 174 -211 174q-62 0 -83.5 -37.5t-23.5 -112.5v-139z" />
    <glyph glyph-name="f_f_t.ss01" horiz-adv-x="1789" 
d="M16 0l111 125v833q0 36 2 50h-96v16h100q17 103 88 177.5t170.5 109.5t214.5 35q131 3 234 -37q151 108 401 108q92 0 148.5 -28t56.5 -89q0 -60 -62.5 -120.5t-152 -101t-178.5 -54.5h188q103 25 200.5 94.5t149.5 155.5v-250h181v-16h-181v-711q0 -137 43 -213t140 -70
v-8q-38 -14 -78 -14q-371 0 -371 401v615h-367v-883l111 -125h-487l110 125v883h-299v-883l111 -125h-488zM958 1024q95 0 179 88.5t84 169.5q0 51 -27 82t-68 31q-42 0 -75.5 -33t-53 -87t-29.5 -118.5t-10 -132.5zM393 1024h299q0 60 19 115q-89 174 -211 174
q-62 0 -83.5 -37.5t-23.5 -112.5v-139z" />
    <glyph glyph-name="f_t.ss01" horiz-adv-x="1224" 
d="M16 0l111 125v883h-92v16h92q0 85 33.5 153t87.5 112t127 73.5t147.5 42t153.5 12.5q92 0 148.5 -28t56.5 -89q0 -60 -62.5 -120.5t-152.5 -101t-179 -54.5h189q103 25 200.5 94.5t149.5 155.5v-250h180v-16h-180v-711q0 -138 42.5 -213.5t139.5 -69.5v-8
q-38 -14 -78 -14q-370 0 -370 401v615h-367v-883l111 -125h-488zM393 1024q95 0 178.5 88.5t83.5 169.5q0 51 -26.5 82t-67.5 31q-42 0 -75.5 -33t-53 -87t-29.5 -118.5t-10 -132.5z" />
    <glyph glyph-name="h_j.ss01" horiz-adv-x="1665" 
d="M16 0l111 125v866q0 193 92 310.5t256 117.5q124 0 195 -66.5t71 -166.5q0 -43 -24 -87t-64 -75q38 6 70 6q124 0 199 -84.5t75 -208.5v-796q12 -18 34 -54q12 -21 18.5 -31t18.5 -28.5t18.5 -27.5t17 -23.5t18 -21t17.5 -16t18.5 -13t18 -7t19 -2.5t19.5 4q21 7 33 23
t16.5 52.5t5.5 63.5t1 89v31v845l-113 74l379 125v-948q-5 -109 -52.5 -192t-133.5 -130q-115 -63 -297 -63q-132 0 -247 50t-165 118l90 123v753q0 78 -51.5 138.5t-124.5 60.5q-86 0 -162 -82v-727l111 -125h-488zM1255 1257q0 63 44.5 108.5t107.5 45.5q79 0 123 -63
q31 -47 31 -93q0 -63 -44.5 -108t-107.5 -45q-61 0 -106 45q-48 48 -48 110zM393 868q86 86 189 133q143 64 143 185q0 76 -48.5 134t-113.5 58q-55 0 -94.5 -41.5t-57.5 -105t-18 -139.5v-224z" />
    <glyph glyph-name="zero.osf" horiz-adv-x="1095" 
d="M549 1034q98 0 188 -39.5t158 -113.5q70 -71 106.5 -167t36.5 -202q0 -215 -144.5 -368.5t-346.5 -153.5q-135 0 -248 71t-177.5 191t-64.5 260q0 143 66 263t179 189.5t247 69.5zM772 512q0 209 -65.5 356.5t-157.5 147.5q-61 0 -113 -67.5t-82 -183.5t-30 -253
q0 -136 30 -251.5t82 -183t113 -67.5q92 0 157.5 147.5t65.5 354.5z" />
    <glyph glyph-name="one.osf" horiz-adv-x="559" 
d="M432 1024v-905l111 -119h-484l111 119v880l-129 2v23h391z" />
    <glyph glyph-name="two.osf" horiz-adv-x="858" 
d="M489 354l-186 -102h504v-252h-782q534 497 534 831q0 84 -42 134.5t-120 50.5q-17 0 -92 -12l-262 -334l18 268q111 47 228 74q102 20 166 20q151 0 252.5 -79t101.5 -212q0 -60 -23.5 -115.5t-54 -93t-81 -76.5t-82 -57.5t-79.5 -44.5z" />
    <glyph glyph-name="three.osf" horiz-adv-x="993" 
d="M250 -84q52 -108 138.5 -176t170.5 -68q81 0 122.5 71.5t41.5 174.5q0 123 -59 251.5t-155.5 213t-195.5 84.5q-30 0 -57 -10l-94 -31l-6 20l237 78q63 21 99 82t36 137q0 110 -64.5 187t-148.5 57l-237 -328v275q175 57 265.5 78.5t170.5 21.5q112 2 188 -57.5
t76 -153.5q0 -86 -76 -171t-237 -136q98 4 186.5 -26.5t152 -84.5t101 -130.5t37.5 -161.5q0 -134 -76 -249t-198 -180t-256 -65q-150 0 -269.5 77t-173.5 220h281z" />
    <glyph glyph-name="four.osf" horiz-adv-x="1153" 
d="M762 14h61l330 277l-90 -293l-301 2v-248l112 -121h-491l113 123v246h-469v14l346 1010h260l-594 -1010h457v340h266v-340z" />
    <glyph glyph-name="five.osf" horiz-adv-x="995" 
d="M248 -84q51 -107 135 -175.5t174 -68.5q57 0 96 40t54.5 96t15.5 122q0 92 -34 189t-90 176t-136 129.5t-164 50.5q-52 0 -96 -16l-129 -49l-4 4l75 610h639v-266h-653l-41 -326l160 60q103 40 213 43q201 6 339 -117t138 -297q0 -134 -74 -250.5t-196.5 -184
t-261.5 -67.5q-152 0 -271.5 79t-171.5 218h283z" />
    <glyph glyph-name="six.osf" horiz-adv-x="1091" 
d="M72 596q0 145 57 290t150 258.5t217 194t254 103.5l2 -12q-107 -25 -207 -114.5t-169 -212t-97 -253.5q126 102 299 102q131 0 242 -64t176 -174t65 -241q0 -199 -141.5 -341t-339.5 -142q-96 0 -178 31.5t-142 88t-103 132.5t-64 166t-21 188zM264 731q0 -100 55 -220
t133.5 -215t168.5 -159.5t157 -64.5q53 0 83 38.5t30 100.5q0 100 -55 220t-133.5 215t-168.5 159.5t-157 64.5q-55 0 -84 -38t-29 -101z" />
    <glyph glyph-name="seven.osf" horiz-adv-x="1001" 
d="M37 719l43 305h901l-514 -1274l108 -119h-503l112 121l508 1256h-370z" />
    <glyph glyph-name="eight.osf" horiz-adv-x="1044" 
d="M676 942q177 -72 257.5 -183t80.5 -284q0 -100 -41 -190.5t-109 -154.5t-159 -102t-187 -38q-132 0 -244 65t-177.5 176.5t-65.5 243.5q0 130 64 242.5t173 175.5q-100 100 -100 252q0 77 51.5 147t131.5 111t163 41q135 0 225 -74.5t90 -198.5q0 -24 -5.5 -48.5
t-20.5 -56.5t-47.5 -64.5t-79.5 -59.5zM412 1405q-38 0 -62 -28t-24 -70q0 -99 82.5 -196.5t187.5 -137.5l59 -23q18 39 15.5 94.5t-28.5 119t-60.5 117t-81 89t-88.5 35.5zM903 317q0 120 -84 222t-219 161q-127 57 -197.5 96t-121.5 85q-91 -79 -91 -205q0 -119 57 -233.5
t139.5 -191.5t173 -124t159.5 -47q82 0 133 73t51 164z" />
    <glyph glyph-name="nine.osf" horiz-adv-x="1105" 
d="M1034 428q0 -145 -57 -290t-150 -258.5t-217 -194t-254 -103.5l-2 12q107 25 207 114.5t169 212t97 253.5q-126 -102 -299 -102q-131 0 -242 64t-176 174t-65 241q0 199 141.5 341t339.5 142q96 0 178 -31.5t142 -88t103 -132.5t64 -166t21 -188zM842 293q0 100 -55 220
t-133.5 215t-168.5 159.5t-157 64.5q-53 0 -83 -38.5t-30 -100.5q0 -100 55 -220t133.5 -215t168.5 -159.5t157 -64.5q55 0 84 38t29 101z" />
    <glyph glyph-name="zero.ss01" horiz-adv-x="1310" 
d="M82 717q0 141 42.5 273t116.5 232.5t182.5 161t231.5 60.5q164 0 297 -102.5t205 -268t72 -356.5q0 -190 -72 -355.5t-205 -268.5t-297 -103q-123 0 -231.5 60.5t-182.5 161t-116.5 232.5t-42.5 273zM100 717q0 -47 6 -107q21 172 332 338q43 23 118 60q79 38 114 58
t74.5 54.5t50 74.5t2.5 97q-8 56 -45.5 94.5t-96.5 38.5q-152 0 -280 -94.5t-201.5 -257.5t-73.5 -356zM657 16q79 0 148 93.5t110 256t41 351.5q0 101 -14.5 197.5t-35 162t-41.5 116.5t-35 75l-15 24q8 -59 -4.5 -103t-52 -78.5t-69 -52.5t-91.5 -49q-34 -17 -51 -26
q-42 -22 -71.5 -45.5t-49.5 -54t-32 -60t-18 -75t-7.5 -86.5t-1.5 -107q0 -127 36.5 -250.5t105 -206t148.5 -82.5z" />
    <glyph glyph-name="one.ss01" horiz-adv-x="745" 
d="M602 1434v-1313l113 -121h-494l113 123v129q-113 119 -185.5 256t-91.5 268q-41 286 170 479l193 179h182zM240 1243q-204 -186 -166 -465q19 -125 87 -257t173 -245v967h-94z" />
    <glyph glyph-name="four.ss01" horiz-adv-x="1208" 
d="M813 387h61l330 277l-90 -293l-301 2v-252l113 -121h-496l115 123v250h-520v14l520 1045v2h268v-1047zM43 387h502v1012z" />
    <glyph glyph-name="five.ss01" horiz-adv-x="1026" 
d="M989 498q0 -129 -70 -245.5t-186.5 -186.5t-245.5 -70q-182 0 -314 97.5t-132 228.5q0 122 73.5 183.5t268.5 115.5q86 23 134 51.5t48 77.5q0 42 -60 84.5t-132 42.5q-59 0 -121 -21l-129 -49l-4 4l76 623h639v-267h-654l-41 -338l158 60q121 45 235 45
q193 0 325 -126.5t132 -309.5zM586 762q0 -62 -50 -96.5t-147 -61.5q-190 -52 -260 -110t-70 -172q0 -79 59 -150.5t158.5 -115.5t210.5 -44q143 0 216 76.5t75 202.5q0 120 -56.5 254.5t-135.5 216.5z" />
    <glyph glyph-name="two_five" horiz-adv-x="1937" 
d="M25 0q534 497 534 831q0 84 -42 134.5t-120 50.5q-17 0 -92 -12l-262 -334l18 268q111 47 228 74q102 20 166 20q151 0 252.5 -79t101.5 -212q0 -60 -23.5 -115.5t-54 -93t-81 -76.5t-82 -57.5t-79.5 -44.5l-186 -102h490q146 126 219 170l75 602h639v-266h-653l-41 -326
q175 96 373 103q201 6 339 -117t138 -297q0 -134 -74 -250.5t-196.5 -184t-261.5 -67.5q-152 0 -271.5 79t-171.5 218h283q51 -107 135 -175.5t174 -68.5q57 0 96 40t54.5 96t15.5 122q0 92 -34 189t-90 176t-136 129.5t-164 50.5q-58 0 -111.5 -16t-110 -52.5t-91.5 -64
t-99 -82.5q-59 -50 -92 -76.5t-93 -67.5t-108 -62t-114 -37.5t-133 -16.5h-264z" />
    <glyph glyph-name="six_one" horiz-adv-x="1693" 
d="M72 596q0 78 17.5 161.5t55.5 171t92 168.5t133 152.5t173 124.5t216.5 84t258.5 31q164 0 298.5 -48t206.5 -124t72 -160q0 -51 -28 -102v-930l110 -125h-487l110 125v737q-58 -21 -102 -33l-4 19q176 46 278.5 128.5t102.5 180.5q0 84 -75 155t-203 111.5t-279 40.5
q-87 0 -193 -18q-115 -23 -210.5 -83t-160.5 -144t-108 -176t-67 -193q126 102 299 102q131 0 242 -64t176 -174t65 -241q0 -199 -141.5 -341t-339.5 -142q-96 0 -178 31.5t-142 88t-103 132.5t-64 166t-21 188zM264 731q0 -100 55 -220t133.5 -215t168.5 -159.5t157 -64.5
q53 0 83 38.5t30 100.5q0 100 -55 220t-133.5 215t-168.5 159.5t-157 64.5q-55 0 -84 -38t-29 -101z" />
    <glyph glyph-name="six_five" horiz-adv-x="2129" 
d="M72 596q0 127 43 253t120 231t176 186.5t218 127.5t239 46q197 0 305 -110.5t117 -303.5v-2h629v-266h-653l-41 -326l159 60q103 40 213 43q201 6 339.5 -117t138.5 -297q0 -100 -44 -193.5t-117 -160.5t-170.5 -107.5t-201.5 -40.5q-152 0 -271 78.5t-171 218.5h282
q51 -107 135.5 -175.5t174.5 -68.5q57 0 96 40t54.5 96t15.5 122q0 92 -34 189t-90 176t-136 129.5t-164 50.5q-53 0 -97 -16l-129 -49l-4 4l66 530q14 221 -89 349t-313 128q-113 0 -211.5 -46.5t-170.5 -127t-124 -180.5t-83 -217q126 102 299 102q131 0 242 -64t176 -174
t65 -241q0 -199 -141.5 -341t-339.5 -142q-96 0 -178 31.5t-142 88t-103 132.5t-64 166t-21 188zM264 731q0 -100 55 -220t133.5 -215t168.5 -159.5t157 -64.5q53 0 83 38.5t30 100.5q0 100 -55 220t-133.5 215t-168.5 159.5t-157 64.5q-55 0 -84 -38t-29 -101z" />
    <glyph glyph-name="ampersand.ss01" horiz-adv-x="1619" 
d="M780 1133q106 36 313 109.5t359.5 127.5t155.5 55v-270h-564q52 -8 80 -16q136 -34 232 -126.5t133 -226.5q41 -154 -3.5 -311.5t-164.5 -275.5q-102 -101 -237 -154t-277 -53q-146 0 -282 53.5t-240 157.5q-103 103 -158 235t-55 277q0 146 55 278.5t158 235.5
q143 141 341 190.5t392 -16.5l-400 -344q91 52 162 74zM795 1233q-13 6 -35.5 14.5t-87 23.5t-123 17t-130.5 -20t-124 -74q-70 -70 -80.5 -190t29.5 -244zM395 864l-145 -125q58 -177 196 -321q113 -120 255 -185t281 -62.5t245 73.5q45 29 90 78q94 101 125.5 231.5
t-6.5 261.5q-34 115 -115.5 196.5t-190.5 110.5q-83 21 -163.5 21t-143.5 -15.5t-127 -46.5t-109 -61.5t-95 -71.5z" />
    <glyph glyph-name="ampersand.ss02" horiz-adv-x="1619" 
d="M780 1133q106 36 313 109.5t359.5 127.5t155.5 55v-270h-564q52 -8 80 -16q136 -34 232 -126.5t133 -226.5q41 -154 -3.5 -311.5t-164.5 -275.5q-102 -101 -237 -154t-277 -53q-146 0 -282 53.5t-240 157.5q-103 103 -158 235t-55 277q0 146 55 278.5t158 235.5
q140 139 330.5 188t381.5 -6l267 231l12 -14l-658 -569q91 52 162 74zM795 1233q-13 6 -35.5 14.5t-87 23.5t-123 17t-130.5 -20t-124 -74q-70 -70 -80.5 -190t29.5 -244zM395 864l-145 -125q58 -177 196 -321q113 -120 255 -185t281 -62.5t245 73.5q45 29 90 78
q94 101 125.5 231.5t-6.5 261.5q-34 115 -115.5 196.5t-190.5 110.5q-83 21 -163.5 21t-143.5 -15.5t-127 -46.5t-109 -61.5t-95 -71.5z" />
    <glyph glyph-name="ampersand.ss03" horiz-adv-x="1331" 
d="M1049 360q5 -5 70 -62t101.5 -91.5t84 -94t67.5 -108.5v-4h-270v2q0 73 -19.5 164t-54.5 143q-41 -94 -113 -164t-167 -108q-203 -80 -398 4q-97 40 -169.5 113t-110.5 170q-40 97 -39 200t41 199q40 97 112.5 170t169.5 113l11 2q-185 214 -236 405l-4 21h749v-271h-2
l-722 242q20 -74 62 -151.5t85 -137t117.5 -140t121.5 -126t136 -129.5q57 -53 170 -166l14 -14q54 -48 172 -160q35 93 23 215q-21 165 -136 283q-67 70 -157.5 107.5t-190.5 37.5h-57v18h596v-18h-305l127 -133q145 -151 145 -373q0 -82 -24 -158zM330 395
q53 -85 126 -143t150.5 -80t153 -14.5t141 54.5t107.5 126q-42 58 -106.5 128.5t-107 112t-135.5 130.5q-6 6 -35 33.5t-38 36.5t-35 34t-37.5 36.5l-34 34t-36.5 37.5t-32 34.5t-34 37.5q-87 -66 -119 -171t-11.5 -216t83.5 -211z" />
    <glyph glyph-name="ampersand.ss04" horiz-adv-x="1343" 
d="M1057 383q16 -16 64.5 -60t78 -73t69.5 -72.5t68.5 -87t46.5 -86.5v-4h-270v2q0 76 -19.5 178t-54.5 154q-38 -100 -114 -178t-176 -119q-79 -31 -162.5 -36.5t-161 15.5t-146.5 62t-123.5 105t-86.5 143q-81 197 2 399q46 109 122 177t193 114q-98 115 -153 212t-82 206
h753v-269h-4l-311 105q252 -126 368.5 -307t116.5 -447q0 -68 -18 -133zM1030 408q31 85 25 190q-19 268 -179 444t-491 295l-209 70q15 -53 41 -108.5t54 -101t72.5 -101.5t78 -94.5t91 -96.5t91 -90t96.5 -92q134 -129 170 -168l17 -12q135 -127 143 -135zM342 385
q61 -91 139 -147t156 -69.5t151.5 3t133 68.5t94.5 129q-41 54 -102.5 119t-100 102.5t-125.5 120.5q-202 190 -291 293q-71 -46 -109 -128t-40.5 -170t22 -174.5t72.5 -146.5z" />
    </font>
</defs>
</svg>
